<svg width="45" height="46" viewBox="0 0 45 46" fill="none" xmlns="http://www.w3.org/2000/svg">
<circle cx="22.5" cy="23.3672" r="22.5" fill="#11FF49"/>
<path d="M12.6876 35.2235C12.1144 35.664 12.2365 36.0249 12.9583 36.0249H34.2424C34.9643 36.0249 35.1394 35.6056 34.6299 35.0961L26.1056 26.5718C25.5961 26.0623 24.7044 26.0039 24.1311 26.4444L12.6876 35.2235Z" fill="#1A1A1A"/>
<path d="M22.2742 24.8717C22.7891 24.3622 23.6277 23.5289 24.1425 23.0246L34.2273 13.0407C34.7421 12.5312 34.5723 12.1172 33.8504 12.1172H12.5663C11.8392 12.1172 11.25 12.7063 11.25 13.4335V34.4628C11.25 35.1847 11.6693 35.3599 12.1842 34.8503L22.2689 24.8717H22.2742Z" fill="#1A1A1A"/>
</svg>
