<svg width="45" height="46" viewBox="0 0 45 46" fill="none" xmlns="http://www.w3.org/2000/svg">
<g clip-path="url(#clip0_8555_26154)">
<path d="M22.5001 45.8672C26.9501 45.8672 31.3003 44.5476 35.0004 42.0753C38.7005 39.6029 41.5844 36.0889 43.2874 31.9776C44.9903 27.8662 45.4359 23.3422 44.5677 18.9777C43.6996 14.6131 41.5567 10.604 38.41 7.4573C35.2633 4.31061 31.2542 2.1677 26.8896 1.29953C22.525 0.431361 18.001 0.876936 13.8897 2.57991C9.77835 4.28288 6.26433 7.16676 3.792 10.8669C1.31967 14.567 6.81196e-05 18.9171 6.81196e-05 23.3672C-0.0072163 26.324 0.569791 29.2531 1.69794 31.9862C2.82609 34.7193 4.48315 37.2026 6.57392 39.2933C8.66469 41.3841 11.148 43.0412 13.8811 44.1693C16.6142 45.2975 19.5433 45.8745 22.5001 45.8672Z" fill="#2775CA"/>
<path d="M28.6877 26.9301C28.6877 23.6573 26.72 22.5221 22.7825 22.0537C19.968 21.6794 19.4075 20.9287 19.4075 19.6176C19.4075 18.3064 20.3443 17.4596 22.218 17.4596C23.9075 17.4596 24.8443 18.0221 25.3127 19.4294C25.363 19.565 25.4538 19.6818 25.5727 19.7641C25.6916 19.8464 25.8329 19.8902 25.9775 19.8896H27.4768C27.5637 19.8919 27.6501 19.8764 27.7307 19.8442C27.8114 19.812 27.8847 19.7637 27.9461 19.7023C28.0075 19.6409 28.0558 19.5676 28.088 19.4869C28.1202 19.4062 28.1357 19.3198 28.1334 19.233V19.141C27.9523 18.1249 27.4406 17.197 26.6779 16.5016C25.9152 15.8063 24.9442 15.3823 23.9157 15.2955V13.0455C23.9157 12.6712 23.6334 12.391 23.165 12.2969H21.7577C21.3834 12.2969 21.1032 12.5771 21.0091 13.0455V15.2096C18.1884 15.5941 16.4068 17.4596 16.4068 19.8037C16.4068 22.8985 18.2825 24.1176 22.22 24.586C24.8443 25.0544 25.6973 25.6087 25.6973 27.1162C25.6973 28.6237 24.3861 29.6485 22.6046 29.6485C20.1664 29.6485 19.3318 28.6257 19.0414 27.2103C19.0146 27.0522 18.9332 26.9085 18.8113 26.8042C18.6895 26.6999 18.5349 26.6417 18.3746 26.6396H16.773C16.6862 26.6376 16.5999 26.6533 16.5194 26.6856C16.4389 26.7179 16.3657 26.7662 16.3043 26.8276C16.243 26.8889 16.1947 26.9621 16.1624 27.0426C16.1301 27.1232 16.1144 27.2094 16.1164 27.2962V27.3903C16.4927 29.7344 17.9921 31.4219 21.0868 31.8903V34.1403C21.0868 34.5146 21.3671 34.7969 21.8355 34.891H23.2427C23.6171 34.891 23.8993 34.6087 23.9914 34.1403V31.8903C26.8039 31.4219 28.6796 29.4521 28.6796 26.9219L28.6877 26.9301Z" fill="white"/>
<path d="M17.7179 36.7729C15.0203 35.7835 12.6917 33.9897 11.0466 31.6341C9.40148 29.2784 8.51931 26.4744 8.51931 23.6012C8.51931 20.728 9.40148 17.924 11.0466 15.5683C12.6917 13.2127 15.0203 11.4189 17.7179 10.4295C17.8978 10.3517 18.049 10.2195 18.1502 10.0515C18.2515 9.88358 18.2977 9.68819 18.2824 9.49268V8.1795C18.295 8.00725 18.2448 7.83626 18.141 7.69823C18.0372 7.5602 17.8868 7.46448 17.7179 7.42882C17.5859 7.41505 17.4533 7.44838 17.3435 7.52291C13.9305 8.60771 10.9512 10.7505 8.83694 13.641C6.72263 16.5316 5.58301 20.0199 5.58301 23.6012C5.58301 27.1825 6.72263 30.6708 8.83694 33.5614C10.9512 36.4519 13.9305 38.5947 17.3435 39.6795C17.4215 39.7248 17.5091 39.751 17.5991 39.7559C17.6891 39.7608 17.779 39.7443 17.8614 39.7078C17.9438 39.6713 18.0164 39.6158 18.0732 39.5458C18.1301 39.4758 18.1695 39.3933 18.1883 39.3052C18.2824 39.2111 18.2824 39.117 18.2824 38.9288V37.6177C18.2824 37.3354 18.0001 36.9611 17.7179 36.7729ZM27.6567 7.52291C27.5786 7.47763 27.4909 7.45151 27.4008 7.44671C27.3106 7.44192 27.2206 7.45857 27.1382 7.4953C27.0557 7.53204 26.9832 7.58781 26.9265 7.65803C26.8697 7.72826 26.8305 7.81093 26.8119 7.89927C26.7199 7.99132 26.7199 8.08541 26.7199 8.27359V9.58473C26.7357 9.77379 26.7946 9.95673 26.8921 10.1195C26.9896 10.2822 27.1231 10.4205 27.2824 10.5236C29.9799 11.513 32.3086 13.3068 33.9537 15.6624C35.5988 18.0181 36.4809 20.8221 36.4809 23.6953C36.4809 26.5685 35.5988 29.3725 33.9537 31.7281C32.3086 34.0838 29.9799 35.8776 27.2824 36.867C27.1026 36.9449 26.9517 37.0771 26.8508 37.2451C26.7499 37.4131 26.7042 37.6085 26.7199 37.8038V39.117C26.7072 39.289 26.7571 39.4597 26.8605 39.5977C26.9639 39.7357 27.1138 39.8316 27.2824 39.8677C27.4144 39.8814 27.5469 39.8481 27.6567 39.7736C31.0684 38.6738 34.0434 36.5202 36.1537 33.6226C38.2641 30.7251 39.401 27.2328 39.401 23.6482C39.401 20.0636 38.2641 16.5714 36.1537 13.6739C34.0434 10.7763 31.0684 8.62272 27.6567 7.52291Z" fill="white"/>
</g>
<defs>
<clipPath id="clip0_8555_26154">
<rect width="45" height="45" fill="white" transform="translate(0 0.867188)"/>
</clipPath>
</defs>
</svg>
