<svg width="23" height="17" viewBox="0 0 23 17" fill="none" xmlns="http://www.w3.org/2000/svg">
<mask id="path-1-inside-1_10118_25166" fill="white">
<path d="M6.20605 0.0146484H22.9229V16.7549H6.20605V16.7617L6.20117 16.7549H6.18164V16.7285L0 8.38477L6.18164 0.0322266V0.0146484H6.19531L6.20605 0V0.0146484Z"/>
</mask>
<path d="M6.20605 0.0146484H4.70605V1.51465H6.20605V0.0146484ZM22.9229 0.0146484H24.4229V-1.48535H22.9229V0.0146484ZM22.9229 16.7549V18.2549H24.4229V16.7549H22.9229ZM6.20605 16.7549V15.2549H4.70605V16.7549H6.20605ZM6.20605 16.7617L4.98545 17.6336L7.70605 21.4424V16.7617H6.20605ZM6.20117 16.7549L7.42177 15.883L6.9731 15.2549H6.20117V16.7549ZM6.18164 16.7549H4.68164V18.2549H6.18164V16.7549ZM6.18164 16.7285H7.68164V16.2334L7.3869 15.8356L6.18164 16.7285ZM0 8.38477L-1.20571 7.49243L-1.86647 8.38524L-1.20526 9.27771L0 8.38477ZM6.18164 0.0322266L7.38735 0.924562L7.68164 0.526922V0.0322266H6.18164ZM6.18164 0.0146484V-1.48535H4.68164V0.0146484H6.18164ZM6.19531 0.0146484V1.51465H6.95542L7.40492 0.901694L6.19531 0.0146484ZM6.20605 0H7.70605V-4.58196L4.99645 -0.887046L6.20605 0ZM6.20605 0.0146484V1.51465H22.9229V0.0146484V-1.48535H6.20605V0.0146484ZM22.9229 0.0146484H21.4229V16.7549H22.9229H24.4229V0.0146484H22.9229ZM22.9229 16.7549V15.2549H6.20605V16.7549V18.2549H22.9229V16.7549ZM6.20605 16.7549H4.70605V16.7617H6.20605H7.70605V16.7549H6.20605ZM6.20605 16.7617L7.42665 15.8899L7.42177 15.883L6.20117 16.7549L4.98057 17.6267L4.98545 17.6336L6.20605 16.7617ZM6.20117 16.7549V15.2549H6.18164V16.7549V18.2549H6.20117V16.7549ZM6.18164 16.7549H7.68164V16.7285H6.18164H4.68164V16.7549H6.18164ZM6.18164 16.7285L7.3869 15.8356L1.20526 7.49182L0 8.38477L-1.20526 9.27771L4.97638 17.6215L6.18164 16.7285ZM0 8.38477L1.20571 9.2771L7.38735 0.924562L6.18164 0.0322266L4.97593 -0.860109L-1.20571 7.49243L0 8.38477ZM6.18164 0.0322266H7.68164V0.0146484H6.18164H4.68164V0.0322266H6.18164ZM6.18164 0.0146484V1.51465H6.19531V0.0146484V-1.48535H6.18164V0.0146484ZM6.19531 0.0146484L7.40492 0.901694L7.41566 0.887046L6.20605 0L4.99645 -0.887046L4.9857 -0.872397L6.19531 0.0146484ZM6.20605 0H4.70605V0.0146484H6.20605H7.70605V0H6.20605Z" fill="#F1F0EB" mask="url(#path-1-inside-1_10118_25166)"/>
<path d="M17.71 4.63281L10.21 12.1328M10.21 4.63281L17.71 12.1328" stroke="#F1F0EB" stroke-width="1.5483" stroke-linecap="round" stroke-linejoin="round"/>
</svg>
