<svg width="25" height="25" viewBox="0 0 25 25" fill="none" xmlns="http://www.w3.org/2000/svg">
<path d="M9.74393 21.875C10.4784 22.5233 11.4433 22.9167 12.5 22.9167C13.5567 22.9167 14.5216 22.5233 15.2561 21.875M18.75 8.33337C18.75 6.67577 18.0915 5.08606 16.9194 3.91396C15.7473 2.74185 14.1576 2.08337 12.5 2.08337C10.8424 2.08337 9.25269 2.74185 8.08058 3.91396C6.90848 5.08606 6.25 6.67577 6.25 8.33337C6.25 11.5523 5.43799 13.7562 4.5309 15.214C3.76576 16.4437 3.38319 17.0585 3.39722 17.23C3.41275 17.4199 3.45298 17.4923 3.60602 17.6059C3.74423 17.7084 4.36728 17.7084 5.61339 17.7084H19.3866C20.6327 17.7084 21.2558 17.7084 21.394 17.6059C21.547 17.4923 21.5873 17.4199 21.6028 17.23C21.6168 17.0585 21.2342 16.4437 20.4691 15.214C19.562 13.7562 18.75 11.5523 18.75 8.33337Z" stroke="#F1F0EB" stroke-width="1.5" stroke-linecap="round" stroke-linejoin="round"/>
</svg>
