<svg width="12" height="13" viewBox="0 0 12 13" fill="none" xmlns="http://www.w3.org/2000/svg">
<g clip-path="url(#clip0_9213_20949)">
<path d="M10.5 5.79688H1.5M8 1.79688V3.79688M4 1.79688V3.79688M3.9 11.7969H8.1C8.94008 11.7969 9.36012 11.7969 9.68099 11.6334C9.96323 11.4896 10.1927 11.2601 10.3365 10.9779C10.5 10.657 10.5 10.237 10.5 9.39688V5.19688C10.5 4.3568 10.5 3.93676 10.3365 3.61589C10.1927 3.33365 9.96323 3.10418 9.68099 2.96037C9.36012 2.79687 8.94008 2.79688 8.1 2.79688H3.9C3.05992 2.79688 2.63988 2.79687 2.31901 2.96037C2.03677 3.10418 1.8073 3.33365 1.66349 3.61589C1.5 3.93676 1.5 4.3568 1.5 5.19687V9.39687C1.5 10.237 1.5 10.657 1.66349 10.9779C1.8073 11.2601 2.03677 11.4896 2.31901 11.6334C2.63988 11.7969 3.05992 11.7969 3.9 11.7969Z" stroke="#6E6E6E" stroke-linecap="round" stroke-linejoin="round"/>
</g>
<defs>
<clipPath id="clip0_9213_20949">
<rect width="12" height="12" fill="white" transform="translate(0 0.796875)"/>
</clipPath>
</defs>
</svg>
