<svg width="25" height="23" viewBox="0 0 25 23" fill="none" xmlns="http://www.w3.org/2000/svg">
<g id="shopping-cart-03">
<path id="Icon" d="M5.2084 13.0201H18.8914C19.9465 13.0201 20.474 13.0201 20.8939 12.8445C21.2639 12.6898 21.5747 12.4414 21.7878 12.1302C22.0296 11.7769 22.0879 11.3088 22.2044 10.3726L22.8138 5.47577C22.8494 5.18981 22.8671 5.04683 22.8156 4.93616C22.7704 4.83896 22.6896 4.75834 22.5864 4.70747C22.4689 4.64955 22.3078 4.64955 21.9855 4.64955H4.68756M2.08325 1.85938H3.38371C3.65936 1.85938 3.79718 1.85938 3.90501 1.90618C3.99994 1.94738 4.0786 2.01337 4.13058 2.09539C4.18963 2.18856 4.19823 2.31138 4.21542 2.55701L5.15942 16.0427C5.17661 16.2883 5.18521 16.4111 5.24425 16.5043C5.29624 16.5863 5.3749 16.6523 5.46983 16.6935C5.57765 16.7403 5.71548 16.7403 5.99113 16.7403H19.7916M7.81242 19.9955H7.82284M17.1874 19.9955H17.1978M8.33325 19.9955C8.33325 20.2524 8.10007 20.4606 7.81242 20.4606C7.52477 20.4606 7.29159 20.2524 7.29159 19.9955C7.29159 19.7387 7.52477 19.5305 7.81242 19.5305C8.10007 19.5305 8.33325 19.7387 8.33325 19.9955ZM17.7083 19.9955C17.7083 20.2524 17.4751 20.4606 17.1874 20.4606C16.8998 20.4606 16.6666 20.2524 16.6666 19.9955C16.6666 19.7387 16.8998 19.5305 17.1874 19.5305C17.4751 19.5305 17.7083 19.7387 17.7083 19.9955Z" stroke="#F1F0EB" stroke-width="1.5" stroke-linecap="round" stroke-linejoin="round"/>
</g>
</svg>
