<svg width="26" height="26" viewBox="0 0 26 26" fill="none" xmlns="http://www.w3.org/2000/svg">
<path d="M18.8763 10.6195L14.7097 6.45279M2.73047 22.5986L6.25585 22.2069C6.68657 22.1591 6.90193 22.1351 7.10323 22.07C7.28181 22.0121 7.45177 21.9305 7.60848 21.8271C7.78511 21.7107 7.93833 21.5574 8.24477 21.251L22.0013 7.49446C23.1519 6.34386 23.1519 4.47838 22.0013 3.32779C20.8507 2.1772 18.9853 2.1772 17.8347 3.32779L4.0781 17.0843C3.77166 17.3908 3.61844 17.544 3.50197 17.7206C3.39863 17.8773 3.31694 18.0473 3.25913 18.2259C3.19396 18.4272 3.17004 18.6425 3.12218 19.0732L2.73047 22.5986Z" stroke="#1A1A1A" stroke-width="1.5" stroke-linecap="round" stroke-linejoin="round"/>
</svg>
