<svg width="100" height="26" viewBox="0 0 100 26" fill="none" xmlns="http://www.w3.org/2000/svg">
<g clip-path="url(#clip0_1702_11873)">
<path d="M40.5134 0.63261C40.178 -0.0494116 39.6302 -0.0494116 39.3003 0.63261L27.924 23.9443C27.5886 24.6263 27.9408 25.191 28.701 25.191H51.1183C51.8786 25.191 52.2308 24.6319 51.8954 23.9443L40.5134 0.63261Z" fill="#F1F0EB"/>
<path d="M68.4762 11.3819C67.9451 11.9241 67.0675 11.9241 66.5364 11.3819L55.8868 0.542192C55.3557 -7.06464e-05 54.9141 0.17882 54.9141 0.939106V23.8036C54.9141 24.5639 55.5346 25.19 56.3005 25.19H78.7177C79.478 25.19 80.1041 24.5695 80.1041 23.8036V0.939106C80.1041 0.17882 79.6681 -7.06464e-05 79.1314 0.542192L68.4818 11.3819H68.4762Z" fill="#F1F0EB"/>
<path d="M11.6111 13.4336C12.1534 12.8969 13.0367 12.0192 13.5789 11.4881L24.2006 0.972719C24.7428 0.436047 24.564 0 23.8037 0H1.3864C0.620528 0 0 0.620528 0 1.3864V23.5353C0 24.2956 0.441637 24.4801 0.9839 23.9434L11.6055 13.4336H11.6111Z" fill="#F1F0EB"/>
<path d="M1.51496 24.3394C0.911202 24.8034 1.03978 25.1836 1.80007 25.1836H24.2173C24.9776 25.1836 25.1621 24.7419 24.6254 24.2052L15.6473 15.2272C15.1107 14.6905 14.1715 14.629 13.5677 15.093L1.51496 24.3394Z" fill="#F1F0EB"/>
<path d="M99.9998 15.4629V1.3864C99.9998 0.626118 99.3793 0 98.6134 0H85.9177C85.1574 0 84.973 0.441637 85.5096 0.978309L99.0159 14.4846C99.5526 15.0212 99.9942 15.4629 99.9942 15.4629H99.9998Z" fill="#F1F0EB"/>
<path d="M85.2585 1.39166C84.7721 0.804677 84.3696 0.950025 84.3696 1.7159V23.8033C84.3696 24.5636 84.9902 25.1897 85.756 25.1897H98.4517C99.212 25.1897 99.8381 24.5692 99.8381 23.8033V20.2311C99.8381 19.4708 99.4412 18.3695 98.9492 17.7825L85.2585 1.39166Z" fill="#F1F0EB"/>
</g>
<defs>
<clipPath id="clip0_1702_11873">
<rect width="100" height="25.1845" fill="white"/>
</clipPath>
</defs>
</svg>
