<svg width="20" height="21" viewBox="0 0 20 21" fill="none" xmlns="http://www.w3.org/2000/svg">
<path d="M12.5 3.36719V18.3672M6.5 3.36719H13.5C14.9001 3.36719 15.6002 3.36719 16.135 3.63967C16.6054 3.87935 16.9878 4.26181 17.2275 4.73221C17.5 5.26699 17.5 5.96706 17.5 7.36719V14.3672C17.5 15.7673 17.5 16.4674 17.2275 17.0022C16.9878 17.4726 16.6054 17.855 16.135 18.0947C15.6002 18.3672 14.9001 18.3672 13.5 18.3672H6.5C5.09987 18.3672 4.3998 18.3672 3.86502 18.0947C3.39462 17.855 3.01217 17.4726 2.77248 17.0022C2.5 16.4674 2.5 15.7673 2.5 14.3672V7.36719C2.5 5.96706 2.5 5.26699 2.77248 4.73221C3.01217 4.26181 3.39462 3.87935 3.86502 3.63967C4.3998 3.36719 5.09987 3.36719 6.5 3.36719Z" stroke="#AFAB99" stroke-width="1.5" stroke-linecap="round" stroke-linejoin="round"/>
</svg>
