<svg width="220" height="35" viewBox="0 0 220 35" fill="none" xmlns="http://www.w3.org/2000/svg">
<path d="M65.3101 17.192C65.3101 22.352 65.3101 27.502 65.3101 32.662C65.3101 32.882 65.3201 33.102 65.3001 33.322C65.2301 33.972 64.8201 34.322 64.2001 34.392C63.6701 34.452 63.1101 33.992 63.0101 33.412C62.9701 33.172 62.9801 32.932 62.9801 32.682C62.9801 22.342 62.9801 12.002 62.9901 1.66196C62.9901 1.42196 62.9901 1.17196 63.0301 0.931964C63.1601 0.341964 63.6901 -0.0780365 64.2501 0.00196353C64.8501 0.0819635 65.2101 0.441963 65.2901 1.05196C65.3201 1.27196 65.3001 1.49196 65.3001 1.71196C65.3001 6.87196 65.3001 12.022 65.3001 17.182H65.3101V17.192Z" fill="#231F20"/>
<path d="M5.72036 17.1447C5.72036 12.0047 5.72036 6.87474 5.72036 1.73474C5.72036 1.51474 5.72036 1.29474 5.72036 1.07474C5.77036 0.434737 6.18036 0.0947369 6.75036 0.0247369C7.32036 -0.0452631 7.70036 0.294737 7.92036 0.814737C8.03036 1.07474 8.00036 1.34474 8.00036 1.60474C8.00036 11.9947 8.01036 22.3847 8.01036 32.7847C8.01036 33.0747 8.03036 33.3647 7.90036 33.6447C7.67036 34.1347 7.29036 34.4447 6.75036 34.3747C6.17036 34.3047 5.77036 33.9547 5.69036 33.3347C5.66036 33.1147 5.68036 32.8947 5.68036 32.6747C5.68036 27.4947 5.68036 22.3047 5.68036 17.1247H5.69036L5.72036 17.1447Z" fill="#231F20"/>
<path d="M57.2702 17.2141C57.2702 13.0741 57.2702 8.94411 57.2702 4.80411C57.2702 4.58411 57.2502 4.3641 57.2802 4.1441C57.3702 3.5341 57.7402 3.1641 58.3402 3.1141C58.9502 3.0641 59.3602 3.4141 59.5202 3.9941C59.5902 4.2441 59.5802 4.5241 59.5802 4.7941C59.5802 13.0641 59.5802 21.3441 59.5902 29.6141C59.5902 29.8041 59.6002 30.0041 59.5802 30.1941C59.5002 30.8441 59.0202 31.3041 58.4302 31.3041C57.8102 31.3041 57.3102 30.8241 57.2702 30.1341C57.2402 29.6741 57.2702 29.2141 57.2702 28.7441C57.2702 24.8941 57.2702 21.0541 57.2702 17.2041V17.2141Z" fill="#231F20"/>
<path d="M42.3504 11.8047C42.3504 18.9047 42.3704 26.0047 42.3704 33.1047C42.3704 33.8747 41.9304 34.3647 41.2704 34.4047C40.6504 34.4347 40.1404 33.9247 40.0704 33.1947C40.0604 33.0747 40.0704 32.9547 40.0704 32.8347C40.0704 26.5147 40.0704 20.1947 40.0704 13.8747C40.0704 13.6847 40.0904 13.4847 40.1104 13.2947C40.6304 13.1847 40.9904 12.8247 41.3404 12.4747C41.6304 12.1847 41.8904 11.8647 42.3404 11.8247L42.3504 11.8047Z" fill="#231F20"/>
<path d="M22.9504 26.2546C22.9404 25.5546 22.9204 24.8446 22.9204 24.1446C22.9204 17.5846 22.9204 11.0146 22.9304 4.4546C22.9304 4.1846 22.9004 3.9146 22.9504 3.6546C23.0704 3.0546 23.4504 2.7246 24.0804 2.7346C24.6704 2.7446 25.0204 3.0846 25.1404 3.6446C25.1804 3.8046 25.1604 3.9846 25.1604 4.1546C25.1604 10.8646 25.1604 17.5746 25.1704 24.2846C25.1704 24.4546 25.1504 24.6246 25.1404 24.7946C24.7804 24.7446 24.5704 24.9846 24.3504 25.2046C23.9404 25.6246 23.5104 26.0346 22.9404 26.2546H22.9504Z" fill="#231F20"/>
<path d="M28.6604 22.0231C28.6604 20.1231 28.6304 18.2331 28.6304 16.3331C28.6304 11.4431 28.6304 6.56306 28.6304 1.67306C28.6304 1.45306 28.6204 1.23306 28.6404 1.01306C28.7104 0.433063 29.0604 0.0730627 29.6304 0.00306268C30.1904 -0.0669373 30.6304 0.203063 30.8304 0.753063C30.9104 0.973063 30.9404 1.22306 30.9404 1.46306C30.9404 7.63306 30.9404 13.8131 30.9404 19.9831C30.9404 20.1731 30.9004 20.3631 30.8804 20.5631C30.4804 20.4731 30.2604 20.7531 30.0104 20.9831C29.5904 21.3731 29.2804 21.9131 28.6404 22.0131L28.6604 22.0231Z" fill="#231F20"/>
<path d="M13.7404 17.204C13.7404 20.244 13.7404 23.284 13.7404 26.324C13.7404 27.284 13.2804 27.864 12.5504 27.834C11.8704 27.814 11.4204 27.214 11.4204 26.314C11.4204 20.234 11.4204 14.154 11.4204 8.06401C11.4204 7.15401 11.7904 6.65401 12.4804 6.56401C13.1904 6.47401 13.7204 7.04401 13.7204 7.92401C13.7204 11.014 13.7204 14.104 13.7204 17.194L13.7404 17.204Z" fill="#231F20"/>
<path d="M0.000234375 17.1231C0.000234375 14.3731 0.000234375 11.6231 0.000234375 8.87313C0.000234375 7.98313 0.420234 7.45312 1.10023 7.45312C1.79023 7.45312 2.29023 8.04313 2.29023 8.91313C2.29023 14.4331 2.29023 19.9631 2.29023 25.4831C2.29023 26.3631 1.80023 26.9431 1.10023 26.9431C0.410234 26.9431 -0.00976562 26.4131 -0.00976562 25.5131C-0.00976562 22.7131 -0.00976562 19.9131 -0.00976562 17.1131L0.000234375 17.1231Z" fill="#231F20"/>
<path d="M48.0903 17.2262C48.0903 19.5862 48.0903 21.9363 48.0903 24.2963C48.0903 24.8463 47.8603 25.2263 47.3503 25.4363C46.8903 25.6263 46.5003 25.4863 46.1503 25.1663C45.9003 24.9363 45.8403 24.6262 45.8403 24.3062C45.8403 19.5662 45.8403 14.8263 45.8503 10.0963C45.8503 9.38625 46.3403 8.90625 46.9603 8.90625C47.5903 8.90625 48.0703 9.38625 48.0703 10.0963C48.0803 12.4763 48.0703 14.8562 48.0703 17.2362L48.0903 17.2262Z" fill="#231F20"/>
<path d="M71.0204 17.2725C71.0204 19.1225 71.0204 20.9625 71.0204 22.8125C71.0204 23.7125 70.6205 24.2025 69.9105 24.2225C69.1605 24.2425 68.7104 23.7325 68.7104 22.8125C68.7104 19.0725 68.7104 15.3225 68.7104 11.5825C68.7104 10.6525 69.1605 10.1525 69.9105 10.1725C70.6405 10.1925 71.0105 10.6525 71.0105 11.5825C71.0105 13.4825 71.0105 15.3725 71.0105 17.2725H71.0204Z" fill="#231F20"/>
<path d="M53.8103 12.8314C53.8303 13.8314 53.8503 14.8213 53.8603 15.8213C53.8603 18.9613 53.8603 22.0913 53.8603 25.2313C53.8603 26.3513 53.4603 26.9414 52.7203 26.9514C51.9303 26.9714 51.5503 26.4113 51.5503 25.2113C51.5503 21.5613 51.5603 17.9214 51.5703 14.2714C52.1303 14.2014 52.4203 13.7514 52.7803 13.4114C53.0803 13.1314 53.3303 12.7914 53.8103 12.8314Z" fill="#231F20"/>
<path d="M28.6603 22.022C29.2903 21.912 29.6103 21.372 30.0303 20.992C30.2803 20.762 30.5003 20.482 30.9003 20.572C30.9103 23.432 30.9303 26.302 30.9403 29.162C30.9403 30.452 30.9603 31.732 30.9403 33.022C30.9203 34.062 30.1503 34.642 29.3303 34.272C28.8303 34.042 28.6403 33.632 28.6503 33.092C28.6603 29.402 28.6703 25.712 28.6703 22.022H28.6603Z" fill="#231F20"/>
<path d="M42.3502 11.8C41.9002 11.84 41.6302 12.16 41.3502 12.45C40.9902 12.81 40.6402 13.17 40.1202 13.27C39.9902 12.67 40.0702 12.06 40.0602 11.46C40.0602 8.20001 40.0602 4.95001 40.0602 1.69001C40.0602 1.40001 40.0302 1.11001 40.1402 0.82001C40.3502 0.24001 40.7802 -0.05999 41.3702 0.01001C41.9602 0.08001 42.3302 0.47001 42.3702 1.08001C42.4002 1.59001 42.3802 2.10001 42.3802 2.61001C42.3802 5.67001 42.3602 8.73001 42.3502 11.79V11.8Z" fill="#231F20"/>
<path d="M36.6203 13.6409C36.6303 17.5109 36.6504 21.3709 36.6604 25.2409C36.6604 25.4809 36.6804 25.7309 36.6304 25.9709C36.5004 26.5609 36.1104 26.9309 35.5004 26.9209C34.9004 26.9209 34.5304 26.5409 34.3804 25.9509C34.3604 25.8609 34.3604 25.7609 34.3604 25.6609C34.3604 22.1109 34.3804 18.5609 34.3904 15.0109C34.9604 15.0109 35.2703 14.5909 35.6203 14.2409C35.9103 13.9509 36.1604 13.6309 36.6304 13.6409H36.6203Z" fill="#231F20"/>
<path d="M19.4501 17.2331C19.4501 18.8631 19.4501 20.4831 19.4501 22.1131C19.4501 22.9431 19.0201 23.4531 18.3501 23.4631C17.6701 23.4831 17.1401 22.9131 17.1401 22.1031C17.1401 18.8231 17.1401 15.5431 17.1401 12.2731C17.1401 11.4231 17.6401 10.8931 18.3401 10.9231C19.0301 10.9531 19.4401 11.4431 19.4401 12.2731C19.4401 13.9231 19.4401 15.5731 19.4401 17.2231L19.4501 17.2331Z" fill="#231F20"/>
<path d="M36.6202 13.6397C36.1602 13.6197 35.9002 13.9497 35.6102 14.2397C35.2602 14.5897 34.9502 15.0097 34.3802 15.0097C34.3702 12.8797 34.3402 10.7397 34.3602 8.60969C34.3602 7.92969 34.9102 7.42969 35.5202 7.42969C36.1302 7.42969 36.6602 7.92969 36.6602 8.61969C36.6702 10.2897 36.6402 11.9597 36.6202 13.6397Z" fill="#231F20"/>
<path d="M53.8102 12.8299C53.3402 12.7899 53.0802 13.1299 52.7802 13.4099C52.4202 13.7499 52.1302 14.1999 51.5702 14.2699C51.4302 12.3499 51.4702 10.4399 51.5502 8.51986C51.5802 7.85986 52.1102 7.41985 52.6902 7.42985C53.2602 7.42985 53.8302 7.90985 53.8502 8.53985C53.8802 9.96985 53.9602 11.3999 53.8102 12.8299Z" fill="#231F20"/>
<path d="M22.9504 26.2557C23.5204 26.0357 23.9504 25.6257 24.3604 25.2057C24.5804 24.9857 24.7804 24.7457 25.1504 24.7957C25.1504 26.6657 25.1704 28.5457 25.1704 30.4157C25.1704 31.2057 24.7304 31.6657 24.0604 31.6657C23.3804 31.6657 22.9504 31.2057 22.9404 30.4157C22.9404 29.0257 22.9404 27.6457 22.9604 26.2557H22.9504Z" fill="#231F20"/>
<path d="M139.38 17.192C139.38 22.352 139.38 27.502 139.38 32.662C139.38 32.882 139.39 33.102 139.37 33.322C139.3 33.972 138.89 34.322 138.27 34.392C137.74 34.452 137.18 33.992 137.08 33.412C137.04 33.172 137.05 32.932 137.05 32.682C137.05 22.342 137.05 12.002 137.06 1.66196C137.06 1.42196 137.06 1.17196 137.1 0.931964C137.23 0.341964 137.76 -0.0780365 138.32 0.00196353C138.92 0.0819635 139.28 0.441963 139.36 1.05196C139.39 1.27196 139.37 1.49196 139.37 1.71196C139.37 6.87196 139.37 12.022 139.37 17.182H139.38V17.192Z" fill="#231F20"/>
<path d="M79.7902 17.1447C79.7902 12.0047 79.7902 6.87474 79.7902 1.73474C79.7902 1.51474 79.7902 1.29474 79.7902 1.07474C79.8402 0.434737 80.2502 0.0947369 80.8202 0.0247369C81.3902 -0.0452631 81.7702 0.294737 81.9902 0.814737C82.1002 1.07474 82.0702 1.34474 82.0702 1.60474C82.0702 11.9947 82.0802 22.3847 82.0802 32.7847C82.0802 33.0747 82.1002 33.3647 81.9702 33.6447C81.7402 34.1347 81.3602 34.4447 80.8202 34.3747C80.2402 34.3047 79.8402 33.9547 79.7602 33.3347C79.7302 33.1147 79.7502 32.8947 79.7502 32.6747C79.7502 27.4947 79.7502 22.3047 79.7502 17.1247H79.7602L79.7902 17.1447Z" fill="#231F20"/>
<path d="M131.34 17.2141C131.34 13.0741 131.34 8.94411 131.34 4.80411C131.34 4.58411 131.32 4.3641 131.35 4.1441C131.44 3.5341 131.81 3.1641 132.41 3.1141C133.02 3.0641 133.43 3.4141 133.59 3.9941C133.66 4.2441 133.65 4.5241 133.65 4.7941C133.65 13.0641 133.65 21.3441 133.66 29.6141C133.66 29.8041 133.67 30.0041 133.65 30.1941C133.57 30.8441 133.09 31.3041 132.5 31.3041C131.88 31.3041 131.38 30.8241 131.34 30.1341C131.31 29.6741 131.34 29.2141 131.34 28.7441C131.34 24.8941 131.34 21.0541 131.34 17.2041V17.2141Z" fill="#231F20"/>
<path d="M116.42 11.8047C116.42 18.9047 116.44 26.0047 116.44 33.1047C116.44 33.8747 116 34.3647 115.34 34.4047C114.72 34.4347 114.21 33.9247 114.14 33.1947C114.13 33.0747 114.14 32.9547 114.14 32.8347C114.14 26.5147 114.14 20.1947 114.14 13.8747C114.14 13.6847 114.16 13.4847 114.18 13.2947C114.7 13.1847 115.06 12.8247 115.41 12.4747C115.7 12.1847 115.96 11.8647 116.41 11.8247L116.42 11.8047Z" fill="#231F20"/>
<path d="M97.0202 26.2546C97.0102 25.5546 96.9902 24.8446 96.9902 24.1446C96.9902 17.5846 96.9902 11.0146 97.0002 4.4546C97.0002 4.1846 96.9702 3.9146 97.0202 3.6546C97.1402 3.0546 97.5202 2.7246 98.1502 2.7346C98.7402 2.7446 99.0902 3.0846 99.2102 3.6446C99.2502 3.8046 99.2302 3.9846 99.2302 4.1546C99.2302 10.8646 99.2302 17.5746 99.2402 24.2846C99.2402 24.4546 99.2202 24.6246 99.2102 24.7946C98.8502 24.7446 98.6402 24.9846 98.4202 25.2046C98.0102 25.6246 97.5802 26.0346 97.0102 26.2546H97.0202Z" fill="#231F20"/>
<path d="M102.73 22.0231C102.73 20.1231 102.7 18.2331 102.7 16.3331C102.7 11.4431 102.7 6.56306 102.7 1.67306C102.7 1.45306 102.69 1.23306 102.71 1.01306C102.78 0.433063 103.13 0.0730627 103.7 0.00306268C104.26 -0.0669373 104.7 0.203063 104.9 0.753063C104.98 0.973063 105.01 1.22306 105.01 1.46306C105.01 7.63306 105.01 13.8131 105.01 19.9831C105.01 20.1731 104.97 20.3631 104.95 20.5631C104.55 20.4731 104.33 20.7531 104.08 20.9831C103.66 21.3731 103.35 21.9131 102.71 22.0131L102.73 22.0231Z" fill="#231F20"/>
<path d="M87.8102 17.204C87.8102 20.244 87.8102 23.284 87.8102 26.324C87.8102 27.284 87.3502 27.864 86.6202 27.834C85.9402 27.814 85.4902 27.214 85.4902 26.314C85.4902 20.234 85.4902 14.154 85.4902 8.06401C85.4902 7.15401 85.8602 6.65401 86.5502 6.56401C87.2602 6.47401 87.7902 7.04401 87.7902 7.92401C87.7902 11.014 87.7902 14.104 87.7902 17.194L87.8102 17.204Z" fill="#231F20"/>
<path d="M74.0803 17.1231C74.0803 14.3731 74.0803 11.6231 74.0803 8.87313C74.0803 7.98313 74.5003 7.45312 75.1803 7.45312C75.8703 7.45312 76.3703 8.04313 76.3703 8.91313C76.3703 14.4331 76.3703 19.9631 76.3703 25.4831C76.3703 26.3631 75.8803 26.9431 75.1803 26.9431C74.4903 26.9431 74.0703 26.4131 74.0703 25.5131C74.0703 22.7131 74.0703 19.9131 74.0703 17.1131L74.0803 17.1231Z" fill="#231F20"/>
<path d="M122.16 17.2262C122.16 19.5862 122.16 21.9363 122.16 24.2963C122.16 24.8463 121.93 25.2263 121.42 25.4363C120.96 25.6263 120.57 25.4863 120.22 25.1663C119.97 24.9363 119.91 24.6262 119.91 24.3062C119.91 19.5662 119.91 14.8263 119.92 10.0963C119.92 9.38625 120.41 8.90625 121.03 8.90625C121.66 8.90625 122.14 9.38625 122.14 10.0963C122.15 12.4763 122.14 14.8562 122.14 17.2362L122.16 17.2262Z" fill="#231F20"/>
<path d="M145.09 17.2725C145.09 19.1225 145.09 20.9625 145.09 22.8125C145.09 23.7125 144.69 24.2025 143.98 24.2225C143.23 24.2425 142.78 23.7325 142.78 22.8125C142.78 19.0725 142.78 15.3225 142.78 11.5825C142.78 10.6525 143.23 10.1525 143.98 10.1725C144.71 10.1925 145.08 10.6525 145.08 11.5825C145.08 13.4825 145.08 15.3725 145.08 17.2725H145.09Z" fill="#231F20"/>
<path d="M127.88 12.8314C127.9 13.8314 127.92 14.8213 127.93 15.8213C127.93 18.9613 127.93 22.0913 127.93 25.2313C127.93 26.3513 127.53 26.9414 126.79 26.9514C126 26.9714 125.62 26.4113 125.62 25.2113C125.62 21.5613 125.63 17.9214 125.64 14.2714C126.2 14.2014 126.49 13.7514 126.85 13.4114C127.15 13.1314 127.4 12.7914 127.88 12.8314Z" fill="#231F20"/>
<path d="M102.73 22.022C103.36 21.912 103.68 21.372 104.1 20.992C104.35 20.762 104.57 20.482 104.97 20.572C104.98 23.432 105 26.302 105.01 29.162C105.01 30.452 105.03 31.732 105.01 33.022C104.99 34.062 104.22 34.642 103.4 34.272C102.9 34.042 102.71 33.632 102.72 33.092C102.73 29.402 102.74 25.712 102.74 22.022H102.73Z" fill="#231F20"/>
<path d="M116.421 11.8C115.971 11.84 115.701 12.16 115.421 12.45C115.061 12.81 114.711 13.17 114.191 13.27C114.061 12.67 114.141 12.06 114.131 11.46C114.131 8.20001 114.131 4.95001 114.131 1.69001C114.131 1.40001 114.101 1.11001 114.211 0.82001C114.421 0.24001 114.851 -0.05999 115.441 0.01001C116.031 0.08001 116.401 0.47001 116.441 1.08001C116.471 1.59001 116.451 2.10001 116.451 2.61001C116.451 5.67001 116.431 8.73001 116.421 11.79V11.8Z" fill="#231F20"/>
<path d="M110.69 13.6409C110.7 17.5109 110.72 21.3709 110.73 25.2409C110.73 25.4809 110.75 25.7309 110.7 25.9709C110.57 26.5609 110.18 26.9309 109.57 26.9209C108.97 26.9209 108.6 26.5409 108.45 25.9509C108.43 25.8609 108.43 25.7609 108.43 25.6609C108.43 22.1109 108.45 18.5609 108.46 15.0109C109.03 15.0109 109.34 14.5909 109.69 14.2409C109.98 13.9509 110.23 13.6309 110.7 13.6409H110.69Z" fill="#231F20"/>
<path d="M93.5204 17.2331C93.5204 18.8631 93.5204 20.4831 93.5204 22.1131C93.5204 22.9431 93.0904 23.4531 92.4204 23.4631C91.7404 23.4831 91.2104 22.9131 91.2104 22.1031C91.2104 18.8231 91.2104 15.5431 91.2104 12.2731C91.2104 11.4231 91.7105 10.8931 92.4105 10.9231C93.1005 10.9531 93.5105 11.4431 93.5105 12.2731C93.5105 13.9231 93.5105 15.5731 93.5105 17.2231L93.5204 17.2331Z" fill="#231F20"/>
<path d="M110.691 13.6397C110.231 13.6197 109.971 13.9497 109.681 14.2397C109.331 14.5897 109.021 15.0097 108.451 15.0097C108.441 12.8797 108.411 10.7397 108.431 8.60969C108.431 7.92969 108.981 7.42969 109.591 7.42969C110.201 7.42969 110.731 7.92969 110.731 8.61969C110.741 10.2897 110.711 11.9597 110.691 13.6397Z" fill="#231F20"/>
<path d="M127.881 12.8299C127.411 12.7899 127.151 13.1299 126.851 13.4099C126.491 13.7499 126.201 14.1999 125.641 14.2699C125.501 12.3499 125.541 10.4399 125.621 8.51986C125.651 7.85986 126.181 7.41985 126.761 7.42985C127.331 7.42985 127.901 7.90985 127.921 8.53985C127.951 9.96985 128.031 11.3999 127.881 12.8299Z" fill="#231F20"/>
<path d="M97.0202 26.2557C97.5902 26.0357 98.0203 25.6257 98.4303 25.2057C98.6503 24.9857 98.8503 24.7457 99.2203 24.7957C99.2203 26.6657 99.2402 28.5457 99.2402 30.4157C99.2402 31.2057 98.8002 31.6657 98.1302 31.6657C97.4502 31.6657 97.0203 31.2057 97.0103 30.4157C97.0103 29.0257 97.0103 27.6457 97.0303 26.2557H97.0202Z" fill="#231F20"/>
<path d="M213.45 17.192C213.45 22.352 213.45 27.502 213.45 32.662C213.45 32.882 213.46 33.102 213.44 33.322C213.37 33.972 212.96 34.322 212.34 34.392C211.81 34.452 211.25 33.992 211.15 33.412C211.11 33.172 211.12 32.932 211.12 32.682C211.12 22.342 211.12 12.002 211.13 1.66196C211.13 1.42196 211.13 1.17196 211.17 0.931964C211.3 0.341964 211.83 -0.0780365 212.39 0.00196353C212.99 0.0819635 213.35 0.441963 213.43 1.05196C213.46 1.27196 213.44 1.49196 213.44 1.71196C213.44 6.87196 213.44 12.022 213.44 17.182H213.45V17.192Z" fill="#231F20"/>
<path d="M153.86 17.1447C153.86 12.0047 153.86 6.87474 153.86 1.73474C153.86 1.51474 153.86 1.29474 153.86 1.07474C153.91 0.434737 154.32 0.0947369 154.89 0.0247369C155.46 -0.0452631 155.84 0.294737 156.06 0.814737C156.17 1.07474 156.14 1.34474 156.14 1.60474C156.14 11.9947 156.15 22.3847 156.15 32.7847C156.15 33.0747 156.17 33.3647 156.04 33.6447C155.81 34.1347 155.43 34.4447 154.89 34.3747C154.31 34.3047 153.91 33.9547 153.83 33.3347C153.8 33.1147 153.82 32.8947 153.82 32.6747C153.82 27.4947 153.82 22.3047 153.82 17.1247H153.83L153.86 17.1447Z" fill="#231F20"/>
<path d="M205.41 17.2141C205.41 13.0741 205.41 8.94411 205.41 4.80411C205.41 4.58411 205.39 4.3641 205.42 4.1441C205.51 3.5341 205.88 3.1641 206.48 3.1141C207.09 3.0641 207.5 3.4141 207.66 3.9941C207.73 4.2441 207.72 4.5241 207.72 4.7941C207.72 13.0641 207.72 21.3441 207.73 29.6141C207.73 29.8041 207.74 30.0041 207.72 30.1941C207.64 30.8441 207.16 31.3041 206.57 31.3041C205.95 31.3041 205.45 30.8241 205.41 30.1341C205.38 29.6741 205.41 29.2141 205.41 28.7441C205.41 24.8941 205.41 21.0541 205.41 17.2041V17.2141Z" fill="#231F20"/>
<path d="M190.49 11.8047C190.49 18.9047 190.51 26.0047 190.51 33.1047C190.51 33.8747 190.07 34.3647 189.41 34.4047C188.79 34.4347 188.28 33.9247 188.21 33.1947C188.2 33.0747 188.21 32.9547 188.21 32.8347C188.21 26.5147 188.21 20.1947 188.21 13.8747C188.21 13.6847 188.23 13.4847 188.25 13.2947C188.77 13.1847 189.13 12.8247 189.48 12.4747C189.77 12.1847 190.03 11.8647 190.48 11.8247L190.49 11.8047Z" fill="#231F20"/>
<path d="M171.09 26.2546C171.08 25.5546 171.06 24.8446 171.06 24.1446C171.06 17.5846 171.06 11.0146 171.07 4.4546C171.07 4.1846 171.04 3.9146 171.09 3.6546C171.21 3.0546 171.59 2.7246 172.22 2.7346C172.81 2.7446 173.16 3.0846 173.28 3.6446C173.32 3.8046 173.3 3.9846 173.3 4.1546C173.3 10.8646 173.3 17.5746 173.31 24.2846C173.31 24.4546 173.29 24.6246 173.28 24.7946C172.92 24.7446 172.71 24.9846 172.49 25.2046C172.08 25.6246 171.65 26.0346 171.08 26.2546H171.09Z" fill="#231F20"/>
<path d="M176.8 22.0231C176.8 20.1231 176.77 18.2331 176.77 16.3331C176.77 11.4431 176.77 6.56306 176.77 1.67306C176.77 1.45306 176.76 1.23306 176.78 1.01306C176.85 0.433063 177.2 0.0730627 177.77 0.00306268C178.33 -0.0669373 178.77 0.203063 178.97 0.753063C179.05 0.973063 179.08 1.22306 179.08 1.46306C179.08 7.63306 179.08 13.8131 179.08 19.9831C179.08 20.1731 179.04 20.3631 179.02 20.5631C178.62 20.4731 178.4 20.7531 178.15 20.9831C177.73 21.3731 177.42 21.9131 176.78 22.0131L176.8 22.0231Z" fill="#231F20"/>
<path d="M161.88 17.204C161.88 20.244 161.88 23.284 161.88 26.324C161.88 27.284 161.42 27.864 160.69 27.834C160.01 27.814 159.56 27.214 159.56 26.314C159.56 20.234 159.56 14.154 159.56 8.06401C159.56 7.15401 159.93 6.65401 160.62 6.56401C161.33 6.47401 161.86 7.04401 161.86 7.92401C161.86 11.014 161.86 14.104 161.86 17.194L161.88 17.204Z" fill="#231F20"/>
<path d="M148.15 17.1231C148.15 14.3731 148.15 11.6231 148.15 8.87313C148.15 7.98313 148.57 7.45312 149.25 7.45312C149.94 7.45312 150.44 8.04313 150.44 8.91313C150.44 14.4331 150.44 19.9631 150.44 25.4831C150.44 26.3631 149.95 26.9431 149.25 26.9431C148.56 26.9431 148.14 26.4131 148.14 25.5131C148.14 22.7131 148.14 19.9131 148.14 17.1131L148.15 17.1231Z" fill="#231F20"/>
<path d="M196.23 17.2262C196.23 19.5862 196.23 21.9363 196.23 24.2963C196.23 24.8463 196 25.2263 195.49 25.4363C195.03 25.6263 194.64 25.4863 194.29 25.1663C194.04 24.9363 193.98 24.6262 193.98 24.3062C193.98 19.5662 193.98 14.8263 193.99 10.0963C193.99 9.38625 194.48 8.90625 195.1 8.90625C195.73 8.90625 196.21 9.38625 196.21 10.0963C196.22 12.4763 196.21 14.8562 196.21 17.2362L196.23 17.2262Z" fill="#231F20"/>
<path d="M219.16 17.2725C219.16 19.1225 219.16 20.9625 219.16 22.8125C219.16 23.7125 218.76 24.2025 218.05 24.2225C217.3 24.2425 216.85 23.7325 216.85 22.8125C216.85 19.0725 216.85 15.3225 216.85 11.5825C216.85 10.6525 217.3 10.1525 218.05 10.1725C218.78 10.1925 219.15 10.6525 219.15 11.5825C219.15 13.4825 219.15 15.3725 219.15 17.2725H219.16Z" fill="#231F20"/>
<path d="M201.95 12.8314C201.97 13.8314 201.99 14.8213 202 15.8213C202 18.9613 202 22.0913 202 25.2313C202 26.3513 201.6 26.9414 200.86 26.9514C200.07 26.9714 199.69 26.4113 199.69 25.2113C199.69 21.5613 199.7 17.9214 199.71 14.2714C200.27 14.2014 200.56 13.7514 200.92 13.4114C201.22 13.1314 201.47 12.7914 201.95 12.8314Z" fill="#231F20"/>
<path d="M176.8 22.022C177.43 21.912 177.75 21.372 178.17 20.992C178.42 20.762 178.64 20.482 179.04 20.572C179.05 23.432 179.07 26.302 179.08 29.162C179.08 30.452 179.1 31.732 179.08 33.022C179.06 34.062 178.29 34.642 177.47 34.272C176.97 34.042 176.78 33.632 176.79 33.092C176.8 29.402 176.81 25.712 176.81 22.022H176.8Z" fill="#231F20"/>
<path d="M190.49 11.8C190.04 11.84 189.77 12.16 189.49 12.45C189.13 12.81 188.78 13.17 188.26 13.27C188.13 12.67 188.21 12.06 188.2 11.46C188.2 8.20001 188.2 4.95001 188.2 1.69001C188.2 1.40001 188.17 1.11001 188.28 0.82001C188.49 0.24001 188.92 -0.05999 189.51 0.01001C190.1 0.08001 190.47 0.47001 190.51 1.08001C190.54 1.59001 190.52 2.10001 190.52 2.61001C190.52 5.67001 190.5 8.73001 190.49 11.79V11.8Z" fill="#231F20"/>
<path d="M184.76 13.6409C184.77 17.5109 184.79 21.3709 184.8 25.2409C184.8 25.4809 184.82 25.7309 184.77 25.9709C184.64 26.5609 184.25 26.9309 183.64 26.9209C183.04 26.9209 182.67 26.5409 182.52 25.9509C182.5 25.8609 182.5 25.7609 182.5 25.6609C182.5 22.1109 182.52 18.5609 182.53 15.0109C183.1 15.0109 183.41 14.5909 183.76 14.2409C184.05 13.9509 184.3 13.6309 184.77 13.6409H184.76Z" fill="#231F20"/>
<path d="M167.59 17.2331C167.59 18.8631 167.59 20.4831 167.59 22.1131C167.59 22.9431 167.16 23.4531 166.49 23.4631C165.81 23.4831 165.28 22.9131 165.28 22.1031C165.28 18.8231 165.28 15.5431 165.28 12.2731C165.28 11.4231 165.78 10.8931 166.48 10.9231C167.17 10.9531 167.58 11.4431 167.58 12.2731C167.58 13.9231 167.58 15.5731 167.58 17.2231L167.59 17.2331Z" fill="#231F20"/>
<path d="M184.76 13.6397C184.3 13.6197 184.04 13.9497 183.75 14.2397C183.4 14.5897 183.09 15.0097 182.52 15.0097C182.51 12.8797 182.48 10.7397 182.5 8.60969C182.5 7.92969 183.05 7.42969 183.66 7.42969C184.27 7.42969 184.8 7.92969 184.8 8.61969C184.81 10.2897 184.78 11.9597 184.76 13.6397Z" fill="#231F20"/>
<path d="M201.95 12.8299C201.48 12.7899 201.22 13.1299 200.92 13.4099C200.56 13.7499 200.27 14.1999 199.71 14.2699C199.57 12.3499 199.61 10.4399 199.69 8.51986C199.72 7.85986 200.25 7.41985 200.83 7.42985C201.4 7.42985 201.97 7.90985 201.99 8.53985C202.02 9.96985 202.1 11.3999 201.95 12.8299Z" fill="#231F20"/>
<path d="M171.09 26.2557C171.66 26.0357 172.09 25.6257 172.5 25.2057C172.72 24.9857 172.92 24.7457 173.29 24.7957C173.29 26.6657 173.31 28.5457 173.31 30.4157C173.31 31.2057 172.87 31.6657 172.2 31.6657C171.52 31.6657 171.09 31.2057 171.08 30.4157C171.08 29.0257 171.08 27.6457 171.1 26.2557H171.09Z" fill="#231F20"/>
</svg>
