<svg width="25" height="25" viewBox="0 0 25 25" fill="none" xmlns="http://www.w3.org/2000/svg">
<path d="M22.9167 9.37501L16.6667 15.625M16.6667 9.37501L22.9167 15.625M10.0357 4.54759L6.73815 7.84518C6.55799 8.02534 6.46791 8.11542 6.36279 8.17984C6.26959 8.23695 6.16798 8.27904 6.06169 8.30456C5.94181 8.33334 5.81442 8.33334 5.55964 8.33334H3.74999C3.16661 8.33334 2.87491 8.33334 2.65209 8.44687C2.45609 8.54674 2.29673 8.7061 2.19686 8.9021C2.08333 9.12492 2.08333 9.41662 2.08333 10V15C2.08333 15.5834 2.08333 15.8751 2.19686 16.0979C2.29673 16.2939 2.45609 16.4533 2.65209 16.5531C2.87491 16.6667 3.16661 16.6667 3.74999 16.6667H5.55964C5.81442 16.6667 5.94181 16.6667 6.06169 16.6955C6.16798 16.721 6.26959 16.7631 6.36279 16.8202C6.46791 16.8846 6.55799 16.9747 6.73815 17.1548L10.0357 20.4524C10.482 20.8986 10.7051 21.1218 10.8966 21.1368C11.0628 21.1499 11.2253 21.0826 11.3335 20.9559C11.4583 20.8097 11.4583 20.4942 11.4583 19.8632V5.13685C11.4583 4.50579 11.4583 4.19026 11.3335 4.04415C11.2253 3.91738 11.0628 3.8501 10.8966 3.86318C10.7051 3.87826 10.482 4.10137 10.0357 4.54759Z" stroke="#F1F0EB" stroke-width="1.5" stroke-linecap="round" stroke-linejoin="round"/>
</svg>
