<svg width="21" height="21" viewBox="0 0 21 21" fill="none" xmlns="http://www.w3.org/2000/svg">
<path d="M15.0625 12.4583H15.0729M1 3.08333V17.6667C1 18.8173 1.93274 19.75 3.08333 19.75H17.6667C18.8173 19.75 19.75 18.8173 19.75 17.6667V7.25C19.75 6.09941 18.8173 5.16667 17.6667 5.16667L3.08333 5.16667C1.93274 5.16667 1 4.23393 1 3.08333ZM1 3.08333C1 1.93274 1.93274 1 3.08333 1H15.5833M15.5833 12.4583C15.5833 12.746 15.3501 12.9792 15.0625 12.9792C14.7749 12.9792 14.5417 12.746 14.5417 12.4583C14.5417 12.1707 14.7749 11.9375 15.0625 11.9375C15.3501 11.9375 15.5833 12.1707 15.5833 12.4583Z" stroke="#F1F0EB" stroke-width="1.5" stroke-linecap="round" stroke-linejoin="round"/>
</svg>
