<svg width="20" height="21" viewBox="0 0 20 21" fill="none" xmlns="http://www.w3.org/2000/svg">
<path d="M3.74984 19.069V14.9023M3.74984 6.56901V2.40234M1.6665 4.48568H5.83317M1.6665 16.9857H5.83317M10.8332 3.23568L9.38802 6.99306C9.15301 7.60409 9.03551 7.9096 8.85278 8.16658C8.69083 8.39434 8.49184 8.59334 8.26408 8.75529C8.00709 8.93801 7.70158 9.05552 7.09055 9.29053L3.33317 10.7357L7.09056 12.1808C7.70158 12.4158 8.00709 12.5333 8.26408 12.7161C8.49184 12.878 8.69083 13.077 8.85278 13.3048C9.03551 13.5618 9.15301 13.8673 9.38802 14.4783L10.8332 18.2357L12.2783 14.4783C12.5133 13.8673 12.6308 13.5618 12.8136 13.3048C12.9755 13.077 13.1745 12.878 13.4023 12.7161C13.6592 12.5333 13.9648 12.4158 14.5758 12.1808L18.3332 10.7357L14.5758 9.29053C13.9648 9.05552 13.6592 8.93801 13.4023 8.75529C13.1745 8.59334 12.9755 8.39434 12.8136 8.16658C12.6308 7.9096 12.5133 7.60409 12.2783 6.99306L10.8332 3.23568Z" stroke="#F1F0EB" stroke-width="1.5" stroke-linecap="round" stroke-linejoin="round"/>
</svg>
