<svg width="20" height="21" viewBox="0 0 20 21" fill="none" xmlns="http://www.w3.org/2000/svg">
<path d="M6.6665 7.40234H6.67484M1.6665 5.06901L1.6665 8.79777C1.6665 9.20542 1.6665 9.40925 1.71255 9.60106C1.75338 9.77112 1.82072 9.9337 1.9121 10.0828C2.01517 10.251 2.1593 10.3951 2.44755 10.6834L8.83808 17.0739C9.82812 18.064 10.3231 18.559 10.894 18.7444C11.3961 18.9076 11.9369 18.9076 12.439 18.7444C13.0099 18.559 13.5049 18.064 14.4949 17.0739L16.3381 15.2308C17.3281 14.2407 17.8231 13.7457 18.0086 13.1749C18.1718 12.6728 18.1718 12.1319 18.0086 11.6298C17.8231 11.059 17.3281 10.564 16.3381 9.57392L9.94755 3.18339C9.6593 2.89514 9.51517 2.75101 9.34698 2.64794C9.19786 2.55656 9.03528 2.48922 8.86522 2.44839C8.67341 2.40234 8.46958 2.40234 8.06193 2.40234L4.33317 2.40234C3.39975 2.40234 2.93304 2.40234 2.57652 2.584C2.26292 2.74379 2.00795 2.99876 1.84816 3.31236C1.6665 3.66888 1.6665 4.13559 1.6665 5.06901ZM7.08317 7.40234C7.08317 7.63246 6.89662 7.81901 6.6665 7.81901C6.43639 7.81901 6.24984 7.63246 6.24984 7.40234C6.24984 7.17222 6.43639 6.98568 6.6665 6.98568C6.89662 6.98568 7.08317 7.17222 7.08317 7.40234Z" stroke="#F1F0EB" stroke-width="1.5" stroke-linecap="round" stroke-linejoin="round"/>
</svg>
