<svg width="31" height="31" viewBox="0 0 31 31" fill="none" xmlns="http://www.w3.org/2000/svg">
<path d="M11.4195 28.095C11.8975 28.0318 12.3803 28.1615 12.7611 28.4547L14.5158 29.8012C15.0958 30.2468 15.9027 30.2468 16.4811 29.8012L18.3023 28.4029C18.6425 28.142 19.0719 28.027 19.4964 28.0837L21.7744 28.3834C22.4987 28.479 23.197 28.0756 23.4773 27.3999L24.3539 25.2805C24.5175 24.8835 24.8318 24.5692 25.2288 24.4055L27.3481 23.5289C28.0237 23.2502 28.4271 22.5503 28.3315 21.826L28.0431 19.6304C27.9799 19.1524 28.1096 18.6696 28.4028 18.2888L29.7492 16.534C30.1948 15.9539 30.1948 15.147 29.7492 14.5685L28.351 12.7473C28.0901 12.407 27.9751 11.9776 28.0318 11.5531L28.3315 9.27494C28.4271 8.55066 28.0237 7.8523 27.3481 7.57198L25.2288 6.69538C24.8318 6.53173 24.5175 6.21739 24.3539 5.82041L23.4773 3.70102C23.1986 3.02535 22.4987 2.62189 21.7744 2.71749L19.4964 3.01725C19.0719 3.07558 18.6425 2.96053 18.3039 2.70128L16.4828 1.30294C15.9027 0.857353 15.0958 0.857353 14.5174 1.30294L12.6963 2.70128C12.356 2.96053 11.9267 3.07558 11.5021 3.02049L9.2241 2.72073C8.49985 2.62513 7.80153 3.02859 7.52123 3.70426L6.6463 5.82365C6.48104 6.21901 6.16671 6.53335 5.77138 6.69863L3.65211 7.5736C2.97647 7.85392 2.57303 8.55228 2.66863 9.27656L2.96837 11.5547C3.02346 11.9793 2.90842 12.4087 2.64918 12.7473L1.25092 14.5685C0.805357 15.1486 0.805357 15.9555 1.25092 16.534L2.64918 18.3552C2.91004 18.6955 3.02508 19.1249 2.96837 19.5494L2.66863 21.8276C2.57303 22.5519 2.97647 23.2502 3.65211 23.5306L5.77138 24.4072C6.16833 24.5708 6.48266 24.8852 6.6463 25.2821L7.52285 27.4015C7.80153 28.0772 8.50147 28.4807 9.22572 28.3851L11.4195 28.095Z" fill="#11FF49"/>
<path d="M11.1251 15.5521L14.0417 18.4688L20.6042 11.9063M11.4195 28.095C11.8975 28.0318 12.3803 28.1615 12.7611 28.4547L14.5158 29.8012C15.0958 30.2468 15.9027 30.2468 16.4811 29.8012L18.3023 28.4029C18.6425 28.142 19.0719 28.027 19.4964 28.0837L21.7744 28.3834C22.4987 28.479 23.197 28.0756 23.4773 27.3999L24.3539 25.2805C24.5175 24.8835 24.8318 24.5692 25.2288 24.4055L27.3481 23.5289C28.0237 23.2503 28.4271 22.5503 28.3315 21.826L28.0431 19.6304C27.9799 19.1524 28.1096 18.6696 28.4028 18.2888L29.7492 16.534C30.1948 15.9539 30.1948 15.147 29.7492 14.5685L28.351 12.7473C28.0901 12.407 27.9751 11.9776 28.0318 11.5531L28.3315 9.27494C28.4271 8.55066 28.0237 7.8523 27.3481 7.57198L25.2288 6.69538C24.8318 6.53173 24.5175 6.21739 24.3539 5.82041L23.4773 3.70102C23.1986 3.02535 22.4987 2.62189 21.7744 2.71749L19.4964 3.01725C19.0719 3.07558 18.6425 2.96053 18.3039 2.70128L16.4828 1.30294C15.9027 0.857353 15.0958 0.857353 14.5174 1.30294L12.6963 2.70128C12.356 2.96053 11.9267 3.07558 11.5021 3.02049L9.2241 2.72073C8.49985 2.62513 7.80153 3.02859 7.52123 3.70426L6.6463 5.82365C6.48104 6.21901 6.16671 6.53335 5.77138 6.69863L3.65211 7.5736C2.97647 7.85392 2.57303 8.55228 2.66863 9.27656L2.96837 11.5547C3.02346 11.9793 2.90842 12.4087 2.64918 12.7473L1.25092 14.5685C0.805357 15.1486 0.805357 15.9555 1.25092 16.534L2.64918 18.3552C2.91004 18.6955 3.02508 19.1249 2.96837 19.5494L2.66863 21.8276C2.57303 22.5519 2.97647 23.2503 3.65211 23.5306L5.77138 24.4072C6.16834 24.5708 6.48266 24.8852 6.6463 25.2821L7.52285 27.4015C7.80153 28.0772 8.50147 28.4807 9.22572 28.3851L11.4195 28.095Z" stroke="black" stroke-width="1.5" stroke-linecap="round" stroke-linejoin="round"/>
</svg>
