<svg width="81" height="67" viewBox="0 0 81 67" fill="none" xmlns="http://www.w3.org/2000/svg">
<path d="M2.28883 30.7089C2.47364 30.6164 2.65853 30.5286 2.83872 30.4454C5.97125 28.9942 9.14537 27.6355 12.3149 26.2767C12.4858 26.2767 12.7722 26.078 12.9339 26.0133C13.1788 25.907 13.4237 25.8053 13.6686 25.699C14.1398 25.4957 14.6111 25.297 15.0778 25.0936C16.0203 24.6915 16.9581 24.2894 17.9007 23.8874L23.542 21.4703C27.3029 19.8619 31.0685 18.249 34.8293 16.6407C38.5902 15.0323 42.3557 13.4194 46.1166 11.8111C49.8775 10.2028 53.643 8.58983 57.4038 6.98151C61.1647 5.37319 64.9303 3.76024 68.6912 2.15192C69.5275 1.79143 70.433 1.25531 71.3293 1.09818C72.0824 0.96415 72.817 0.705352 73.5747 0.562082C75.0116 0.289407 76.5964 0.178498 77.9732 0.774687C78.4491 0.982659 78.888 1.27382 79.253 1.63893C80.9995 3.36741 80.7546 6.20506 80.385 8.63603C77.8115 25.5789 75.238 42.5263 72.6599 59.4692C72.3088 61.7938 71.8283 64.345 69.994 65.8146C68.4416 67.0579 66.2331 67.1965 64.3157 66.6696C62.3983 66.1381 60.7073 65.0243 59.0487 63.929C52.1691 59.3721 45.285 54.8152 38.4054 50.2583C36.7699 49.1768 34.9495 47.7626 34.968 45.7984C34.9772 44.6153 35.6841 43.5616 36.4048 42.6234C42.3834 34.8221 51.0094 29.461 57.427 22.0202C58.3325 20.9711 59.0441 19.0763 57.8012 18.4708C57.062 18.1103 56.2118 18.6002 55.5372 19.067C47.0545 24.9596 38.5764 30.8568 30.0936 36.7493C27.3261 38.6719 24.4245 40.65 21.0887 41.1214C18.104 41.5466 15.1009 40.7146 12.2132 39.8643C9.79222 39.1525 7.37575 38.4223 4.9686 37.669C3.68879 37.2715 2.36739 36.8417 1.37865 35.9405C0.389917 35.0393 -0.178297 33.5234 0.417715 32.3218C0.791956 31.5685 1.51735 31.0924 2.27969 30.7042L2.28883 30.7089Z" fill="#F1F0EB"/>
</svg>
