<svg width="85" height="60" viewBox="0 0 85 60" fill="none" xmlns="http://www.w3.org/2000/svg">
<path d="M84.153 16.3303C83.6355 11.3344 82.5221 5.81155 78.4239 2.90918C75.2498 0.658453 71.0777 0.575246 67.1828 0.579868C58.9495 0.579868 50.7116 0.593751 42.4783 0.598372C34.5592 0.607615 26.6401 0.612231 18.721 0.621475C15.4129 0.621475 12.1972 0.36728 9.12468 1.79998C6.48652 3.02933 4.42127 5.36788 3.17842 7.96985C1.45507 11.5886 1.09471 15.6879 0.886794 19.6903C0.503313 26.9785 0.544895 34.2853 1.0023 41.569C1.33958 46.8838 2.19431 52.7579 6.30172 56.1455C9.94248 59.145 15.0802 59.2929 19.8021 59.2975C34.7902 59.3114 49.7829 59.3252 64.7757 59.3344C66.6977 59.3391 68.7029 59.3021 70.6619 59.0895C74.5151 58.6736 78.1882 57.569 80.6647 54.7128C83.1642 51.8336 83.8065 47.8266 84.1853 44.0323C85.1094 34.826 85.1001 25.532 84.153 16.3303ZM33.8107 42.863V17.0513L56.1543 29.9548L33.8107 42.863Z" fill="#F1F0EB"/>
</svg>
