<svg width="25" height="26" viewBox="0 0 25 26" fill="none" xmlns="http://www.w3.org/2000/svg">
<circle cx="12.5" cy="13.4141" r="12" fill="#F1F0EB" stroke="#1A1A1A"/>
<path d="M20.0289 16.5065C19.9259 16.1556 19.7352 15.862 19.5506 15.5783C19.3833 15.3208 19.2251 15.0774 19.1413 14.8075C19.1303 14.7721 19.1123 14.741 19.0896 14.7144C19.2326 12.5364 19.1222 10.7096 18.7486 9.03676C18.4073 7.50785 17.6449 7.00517 16.1192 7.30798C15.452 7.43816 14.932 7.32779 14.4332 6.94575C13.5223 6.2485 12.9747 6.23931 11.9931 6.90471C11.3592 7.33239 10.9099 7.43781 10.4429 7.26695C9.70678 6.99845 9.09515 7.18205 8.62431 7.81314C8.22457 8.34907 7.71376 8.53337 7.0618 8.3756C6.57787 8.25993 5.90433 8.30556 5.45966 9.19418C5.2835 9.54722 5.14836 9.97597 5.05816 10.4691C4.73306 12.2531 4.83706 14.1212 5.39493 16.5271C5.51237 17.0333 5.7936 17.4266 6.18591 17.6346C6.3971 17.7464 6.63482 17.802 6.88669 17.802C7.11663 17.802 7.35824 17.7553 7.60091 17.6615C7.91858 17.5388 8.16337 17.4068 8.34379 17.2678C8.63775 17.8066 9.26106 18.0938 9.8352 18.1341C9.86526 18.1363 9.89887 18.1373 9.93566 18.1373C10.3786 18.1373 11.2633 17.9785 11.7377 17.5473C11.7663 17.5215 11.7886 17.4931 11.8134 17.4659C11.9191 17.6325 12.0429 17.7861 12.1837 17.8893C12.4179 18.0616 12.7091 18.155 13.0278 18.1791C12.9776 18.7776 13.112 19.5173 13.5043 19.9775C13.748 20.2637 14.0671 20.4141 14.429 20.4141C14.4474 20.4141 14.4658 20.4137 14.4842 20.413C15.5143 20.3698 16.5579 20.2881 17.5668 20.2085L18.2343 20.1562C19.1618 20.0854 19.7027 19.6287 19.8881 18.7603L19.9351 18.5431C20.0741 17.9127 20.2312 17.1978 20.0289 16.5065ZM12.0638 16.671C12.0327 15.5518 12.0398 14.4106 12.0465 13.3069C12.0504 12.6995 12.0543 12.0914 12.0518 11.484C12.0507 11.2049 12.0157 10.9297 11.9821 10.664C11.9669 10.5459 11.952 10.4277 11.94 10.3096C11.9255 10.1656 11.7989 10.0584 11.6528 10.075C11.5084 10.0895 11.4037 10.2179 11.4182 10.3619C11.4306 10.485 11.4462 10.6078 11.4617 10.7302C11.495 10.9919 11.5261 11.2392 11.5272 11.4861C11.5297 12.0921 11.5258 12.6981 11.5219 13.304C11.5152 14.412 11.5081 15.5578 11.5392 16.6859C11.5403 16.7195 11.553 16.7566 11.5573 16.7917C11.5399 16.826 11.5279 16.8635 11.5268 16.9056C11.5247 16.9922 11.478 17.075 11.385 17.1596C11.0429 17.4709 10.2466 17.6442 9.87234 17.6113C9.33924 17.5738 8.74423 17.2604 8.69824 16.6611C8.61971 15.6402 8.60768 14.5931 8.59566 13.58C8.58964 13.0939 8.58398 12.6072 8.5716 12.1211C8.56523 11.8784 8.54684 11.6354 8.5288 11.3927L8.50545 11.0659C8.4959 10.9215 8.37138 10.8062 8.2267 10.8211C8.08237 10.8303 7.9727 10.9551 7.9819 11.0998L8.0056 11.4316C8.02294 11.6662 8.04062 11.9004 8.04699 12.1349C8.05937 12.6185 8.06539 13.1024 8.07105 13.586C8.08307 14.6041 8.09545 15.6565 8.17434 16.6905C8.1701 16.7503 7.97235 16.9555 7.41201 17.1719C7.04163 17.3152 6.70274 17.3149 6.43141 17.1709C6.17141 17.0329 5.98993 16.7694 5.9061 16.4082C5.36486 14.0756 5.26262 12.2729 5.57392 10.5632C5.65529 10.1192 5.7745 9.73683 5.92874 9.42872C6.17176 8.94302 6.48271 8.77569 6.93869 8.88571C7.79088 9.09053 8.52101 8.82946 9.04456 8.12656C9.37815 7.67978 9.74287 7.57117 10.2629 7.75972C11.0687 8.0551 11.7674 7.68968 12.2863 7.33912C13.0893 6.79576 13.3798 6.80071 14.1138 7.36211C14.7343 7.83755 15.4043 7.984 16.22 7.82198C17.4511 7.58073 17.9601 7.91467 18.236 9.15138C18.657 11.0358 18.7345 13.1272 18.4801 15.734C18.4352 16.1967 18.177 16.6006 17.7719 16.8419C17.3365 17.1012 16.7927 17.1359 16.3173 16.936C15.9965 16.8009 15.8514 16.5631 15.8472 16.1652L15.8366 15.1634C15.8242 13.9765 15.8114 12.7893 15.7877 11.6029C15.7817 11.3138 15.7474 11.028 15.7142 10.7514C15.6993 10.6269 15.6841 10.5023 15.6721 10.3778C15.6579 10.2335 15.5288 10.1369 15.3852 10.1422C15.2408 10.1567 15.1358 10.2851 15.1499 10.4291C15.1623 10.5575 15.1779 10.6856 15.1934 10.8136C15.2263 11.0896 15.2578 11.3506 15.2631 11.6128C15.2868 12.7982 15.2992 13.9832 15.312 15.1687L15.3208 15.9855C15.3219 16.4981 14.8836 17.0524 14.204 17.3966C13.5549 17.7259 12.8835 17.7532 12.494 17.4673C12.2725 17.3039 12.0709 16.9314 12.0638 16.671ZM19.4229 18.4313L19.3748 18.6517C19.2379 19.2962 18.8954 19.581 18.1943 19.6348L17.5257 19.6864C16.5214 19.7653 15.4832 19.8474 14.4626 19.8891C14.2387 19.899 14.0558 19.8159 13.9037 19.6379C13.6044 19.287 13.5011 18.6453 13.5574 18.1557C13.846 18.1097 14.1453 18.0149 14.4421 17.8649C14.9108 17.6272 15.2833 17.2965 15.5284 16.9303C15.6866 17.1829 15.9108 17.334 16.115 17.4196C16.7443 17.6838 17.4642 17.6371 18.0418 17.2919C18.5916 16.9646 18.9418 16.4149 19.0033 15.7849C19.0058 15.758 19.0072 15.7329 19.0101 15.706C19.0437 15.7587 19.0773 15.8118 19.1112 15.8638C19.2824 16.1277 19.4445 16.3764 19.5255 16.6537C19.6903 17.2165 19.5545 17.8338 19.4229 18.4313Z" fill="black" stroke="black" stroke-width="0.666667"/>
</svg>
