<svg width="22" height="35" viewBox="0 0 22 35" fill="none" xmlns="http://www.w3.org/2000/svg">
<path d="M15.449 18.9705L15.4405 19.0384L15.4445 19.1067C15.4629 19.4215 15.5596 19.9295 15.869 20.3321C16.035 20.5482 16.2796 20.7544 16.6172 20.8491C16.9554 20.9441 17.3047 20.9041 17.6381 20.7751C18.6867 20.3692 19.3461 19.9671 19.6703 19.3987C19.687 19.4289 19.7042 19.4609 19.722 19.4949C20.5768 21.1292 21.3797 22.7112 21.2326 24.4864C21.1544 25.4309 20.8208 27.5593 19.2969 29.4713C17.8021 31.3466 15.0774 33.1195 10.006 33.2493C8.9412 33.166 7.22855 32.7743 5.59968 31.8642C3.96144 30.9489 2.45156 29.536 1.7221 27.4257C-0.218374 21.812 1.18986 18.1037 2.12576 16.7998C2.40078 16.4166 2.67652 16.0336 2.93983 15.7077C3.03153 15.5942 3.11593 15.4951 3.19266 15.41C3.19649 15.4926 3.19864 15.5848 3.19864 15.6873C3.19864 17.1289 3.52977 18.7904 3.86492 19.8133C3.94946 20.0714 4.04087 20.3095 4.13651 20.5026C4.18397 20.5984 4.24057 20.6998 4.30754 20.7922C4.36322 20.869 4.47753 21.0136 4.6612 21.1101C4.76336 21.1638 4.91061 21.2148 5.08928 21.206C5.27564 21.1968 5.43541 21.1254 5.55622 21.0297C5.76441 20.8648 5.8409 20.6437 5.87038 20.5464C5.93893 20.3201 5.95664 20.0331 5.95664 19.7381C5.95664 17.6543 6.71805 15.7516 8.31143 14.301C10.2389 12.5461 11.0929 10.0181 10.0835 7.78347C9.97692 7.54753 9.88513 7.35134 9.80436 7.17873C9.73515 7.03082 9.67405 6.90021 9.61867 6.77673C9.69677 6.78528 9.78519 6.79619 9.88509 6.80989C10.7067 6.92263 12.1231 7.34991 13.3459 8.19283C14.5574 9.0279 15.5063 10.2143 15.6125 11.8539C15.8102 14.9037 15.5841 17.8825 15.449 18.9705ZM3.5965 15.0433C3.59649 15.0434 3.59508 15.0441 3.59232 15.0453C3.59514 15.0438 3.59652 15.0433 3.5965 15.0433ZM9.10935 6.75757C9.10929 6.75753 9.11073 6.75717 9.11384 6.75661C9.11097 6.75734 9.10941 6.75762 9.10935 6.75757Z" stroke="white" stroke-width="1.5"/>
</svg>
