<svg width="21" height="22" viewBox="0 0 21 22" fill="none" xmlns="http://www.w3.org/2000/svg">
<g id="cup juice">
<g id="cup juice_2">
<g id="Group">
<path id="Vector" d="M13.9125 20.6859H7.67815C7.20198 20.6862 6.74427 20.5017 6.4015 20.1712C6.05873 19.8406 5.85767 19.3899 5.84066 18.9141L5.57814 10.4485C5.56947 9.75901 5.69672 9.07457 5.95257 8.43429C6.20843 7.79401 6.5879 7.21041 7.06933 6.7168C7.55075 6.22319 8.12469 5.82923 8.75838 5.55745C9.39206 5.28567 10.0731 5.14138 10.7625 5.13281C11.4489 5.13276 12.1285 5.269 12.7618 5.53364C13.3951 5.79827 13.9696 6.18604 14.4519 6.67442C14.9341 7.16281 15.3146 7.7421 15.5713 8.37869C15.8279 9.01529 15.9556 9.69649 15.9469 10.3828L15.75 18.9141C15.7502 19.1524 15.7023 19.3883 15.6091 19.6076C15.516 19.827 15.3796 20.0253 15.2081 20.1908C15.0365 20.3562 14.8334 20.4853 14.6108 20.5704C14.3881 20.6555 14.1507 20.6948 13.9125 20.6859Z" stroke="#F1F0EB" stroke-width="1.5" stroke-miterlimit="10"/>
<path id="Vector_2" d="M3.9375 10.5781H17.5875" stroke="#F1F0EB" stroke-width="1.5" stroke-linecap="round" stroke-linejoin="round"/>
</g>
<path id="Vector_3" d="M10.7625 15.8969L10.3031 1.65625H6.5625" stroke="#F1F0EB" stroke-width="1.5" stroke-linecap="round" stroke-linejoin="round"/>
</g>
</g>
</svg>
