<svg width="20" height="20" viewBox="0 0 20 20" fill="none" xmlns="http://www.w3.org/2000/svg">
<g id="cutlery 2">
<g id="cutlery 2_2">
<g id="Group">
<path id="Vector" d="M5.8125 18.75C5.43125 18.75 5.06561 18.5985 4.79603 18.329C4.52644 18.0594 4.375 17.6937 4.375 17.3125L5 9.5H6.6875L7.3125 17.3125C7.31268 17.5067 7.27354 17.6988 7.19742 17.8774C7.1213 18.056 7.00979 18.2174 6.86961 18.3517C6.72944 18.4861 6.5635 18.5906 6.38182 18.659C6.20013 18.7275 6.00647 18.7584 5.8125 18.75Z" stroke="#F1F0EB" stroke-width="1.5" stroke-linecap="round" stroke-linejoin="round"/>
<path id="Vector_2" d="M5.8125 9.50001C7.64195 9.50001 9.12499 7.65318 9.12499 5.375C9.12499 3.09683 7.64195 1.25 5.8125 1.25C3.98306 1.25 2.5 3.09683 2.5 5.375C2.5 7.65318 3.98306 9.50001 5.8125 9.50001Z" stroke="#F1F0EB" stroke-width="1.5" stroke-linecap="round" stroke-linejoin="round"/>
</g>
<g id="Group_2">
<path id="Vector_3" d="M14.5 18.75C14.1188 18.75 13.7531 18.5985 13.4835 18.329C13.214 18.0594 13.0625 17.6937 13.0625 17.3125L13.6875 9.5H15.375L16 17.3125C16.0002 17.5067 15.9611 17.6988 15.8849 17.8774C15.8088 18.056 15.6973 18.2174 15.5571 18.3517C15.4169 18.4861 15.251 18.5906 15.0693 18.659C14.8876 18.7275 14.694 18.7584 14.5 18.75Z" stroke="#F1F0EB" stroke-width="1.5" stroke-linecap="round" stroke-linejoin="round"/>
<path id="Vector_4" d="M17.3125 6.6875C17.2962 7.43911 16.9861 8.15442 16.4486 8.68015C15.9112 9.20587 15.1893 9.50018 14.4375 9.5C13.6916 9.5 12.9762 9.20368 12.4488 8.67624C11.9213 8.14879 11.625 7.43342 11.625 6.6875H17.3125Z" stroke="#F1F0EB" stroke-width="1.5" stroke-linecap="round" stroke-linejoin="round"/>
<path id="Vector_5" d="M11.625 1.5V6.68751" stroke="#F1F0EB" stroke-width="1.5" stroke-linecap="round" stroke-linejoin="round"/>
<path id="Vector_6" d="M14.4375 1.5V6.5625" stroke="#F1F0EB" stroke-width="1.5" stroke-linecap="round" stroke-linejoin="round"/>
<path id="Vector_7" d="M17.3125 1.5V6.68751" stroke="#F1F0EB" stroke-width="1.5" stroke-linecap="round" stroke-linejoin="round"/>
</g>
</g>
</g>
</svg>
