<svg width="21" height="21" viewBox="0 0 21 21" fill="none" xmlns="http://www.w3.org/2000/svg">
<path d="M5.25 9.625H8.75M7 7.875V11.375M13.125 10.5H13.1337M15.75 8.75H15.7587M9.14283 4.375H11.8572C14.1539 4.375 15.3023 4.375 16.2037 4.81025C16.9974 5.19347 17.6568 5.80745 18.0955 6.57177C18.5939 7.43986 18.6757 8.58533 18.8394 10.8763L19.0547 13.8902C19.1602 15.368 17.9898 16.625 16.5082 16.625C15.7506 16.625 15.0321 16.2885 14.547 15.7064L14.2187 15.3125C13.9185 14.9522 13.7683 14.772 13.5974 14.6265C13.239 14.3213 12.8052 14.1181 12.3413 14.0381C12.12 14 11.8855 14 11.4165 14H9.58349C9.11446 14 8.87995 14 8.65868 14.0381C8.19481 14.1181 7.76096 14.3213 7.40259 14.6265C7.23164 14.772 7.08151 14.9522 6.78125 15.3125L6.45298 15.7064C5.96794 16.2885 5.24943 16.625 4.49177 16.625C3.0102 16.625 1.83978 15.368 1.94534 13.8902L2.16062 10.8763C2.32426 8.58533 2.40608 7.43986 2.90445 6.57177C3.34324 5.80745 4.00263 5.19347 4.79627 4.81025C5.69767 4.375 6.84605 4.375 9.14283 4.375Z" stroke="#F1F0EB" stroke-width="1.5" stroke-linecap="round" stroke-linejoin="round"/>
</svg>
