<svg width="19" height="18" viewBox="0 0 19 18" fill="none" xmlns="http://www.w3.org/2000/svg">
<path id="Icon" d="M6.875 13.75V3.56095C6.875 3.1396 6.875 2.92893 6.95165 2.75806C7.01922 2.60744 7.12802 2.47901 7.26548 2.3876C7.42142 2.2839 7.62923 2.24926 8.04484 2.17999L15.7448 0.896661C16.3057 0.803186 16.5861 0.756449 16.8047 0.837623C16.9964 0.908857 17.1572 1.04504 17.259 1.22251C17.375 1.42473 17.375 1.70903 17.375 2.27761V12M6.875 13.75C6.875 15.1997 5.69975 16.375 4.25 16.375C2.80025 16.375 1.625 15.1997 1.625 13.75C1.625 12.3002 2.80025 11.125 4.25 11.125C5.69975 11.125 6.875 12.3002 6.875 13.75ZM17.375 12C17.375 13.4497 16.1997 14.625 14.75 14.625C13.3003 14.625 12.125 13.4497 12.125 12C12.125 10.5502 13.3003 9.37497 14.75 9.37497C16.1997 9.37497 17.375 10.5502 17.375 12Z" stroke="#F1F0EB" stroke-width="1.5" stroke-linecap="round" stroke-linejoin="round"/>
</svg>
