<svg width="20" height="20" viewBox="0 0 20 20" fill="none" xmlns="http://www.w3.org/2000/svg">
<g id="Icon">
<path d="M1.66667 10.0001C1.66667 14.6025 5.39763 18.3334 10 18.3334C11.3807 18.3334 12.5 17.2141 12.5 15.8334V15.4167C12.5 15.0297 12.5 14.8362 12.5214 14.6738C12.6691 13.5519 13.5519 12.6692 14.6737 12.5215C14.8361 12.5001 15.0297 12.5001 15.4167 12.5001H15.8333C17.2141 12.5001 18.3333 11.3808 18.3333 10.0001C18.3333 5.39771 14.6024 1.66675 10 1.66675C5.39763 1.66675 1.66667 5.39771 1.66667 10.0001Z" stroke="#F1F0EB" stroke-width="1.5" stroke-linecap="round" stroke-linejoin="round"/>
<path d="M5.83334 10.8334C6.29358 10.8334 6.66667 10.4603 6.66667 10.0001C6.66667 9.53984 6.29358 9.16675 5.83334 9.16675C5.3731 9.16675 5.00001 9.53984 5.00001 10.0001C5.00001 10.4603 5.3731 10.8334 5.83334 10.8334Z" stroke="#F1F0EB" stroke-width="1.5" stroke-linecap="round" stroke-linejoin="round"/>
<path d="M13.3333 7.50008C13.7936 7.50008 14.1667 7.12699 14.1667 6.66675C14.1667 6.20651 13.7936 5.83341 13.3333 5.83341C12.8731 5.83341 12.5 6.20651 12.5 6.66675C12.5 7.12699 12.8731 7.50008 13.3333 7.50008Z" stroke="#F1F0EB" stroke-width="1.5" stroke-linecap="round" stroke-linejoin="round"/>
<path d="M8.33334 6.66675C8.79358 6.66675 9.16667 6.29365 9.16667 5.83341C9.16667 5.37318 8.79358 5.00008 8.33334 5.00008C7.8731 5.00008 7.50001 5.37318 7.50001 5.83341C7.50001 6.29365 7.8731 6.66675 8.33334 6.66675Z" stroke="#F1F0EB" stroke-width="1.5" stroke-linecap="round" stroke-linejoin="round"/>
</g>
</svg>
