<svg width="27" height="27" viewBox="0 0 27 27" fill="none" xmlns="http://www.w3.org/2000/svg">
<circle cx="13.5" cy="13.5" r="13" fill="black" stroke="#F1F0EB"/>
<g clip-path="url(#clip0_1933_12239)">
<path d="M14.1891 8.27853C14.3841 7.82372 14.4815 7.59631 14.639 7.49301C14.7767 7.40268 14.9446 7.37036 15.106 7.40309C15.2906 7.44051 15.4655 7.61545 15.8154 7.96534L19.0299 11.1798C19.3798 11.5297 19.5547 11.7046 19.5921 11.8892C19.6248 12.0507 19.5925 12.2185 19.5022 12.3562C19.3989 12.5137 19.1715 12.6111 18.7167 12.8061L17.1577 13.4742C17.0916 13.5025 17.0585 13.5167 17.0275 13.5344C16.9999 13.5502 16.9736 13.568 16.9488 13.5877C16.9208 13.6099 16.8954 13.6353 16.8445 13.6862L15.869 14.6618C15.7894 14.7414 15.7496 14.7811 15.718 14.8265C15.6899 14.8667 15.6667 14.9101 15.6488 14.9558C15.6286 15.0072 15.6176 15.0624 15.5955 15.1728L15.1374 17.4631C15.0184 18.0582 14.9589 18.3558 14.802 18.4951C14.6653 18.6164 14.4823 18.6717 14.3013 18.6467C14.0935 18.6178 13.8789 18.4032 13.4497 17.9741L9.02115 13.5455C8.59196 13.1163 8.37736 12.9017 8.34855 12.6939C8.32346 12.5129 8.37884 12.3299 8.50013 12.1932C8.63936 12.0363 8.93695 11.9768 9.53214 11.8578L11.8224 11.3997C11.9328 11.3776 11.988 11.3666 12.0394 11.3464C12.0851 11.3285 12.1285 11.3053 12.1687 11.2772C12.2141 11.2456 12.2538 11.2058 12.3334 11.1262L13.309 10.1507C13.3599 10.0998 13.3853 10.0744 13.4075 10.0464C13.4272 10.0216 13.4451 9.99526 13.4608 9.96772C13.4785 9.93671 13.4927 9.90364 13.521 9.8375L14.1891 8.27853Z" fill="#F1F0EB"/>
<path d="M11.2354 15.7597L7.69989 19.2953M13.309 10.1507L12.3334 11.1262C12.2538 11.2058 12.2141 11.2456 12.1687 11.2772C12.1285 11.3053 12.0851 11.3285 12.0394 11.3464C11.988 11.3666 11.9328 11.3776 11.8224 11.3997L9.53214 11.8578C8.93695 11.9768 8.63936 12.0363 8.50013 12.1932C8.37884 12.3299 8.32346 12.5129 8.34855 12.6939C8.37736 12.9017 8.59196 13.1163 9.02115 13.5455L13.4497 17.9741C13.8789 18.4032 14.0935 18.6178 14.3013 18.6467C14.4823 18.6717 14.6653 18.6164 14.802 18.4951C14.9589 18.3558 15.0184 18.0582 15.1374 17.4631L15.5955 15.1728C15.6176 15.0624 15.6286 15.0072 15.6488 14.9558C15.6667 14.9101 15.6899 14.8667 15.718 14.8265C15.7496 14.7811 15.7894 14.7414 15.869 14.6618L16.8445 13.6862C16.8954 13.6353 16.9208 13.6099 16.9488 13.5877C16.9736 13.568 16.9999 13.5502 17.0275 13.5344C17.0585 13.5167 17.0916 13.5025 17.1577 13.4742L18.7167 12.8061C19.1715 12.6111 19.3989 12.5137 19.5022 12.3562C19.5925 12.2185 19.6248 12.0507 19.5921 11.8892C19.5547 11.7046 19.3798 11.5297 19.0299 11.1798L15.8154 7.96534C15.4655 7.61545 15.2906 7.44051 15.106 7.40309C14.9446 7.37036 14.7767 7.40268 14.639 7.49301C14.4815 7.59631 14.3841 7.82372 14.1891 8.27853L13.521 9.8375C13.4927 9.90364 13.4785 9.93671 13.4608 9.96771C13.4451 9.99526 13.4272 10.0216 13.4075 10.0464C13.3853 10.0744 13.3599 10.0998 13.309 10.1507Z" stroke="#F1F0EB" stroke-width="2" stroke-linecap="round" stroke-linejoin="round"/>
</g>
<rect x="6.5" y="6.5" width="14" height="14" stroke="black"/>
<defs>
<clipPath id="clip0_1933_12239">
<rect x="6" y="6" width="15" height="15" fill="white"/>
</clipPath>
</defs>
</svg>
