<svg width="25" height="25" viewBox="0 0 25 25" fill="none" xmlns="http://www.w3.org/2000/svg">
<g id="dots-vertical">
<g id="Icon">
<path d="M12.5 13.543C13.0753 13.543 13.5417 13.0766 13.5417 12.5013C13.5417 11.926 13.0753 11.4596 12.5 11.4596C11.9247 11.4596 11.4583 11.926 11.4583 12.5013C11.4583 13.0766 11.9247 13.543 12.5 13.543Z" fill="#F1F0EB"/>
<path d="M12.5 6.2513C13.0753 6.2513 13.5417 5.78493 13.5417 5.20964C13.5417 4.63434 13.0753 4.16797 12.5 4.16797C11.9247 4.16797 11.4583 4.63434 11.4583 5.20964C11.4583 5.78493 11.9247 6.2513 12.5 6.2513Z" fill="#F1F0EB"/>
<path d="M12.5 20.8346C13.0753 20.8346 13.5417 20.3683 13.5417 19.793C13.5417 19.2177 13.0753 18.7513 12.5 18.7513C11.9247 18.7513 11.4583 19.2177 11.4583 19.793C11.4583 20.3683 11.9247 20.8346 12.5 20.8346Z" fill="#F1F0EB"/>
<path d="M12.5 13.543C13.0753 13.543 13.5417 13.0766 13.5417 12.5013C13.5417 11.926 13.0753 11.4596 12.5 11.4596C11.9247 11.4596 11.4583 11.926 11.4583 12.5013C11.4583 13.0766 11.9247 13.543 12.5 13.543Z" stroke="#F1F0EB" stroke-width="1.5" stroke-linecap="round" stroke-linejoin="round"/>
<path d="M12.5 6.2513C13.0753 6.2513 13.5417 5.78493 13.5417 5.20964C13.5417 4.63434 13.0753 4.16797 12.5 4.16797C11.9247 4.16797 11.4583 4.63434 11.4583 5.20964C11.4583 5.78493 11.9247 6.2513 12.5 6.2513Z" stroke="#F1F0EB" stroke-width="1.5" stroke-linecap="round" stroke-linejoin="round"/>
<path d="M12.5 20.8346C13.0753 20.8346 13.5417 20.3683 13.5417 19.793C13.5417 19.2177 13.0753 18.7513 12.5 18.7513C11.9247 18.7513 11.4583 19.2177 11.4583 19.793C11.4583 20.3683 11.9247 20.8346 12.5 20.8346Z" stroke="#F1F0EB" stroke-width="1.5" stroke-linecap="round" stroke-linejoin="round"/>
</g>
</g>
</svg>
