<svg width="12" height="12" viewBox="0 0 12 12" fill="none" xmlns="http://www.w3.org/2000/svg">
<path d="M5.99984 5.99984C5.2665 5.99984 4.63873 5.73873 4.1165 5.2165C3.59428 4.69428 3.33317 4.0665 3.33317 3.33317C3.33317 2.59984 3.59428 1.97206 4.1165 1.44984C4.63873 0.927615 5.2665 0.666504 5.99984 0.666504C6.73317 0.666504 7.36095 0.927615 7.88317 1.44984C8.40539 1.97206 8.6665 2.59984 8.6665 3.33317C8.6665 4.0665 8.40539 4.69428 7.88317 5.2165C7.36095 5.73873 6.73317 5.99984 5.99984 5.99984ZM0.666504 11.3332V9.4665C0.666504 9.08873 0.763726 8.7415 0.958171 8.42484C1.15262 8.10817 1.41095 7.8665 1.73317 7.69984C2.42206 7.35539 3.12206 7.09706 3.83317 6.92484C4.54428 6.75262 5.2665 6.6665 5.99984 6.6665C6.73317 6.6665 7.45539 6.75262 8.1665 6.92484C8.87762 7.09706 9.57762 7.35539 10.2665 7.69984C10.5887 7.8665 10.8471 8.10817 11.0415 8.42484C11.2359 8.7415 11.3332 9.08873 11.3332 9.4665V11.3332H0.666504ZM1.99984 9.99984H9.99984V9.4665C9.99984 9.34428 9.96928 9.23317 9.90817 9.13317C9.84706 9.03317 9.7665 8.95539 9.6665 8.89984C9.0665 8.59984 8.46095 8.37484 7.84984 8.22484C7.23873 8.07484 6.62206 7.99984 5.99984 7.99984C5.37762 7.99984 4.76095 8.07484 4.14984 8.22484C3.53873 8.37484 2.93317 8.59984 2.33317 8.89984C2.23317 8.95539 2.15262 9.03317 2.0915 9.13317C2.03039 9.23317 1.99984 9.34428 1.99984 9.4665V9.99984ZM5.99984 4.6665C6.3665 4.6665 6.68039 4.53595 6.9415 4.27484C7.20262 4.01373 7.33317 3.69984 7.33317 3.33317C7.33317 2.9665 7.20262 2.65262 6.9415 2.3915C6.68039 2.13039 6.3665 1.99984 5.99984 1.99984C5.63317 1.99984 5.31928 2.13039 5.05817 2.3915C4.79706 2.65262 4.6665 2.9665 4.6665 3.33317C4.6665 3.69984 4.79706 4.01373 5.05817 4.27484C5.31928 4.53595 5.63317 4.6665 5.99984 4.6665Z" fill="#57606A"/>
</svg>
