<svg width="81" height="81" viewBox="0 0 81 81" fill="none" xmlns="http://www.w3.org/2000/svg">
<circle opacity="0.7" cx="40.3633" cy="40.7539" r="39" fill="#1A1A1A" stroke="#F1F0EB" stroke-width="2"/>
<path d="M60.9882 52.5039L58.6963 55.0111C57.4808 56.3404 55.8324 57.0872 54.1136 57.0872C52.3948 57.0872 50.7464 56.3404 49.5308 55.0111C48.3136 53.6844 46.6653 52.9394 44.947 52.9394C43.2287 52.9394 41.5805 53.6844 40.3632 55.0111M19.7383 57.0872H23.5758C24.6968 57.0872 25.2573 57.0872 25.7848 56.9606C26.2525 56.8483 26.6996 56.6631 27.1096 56.4118C27.5722 56.1284 27.9685 55.732 28.7612 54.9393L57.5508 26.1497C59.4493 24.2512 59.4493 21.1732 57.5508 19.2747C55.6524 17.3762 52.5743 17.3762 50.6758 19.2747L21.8862 48.0643C21.0935 48.857 20.6971 49.2533 20.4137 49.7159C20.1624 50.126 19.9772 50.573 19.8649 51.0407C19.7383 51.5682 19.7383 52.1287 19.7383 53.2498V57.0872Z" stroke="#F1F0EB" stroke-width="2" stroke-linecap="round" stroke-linejoin="round"/>
</svg>
