<svg width="81" height="81" viewBox="0 0 81 81" fill="none" xmlns="http://www.w3.org/2000/svg">
<circle cx="40.4941" cy="40.5938" r="39.25" fill="#6E6E6E" stroke="#F1F0EB" stroke-width="1.5"/>
<path d="M27.4172 39.7243V46.8468M27.4172 39.7243V22.6303C27.4172 20.2701 29.3687 18.3568 31.7761 18.3568C34.1835 18.3568 36.1351 20.2701 36.1351 22.6303M27.4172 39.7243C27.4172 37.3641 25.4656 35.4508 23.0582 35.4508C20.6508 35.4508 18.6992 37.3641 18.6992 39.7243V45.4223C18.6992 57.2233 28.4571 66.7899 40.4941 66.7899C52.5311 66.7899 62.289 57.2233 62.289 45.4223V31.1773C62.289 28.8171 60.3374 26.9038 57.93 26.9038C55.5226 26.9038 53.571 28.8171 53.571 31.1773M36.1351 22.6303V38.2998M36.1351 22.6303V19.7813C36.1351 17.4211 38.0867 15.5078 40.4941 15.5078C42.9015 15.5078 44.8531 17.4211 44.8531 19.7813V22.6303M44.8531 22.6303V38.2998M44.8531 22.6303C44.8531 20.2701 46.8046 18.3568 49.212 18.3568C51.6194 18.3568 53.571 20.2701 53.571 22.6303V31.1773M53.571 31.1773V38.2998" stroke="#F1F0EB" stroke-width="1.5" stroke-linecap="round" stroke-linejoin="round"/>
</svg>
