<svg width="50" height="67" viewBox="0 0 50 67" fill="none" xmlns="http://www.w3.org/2000/svg">
<path d="M0 26.2078C0.148649 24.9617 0.271065 23.7113 0.44886 22.4697C1.21105 17.146 2.81849 12.1503 6.26947 7.90797C9.64175 3.76184 14.0662 1.40532 19.2748 0.491571C23.743 -0.292477 28.201 -0.178804 32.5657 1.12406C39.4778 3.18765 44.0029 7.83801 46.6319 14.4441C48.4652 19.0493 49.0948 23.8717 49.121 28.7989C49.1604 36.0098 48.0688 43.0167 45.3334 49.719C43.4068 54.4379 40.772 58.6918 36.8779 62.0597C33.8642 64.6669 30.4351 66.391 26.4157 66.7946C26.2773 66.8092 26.1446 66.8806 26.0091 66.9243H23.1032C22.9458 66.8777 22.7884 66.8223 22.6281 66.7844C21.2465 66.4594 19.8198 66.2642 18.4922 65.7905C13.973 64.1802 10.5934 61.0819 7.89003 57.2214C3.20323 50.5249 1.14838 42.9132 0.298754 34.8993C0.196741 33.9419 0.099099 32.9829 0 32.024C0 30.0843 0 28.146 0 26.2078ZM45.6846 43.9042C45.7896 43.5443 45.861 43.3184 45.9193 43.0896C47.2498 37.8446 47.7395 32.5151 47.5457 27.1142C47.397 22.9506 46.747 18.8846 45.1979 15.0008C42.7467 8.85669 38.5714 4.48905 32.1139 2.57994C28.1776 1.41552 24.1583 1.30914 20.1156 1.9081C14.1814 2.78688 9.42461 5.58788 6.11791 10.6594C3.11433 15.2675 1.98489 20.4557 1.59141 25.8522C1.32181 29.564 1.51126 33.2627 2.04756 36.9367C2.37983 39.2189 2.87533 41.4778 3.2965 43.7483C3.39706 43.7891 3.49907 43.8314 3.59963 43.8722C3.70893 43.69 3.79491 43.486 3.93336 43.3286C4.7757 42.3609 5.62095 41.3947 6.48516 40.4445C7.13221 39.7319 7.72389 39.8718 8.00516 40.7986C8.49483 42.4163 8.96409 44.0412 9.44501 45.6618C9.63301 46.2957 9.8312 46.9253 10.044 47.6204C10.8921 47.0011 11.6354 46.4152 12.4253 45.9066C12.6716 45.7478 13.119 45.6647 13.3463 45.7856C13.5707 45.9066 13.7675 46.338 13.7485 46.6178C13.5736 49.0559 13.3463 51.4911 13.1379 53.9263C12.9689 55.9039 12.7925 57.8816 12.6482 59.8606C12.6293 60.1171 12.6992 60.48 12.8698 60.6345C15.748 63.2242 19.0532 64.9453 22.9473 65.3227C27.9678 65.8095 32.248 64.0738 36.005 60.8283C36.4029 60.4844 36.5122 60.1331 36.467 59.6333C36.0822 55.3662 35.7048 51.0976 35.3652 46.8276C35.3375 46.4793 35.5095 45.9678 35.766 45.7886C35.97 45.6472 36.5005 45.8148 36.792 45.997C37.5585 46.4793 38.2741 47.0448 39.0742 47.6219C39.7445 45.331 40.3741 43.126 41.0489 40.9342C41.1509 40.6019 41.4278 40.1312 41.6842 40.0875C41.9947 40.035 42.4523 40.2915 42.7 40.5538C43.6954 41.606 44.6339 42.7121 45.6846 43.9028V43.9042ZM42.2512 42.3026C42.1797 42.5037 42.1477 42.5853 42.1229 42.6684C41.5473 44.611 40.9716 46.5537 40.3989 48.4978C40.0127 49.8094 39.6615 49.9245 38.5379 49.104C38.0773 48.7674 37.6139 48.4322 36.9902 47.9789C37.3064 51.6966 37.6052 55.2219 37.9039 58.7472C38.175 58.6627 38.2653 58.5505 38.3586 58.4412C41.5152 54.7774 43.6181 50.5424 45.0857 45.9678C45.1309 45.8294 45.1469 45.6049 45.0682 45.5131C44.1617 44.4566 43.2349 43.416 42.2512 42.3026ZM6.89175 42.2807C5.97363 43.3213 5.11234 44.2584 4.30643 45.2421C4.13593 45.4505 4.04411 45.8658 4.12572 46.1194C5.25808 49.6578 6.77371 53.0184 8.90725 56.073C9.57763 57.0319 10.3282 57.9355 11.0408 58.8638L11.2142 58.7836C11.5115 55.2481 11.8103 51.7112 12.1105 48.1436C11.9371 48.1684 11.9079 48.164 11.8919 48.1757C11.4197 48.5109 10.9475 48.849 10.4768 49.1856C9.48144 49.8983 9.08213 49.7598 8.73674 48.5823C8.13486 46.5289 7.53298 44.4755 6.8903 42.2822L6.89175 42.2807Z" fill="#F1F0EB"/>
<path d="M15.4538 37.4141C11.9985 37.1751 8.15982 35.6741 5.44772 32.0074C3.73534 29.6931 3.30543 26.9563 3.3987 24.1494C3.50654 20.8792 4.30079 17.7459 5.56139 14.735C5.70712 14.3867 6.07583 13.9728 6.40956 13.9C6.96626 13.7775 7.12074 14.3357 7.27522 14.7787C8.17148 17.3364 9.87511 19.1362 12.3249 20.2831C14.5313 21.3164 16.7625 22.3146 18.8771 23.5169C21.1228 24.7936 22.6953 26.6954 23.1835 29.3346C23.5449 31.2904 23.3948 33.2432 23.0771 35.1844C23.032 35.4569 22.7317 35.7659 22.468 35.9131C20.5938 36.9609 18.5696 37.4462 15.4523 37.4156L15.4538 37.4141ZM6.44454 16.6237C5.47541 19.4874 4.88956 22.2126 4.93182 25.0501C4.99594 29.3813 6.82199 32.5991 10.8093 34.5096C14.167 36.1185 17.5524 36.4173 21.031 34.9527C21.4085 34.7938 21.697 34.6364 21.7116 34.1453C21.7393 33.2039 21.8748 32.2639 21.8836 31.3224C21.9084 28.6788 20.8489 26.5278 18.6002 25.1477C16.8383 24.0663 14.9685 23.1409 13.0783 22.2971C10.3473 21.0788 7.87564 19.6084 6.44454 16.6237Z" fill="#F1F0EB"/>
<path d="M45.7082 24.594C45.679 27.6733 45.0728 30.5865 42.9305 32.9314C39.3279 36.8749 32.63 38.9487 26.9886 36.1288C26.3474 35.8082 25.9146 35.4162 25.916 34.6656C25.9175 32.8818 25.7412 31.0747 25.9656 29.3201C26.2993 26.694 27.9636 24.8198 30.1831 23.5476C32.2088 22.3861 34.3409 21.3995 36.4686 20.4303C39.0962 19.2339 40.9514 17.3816 41.8914 14.6214C41.9949 14.3183 42.3752 13.9306 42.6463 13.9146C42.9086 13.8986 43.3254 14.2571 43.4507 14.5485C44.8308 17.7518 45.628 21.0949 45.7082 24.5954V24.594ZM42.8445 16.7651C42.7672 16.7608 42.69 16.7564 42.6128 16.7506C41.5343 18.9322 39.8307 20.4551 37.6928 21.5102C37.0224 21.841 36.32 22.1077 35.6554 22.4517C33.8571 23.38 32.0135 24.2398 30.2983 25.3066C28.6558 26.3282 27.573 27.8948 27.3646 29.8549C27.2204 31.2146 27.3705 32.6035 27.3705 33.9792C27.3705 34.5563 27.6925 34.8143 28.1837 35.0125C32.0981 36.5951 35.791 36.018 39.3542 33.934C41.8666 32.465 43.372 30.3169 43.9287 27.4635C44.2771 25.6797 44.2887 23.8901 43.9972 22.1194C43.7014 20.3196 43.2351 18.5489 42.8445 16.7651Z" fill="#F1F0EB"/>
<path d="M25.8155 15.1741C26.7598 17.2552 27.6488 19.2094 28.5334 21.1652C28.6223 21.3619 28.7782 21.5762 28.7564 21.7656C28.7243 22.0425 28.631 22.4156 28.4314 22.5409C28.2317 22.6677 27.8645 22.5774 27.5876 22.5103C27.4462 22.4768 27.3413 22.2873 27.2233 22.1664C24.1439 19.0142 21.0558 15.8678 17.9983 12.6951C17.736 12.4226 17.4897 11.9359 17.5436 11.5978C17.6325 11.0396 18.2082 11.0892 18.676 11.0906C20.1756 11.0964 21.6752 11.0935 23.2651 11.0935C23.1762 10.8414 23.1194 10.6447 23.0392 10.4581C22.2158 8.52424 21.3983 6.58743 20.5589 4.66083C20.3548 4.19157 20.2557 3.7602 20.7585 3.45561C21.2161 3.17872 21.5746 3.42355 21.8996 3.7704C24.9848 7.05232 28.0831 10.3211 31.1479 13.622C31.4 13.8931 31.6405 14.4643 31.5166 14.7136C31.3854 14.9802 30.8185 15.142 30.4367 15.1537C28.94 15.2018 27.4404 15.1741 25.8111 15.1741H25.8155ZM25.2252 17.5583C24.9046 16.8515 24.4558 15.8969 24.0375 14.9307C23.7082 14.1671 24.0142 13.7167 24.8522 13.7022C25.5779 13.689 26.3037 13.6992 27.0294 13.6992C27.6852 13.6992 28.3396 13.6992 29.1703 13.6992C27.2786 11.6925 25.5357 9.84313 23.7927 7.99377C24.0463 8.93666 24.4135 9.79504 24.7808 10.6563C25.5284 12.4124 25.3768 12.6383 23.4488 12.6383C22.3791 12.6383 21.3079 12.6383 20.2382 12.6383C20.2164 12.7024 20.1931 12.7665 20.1712 12.8307C21.9127 14.4585 23.6528 16.0878 25.2282 17.5597L25.2252 17.5583Z" fill="#F1F0EB"/>
<path d="M24.5736 58.1936C22.3541 58.0872 20.1651 57.8992 18.103 57.0234C17.5784 56.8004 17.061 56.49 16.6369 56.1111C15.7246 55.2993 15.7363 54.2296 16.6209 53.3858C17.4909 52.5552 18.5971 52.1923 19.7338 51.927C23.1891 51.1211 26.6416 51.1401 30.0561 52.1209C30.8066 52.3366 31.5557 52.6965 32.1911 53.1512C33.5056 54.0941 33.526 55.5354 32.143 56.353C31.0646 56.9898 29.8229 57.43 28.5973 57.7156C27.2901 58.0216 25.9173 58.0449 24.5736 58.1921V58.1936ZM25.3853 52.9078C22.545 52.9107 20.5207 53.0594 18.6175 53.877C18.2036 54.0548 17.8815 54.4439 17.5172 54.7353C17.8757 55.0283 18.1934 55.4757 18.6014 55.5864C20.015 55.9682 21.4476 56.353 22.8977 56.5147C25.3431 56.7887 27.7856 56.6109 30.1188 55.7496C30.6624 55.5485 31.1054 55.0734 31.5936 54.7251C31.1141 54.3899 30.6769 53.9455 30.1479 53.74C28.3656 53.0492 26.4827 52.9049 25.3853 52.9093V52.9078Z" fill="#F1F0EB"/>
<path d="M24.5839 47.5721C23.7124 47.5721 22.8409 47.5867 21.9708 47.5692C20.3984 47.5386 19.4817 46.0594 20.2075 44.6618C21.0527 43.031 21.933 41.4192 22.854 39.8292C23.6235 38.5002 25.4247 38.4637 26.2073 39.7812C27.1706 41.4003 28.0727 43.0587 28.9253 44.739C29.6175 46.1031 28.6702 47.5415 27.124 47.5706C26.2773 47.5867 25.4306 47.5735 24.5839 47.5735V47.5721ZM24.5591 46.0433C25.3562 46.0433 26.1534 46.0579 26.9491 46.039C27.6268 46.0229 27.7871 45.7664 27.4738 45.1806C26.6868 43.7145 25.8867 42.2543 25.075 40.8027C24.7252 40.1776 24.3973 40.179 24.0476 40.8057C23.2344 42.2572 22.4328 43.716 21.6444 45.182C21.3296 45.7679 21.4885 46.0229 22.169 46.039C22.9648 46.0579 23.7619 46.0433 24.5591 46.0433Z" fill="#F1F0EB"/>
<path d="M15.783 33.6973C12.4778 33.5151 9.94204 32.597 7.89593 30.5363C7.18475 29.8208 6.647 28.9785 6.55227 27.9437C6.39196 26.2081 7.55492 24.8075 9.57625 24.5073C13.1642 23.9725 16.2567 25.067 18.8085 27.6435C19.1582 27.9977 19.4366 28.448 19.6581 28.8983C20.5165 30.6325 19.9365 32.3624 18.1527 33.1056C17.2797 33.47 16.3004 33.5749 15.783 33.6973ZM15.6227 32.2079C16.0643 32.1161 16.6983 32.0505 17.2841 31.8479C18.5462 31.4107 18.8813 30.4722 18.1804 29.337C17.8802 28.8517 17.494 28.3868 17.0538 28.0283C15.1374 26.4704 12.9267 25.7417 10.455 25.918C9.52961 25.9836 8.54299 26.157 8.15825 27.1466C7.7808 28.1157 8.3958 28.8764 9.0312 29.5235C10.7858 31.3087 13.0039 32.0126 15.6242 32.2094L15.6227 32.2079Z" fill="#F1F0EB"/>
<path d="M33.7362 33.82C32.7846 33.581 31.7805 33.4644 30.8944 33.0768C29.1456 32.3131 28.5977 30.611 29.4473 28.9015C30.2634 27.2606 31.6624 26.2317 33.2743 25.4884C35.3787 24.5164 37.5676 23.9786 39.8877 24.6053C42.5663 25.3296 43.4042 27.6307 41.7647 29.8721C40.2564 31.9357 38.0718 32.9296 35.6497 33.4615C35.0391 33.5956 34.4052 33.6233 33.7814 33.7005C33.7668 33.7413 33.7523 33.7807 33.7377 33.8215L33.7362 33.82ZM37.9742 25.7988C35.9383 25.9154 34.0831 26.4998 32.4888 27.7167C31.8184 28.2282 31.2384 28.9307 30.8041 29.6579C30.3013 30.4988 30.6277 31.2697 31.4992 31.7025C31.8184 31.8614 32.174 31.9882 32.5252 32.0348C35.504 32.4312 38.0412 31.4956 40.1835 29.4291C40.4065 29.2148 40.5857 28.9438 40.7402 28.6727C41.3931 27.5345 41.0987 26.6397 39.8673 26.2025C39.2639 25.9883 38.6067 25.9285 37.9727 25.7988H37.9742Z" fill="#F1F0EB"/>
</svg>
