<svg width="25" height="26" viewBox="0 0 25 26" fill="none" xmlns="http://www.w3.org/2000/svg">
<path d="M12.5007 16.4948C14.2265 16.4948 15.6257 15.0957 15.6257 13.3698C15.6257 11.6439 14.2265 10.2448 12.5007 10.2448C10.7748 10.2448 9.37565 11.6439 9.37565 13.3698C9.37565 15.0957 10.7748 16.4948 12.5007 16.4948Z" stroke="#AFAB99" stroke-width="1.5" stroke-linecap="round" stroke-linejoin="round"/>
<path d="M19.5082 16.2107C19.3822 16.4963 19.3446 16.8132 19.4003 17.1203C19.456 17.4275 19.6024 17.711 19.8207 17.9342L19.8775 17.991C20.0536 18.1669 20.1933 18.3758 20.2886 18.6057C20.384 18.8356 20.433 19.0821 20.433 19.331C20.433 19.5799 20.384 19.8263 20.2886 20.0562C20.1933 20.2862 20.0536 20.495 19.8775 20.6709C19.7016 20.847 19.4928 20.9867 19.2628 21.082C19.0329 21.1773 18.7865 21.2264 18.5376 21.2264C18.2887 21.2264 18.0422 21.1773 17.8123 21.082C17.5824 20.9867 17.3735 20.847 17.1976 20.6709L17.1408 20.6141C16.9176 20.3958 16.6342 20.2494 16.327 20.1937C16.0198 20.138 15.7029 20.1756 15.4173 20.3016C15.1372 20.4216 14.8984 20.621 14.7301 20.875C14.5619 21.1291 14.4716 21.4268 14.4703 21.7315V21.8925C14.4703 22.3948 14.2708 22.8766 13.9156 23.2317C13.5604 23.5869 13.0787 23.7865 12.5764 23.7865C12.0741 23.7865 11.5924 23.5869 11.2372 23.2317C10.882 22.8766 10.6825 22.3948 10.6825 21.8925V21.8073C10.6751 21.4938 10.5737 21.1899 10.3913 20.9348C10.2089 20.6798 9.954 20.4856 9.65974 20.3774C9.37412 20.2513 9.05729 20.2137 8.75009 20.2694C8.4429 20.3251 8.15944 20.4716 7.93626 20.6899L7.87944 20.7467C7.70354 20.9228 7.49466 21.0625 7.26474 21.1578C7.03482 21.2531 6.78837 21.3022 6.53948 21.3022C6.29058 21.3022 6.04413 21.2531 5.81421 21.1578C5.58429 21.0625 5.37541 20.9228 5.19951 20.7467C5.02342 20.5708 4.88373 20.3619 4.78842 20.132C4.69311 19.9021 4.64405 19.6556 4.64405 19.4067C4.64405 19.1578 4.69311 18.9114 4.78842 18.6815C4.88373 18.4515 5.02342 18.2427 5.19951 18.0668L5.25633 18.0099C5.47464 17.7868 5.62109 17.5033 5.67679 17.1961C5.73249 16.8889 5.69489 16.5721 5.56883 16.2865C5.44879 16.0064 5.24947 15.7675 4.99541 15.5992C4.74135 15.431 4.44363 15.3407 4.13891 15.3395H3.97792C3.47562 15.3395 2.99389 15.1399 2.63871 14.7848C2.28352 14.4296 2.08398 13.9479 2.08398 13.4455C2.08398 12.9432 2.28352 12.4615 2.63871 12.1063C2.99389 11.7511 3.47562 11.5516 3.97792 11.5516H4.06315C4.37659 11.5443 4.68058 11.4428 4.93559 11.2604C5.19061 11.078 5.38485 10.8231 5.49308 10.5289C5.61913 10.2433 5.65673 9.92643 5.60103 9.61923C5.54533 9.31204 5.39889 9.02858 5.18058 8.8054L5.12376 8.74858C4.94767 8.57268 4.80797 8.3638 4.71266 8.13388C4.61735 7.90396 4.56829 7.65751 4.56829 7.40862C4.56829 7.15972 4.61735 6.91327 4.71266 6.68335C4.80797 6.45343 4.94767 6.24455 5.12376 6.06866C5.29965 5.89256 5.50853 5.75287 5.73845 5.65756C5.96837 5.56225 6.21483 5.51319 6.46372 5.51319C6.71261 5.51319 6.95906 5.56225 7.18898 5.65756C7.41891 5.75287 7.62779 5.89256 7.80368 6.06866L7.8605 6.12547C8.08368 6.34378 8.36714 6.49023 8.67434 6.54593C8.98153 6.60163 9.29836 6.56403 9.58398 6.43797H9.65974C9.93983 6.31793 10.1787 6.11861 10.347 5.86455C10.5152 5.61049 10.6055 5.31277 10.6067 5.00805V4.84706C10.6067 4.34476 10.8063 3.86303 11.1614 3.50785C11.5166 3.15266 11.9983 2.95313 12.5007 2.95312C13.003 2.95312 13.4847 3.15266 13.8399 3.50785C14.1951 3.86303 14.3946 4.34476 14.3946 4.84706V4.93229C14.3958 5.23701 14.4861 5.53473 14.6544 5.78879C14.8226 6.04286 15.0615 6.24218 15.3416 6.36222C15.6272 6.48827 15.944 6.52587 16.2512 6.47017C16.5584 6.41447 16.8419 6.26803 17.065 6.04972L17.1219 5.9929C17.2978 5.81681 17.5066 5.67711 17.7366 5.5818C17.9665 5.48649 18.2129 5.43743 18.4618 5.43743C18.7107 5.43743 18.9572 5.48649 19.1871 5.5818C19.417 5.67711 19.6259 5.81681 19.8018 5.9929C19.9779 6.16879 20.1176 6.37767 20.2129 6.60759C20.3082 6.83751 20.3573 7.08397 20.3573 7.33286C20.3573 7.58175 20.3082 7.8282 20.2129 8.05813C20.1176 8.28805 19.9779 8.49693 19.8018 8.67282L19.745 8.72964C19.5267 8.95282 19.3802 9.23628 19.3245 9.54348C19.2688 9.85067 19.3064 10.1675 19.4325 10.4531V10.5289C19.5525 10.809 19.7518 11.0478 20.0059 11.2161C20.26 11.3843 20.5577 11.4746 20.8624 11.4759H21.0234C21.5257 11.4759 22.0074 11.6754 22.3626 12.0306C22.7178 12.3858 22.9173 12.8675 22.9173 13.3698C22.9173 13.8721 22.7178 14.3538 22.3626 14.709C22.0074 15.0642 21.5257 15.2637 21.0234 15.2637H20.9382C20.6334 15.2649 20.3357 15.3552 20.0816 15.5235C19.8276 15.6917 19.6283 15.9306 19.5082 16.2107Z" stroke="#AFAB99" stroke-width="1.5" stroke-linecap="round" stroke-linejoin="round"/>
</svg>
