<svg width="24" height="25" viewBox="0 0 24 25" fill="none" xmlns="http://www.w3.org/2000/svg">
<path d="M6 6.86719L8 4.86719M8 4.86719L6 2.86719M8 4.86719H6C3.79086 4.86719 2 6.65805 2 8.86719M18 18.8672L16 20.8672M16 20.8672L18 22.8672M16 20.8672H18C20.2091 20.8672 22 19.0763 22 16.8672M10.189 7.36719C10.8551 4.77935 13.2042 2.86719 16 2.86719C19.3137 2.86719 22 5.55348 22 8.86719C22 11.6629 20.0879 14.0121 17.5001 14.6781M14 16.8672C14 20.1809 11.3137 22.8672 8 22.8672C4.68629 22.8672 2 20.1809 2 16.8672C2 13.5535 4.68629 10.8672 8 10.8672C11.3137 10.8672 14 13.5535 14 16.8672Z" stroke="#AFAB99" stroke-width="1.5" stroke-linecap="round" stroke-linejoin="round"/>
</svg>
