<svg width="25" height="26" viewBox="0 0 25 26" fill="none" xmlns="http://www.w3.org/2000/svg">
<path d="M8.4646 15.4486C8.92715 17.2457 10.5585 18.5736 12.5 18.5736C14.4415 18.5736 16.0729 17.2457 16.5354 15.4486M11.4768 3.74443L4.41186 9.23935C3.93961 9.60667 3.70348 9.79032 3.53336 10.0203C3.38267 10.2241 3.27042 10.4536 3.20211 10.6976C3.125 10.9731 3.125 11.2722 3.125 11.8705V19.4069C3.125 20.5737 3.125 21.1571 3.35207 21.6027C3.55181 21.9947 3.87052 22.3134 4.26252 22.5132C4.70817 22.7402 5.29156 22.7402 6.45833 22.7402H18.5417C19.7084 22.7402 20.2918 22.7402 20.7375 22.5132C21.1295 22.3134 21.4482 21.9947 21.6479 21.6027C21.875 21.1571 21.875 20.5737 21.875 19.4069V11.8705C21.875 11.2722 21.875 10.9731 21.7979 10.6976C21.7296 10.4536 21.6173 10.2241 21.4666 10.0203C21.2965 9.79032 21.0604 9.60667 20.5881 9.23935L13.5232 3.74443C13.1573 3.45979 12.9743 3.31747 12.7722 3.26277C12.594 3.21449 12.406 3.21449 12.2278 3.26277C12.0257 3.31747 11.8427 3.45979 11.4768 3.74443Z" stroke="#AFAB99" stroke-width="1.5" stroke-linecap="round" stroke-linejoin="round"/>
</svg>
