<svg width="27" height="25" viewBox="0 0 27 25" fill="none" xmlns="http://www.w3.org/2000/svg">
<mask id="mask0_2138_11737" style="mask-type:alpha" maskUnits="userSpaceOnUse" x="0" y="0" width="27" height="25">
<path d="M17.3611 18.75H23.8715M13.0208 16.1458H8.13802C6.62374 16.1458 5.86659 16.1458 5.25049 16.3252C3.86334 16.7292 2.77782 17.7713 2.35703 19.103C2.17014 19.6944 2.17014 20.4213 2.17014 21.875M15.7335 7.8125C15.7335 10.4013 13.5474 12.5 10.8507 12.5C8.15399 12.5 5.96788 10.4013 5.96788 7.8125C5.96788 5.22367 8.15399 3.125 10.8507 3.125C13.5474 3.125 15.7335 5.22367 15.7335 7.8125Z" stroke="black" stroke-width="1.5" stroke-linecap="round" stroke-linejoin="round"/>
</mask>
<g mask="url(#mask0_2138_11737)">
<path d="M18.4461 1.04102H3.25513L-1.62769 24.4785H13.0208L18.4461 1.04102Z" fill="#6E6E6E"/>
</g>
<mask id="mask1_2138_11737" style="mask-type:alpha" maskUnits="userSpaceOnUse" x="8" y="8" width="17" height="16">
<g clip-path="url(#clip0_2138_11737)">
<path d="M17.4969 11.5872C17.4969 12.3064 15.8269 12.8893 13.7669 12.8893C11.7069 12.8893 10.037 12.3064 10.037 11.5872M17.4969 11.5872C17.4969 10.8681 15.8269 10.2852 13.7669 10.2852C11.7069 10.2852 10.037 10.8681 10.037 11.5872M17.4969 11.5872V12.5638M10.037 11.5872V19.3997C10.037 20.1189 11.7069 20.7018 13.7669 20.7018M13.7669 15.4935C13.6526 15.4935 13.5395 15.4917 13.4278 15.4882C11.5268 15.4284 10.037 14.8706 10.037 14.1914M13.7669 18.0977C11.7069 18.0977 10.037 17.5147 10.037 16.7956M23.6004 15.819C23.6004 16.5381 21.9304 17.1211 19.8704 17.1211C17.8105 17.1211 16.1405 16.5381 16.1405 15.819M23.6004 15.819C23.6004 15.0999 21.9304 14.5169 19.8704 14.5169C17.8105 14.5169 16.1405 15.0999 16.1405 15.819M23.6004 15.819V20.7018C23.6004 21.4209 21.9304 22.0039 19.8704 22.0039C17.8105 22.0039 16.1405 21.4209 16.1405 20.7018V15.819M23.6004 18.2604C23.6004 18.9795 21.9304 19.5625 19.8704 19.5625C17.8105 19.5625 16.1405 18.9795 16.1405 18.2604" stroke="black" stroke-width="1.5" stroke-linecap="round" stroke-linejoin="round"/>
</g>
</mask>
<g mask="url(#mask1_2138_11737)">
<path d="M14.7842 13.541H24.9567V23.3066H14.7842V13.541Z" fill="#6E6E6E"/>
</g>
<defs>
<clipPath id="clip0_2138_11737">
<rect width="16.276" height="15.625" fill="white" transform="translate(8.68066 8.33203)"/>
</clipPath>
</defs>
</svg>

