<svg width="25" height="25" viewBox="0 0 25 25" fill="none" xmlns="http://www.w3.org/2000/svg">
<g id="gift-01">
<path id="Icon" d="M12.5 6.24992V22.9166M12.5 6.24992H8.81697C8.2743 6.24992 7.75386 6.03043 7.37013 5.63972C6.98641 5.24902 6.77084 4.71912 6.77084 4.16659C6.77084 3.61405 6.98641 3.08415 7.37013 2.69345C7.75386 2.30275 8.2743 2.08325 8.81697 2.08325C11.6815 2.08325 12.5 6.24992 12.5 6.24992ZM12.5 6.24992H16.183C16.7257 6.24992 17.2461 6.03043 17.6299 5.63972C18.0136 5.24902 18.2292 4.71912 18.2292 4.16659C18.2292 3.61405 18.0136 3.08415 17.6299 2.69345C17.2461 2.30275 16.7257 2.08325 16.183 2.08325C13.3185 2.08325 12.5 6.24992 12.5 6.24992ZM20.8333 11.4583V19.5833C20.8333 20.75 20.8333 21.3334 20.6063 21.7791C20.4065 22.1711 20.0878 22.4898 19.6958 22.6895C19.2502 22.9166 18.6668 22.9166 17.5 22.9166L7.5 22.9166C6.33323 22.9166 5.74984 22.9166 5.30419 22.6895C4.91218 22.4898 4.59347 22.1711 4.39374 21.7791C4.16667 21.3334 4.16667 20.75 4.16667 19.5833V11.4583M2.08334 7.91658L2.08334 9.79158C2.08334 10.375 2.08334 10.6667 2.19687 10.8895C2.29674 11.0855 2.45609 11.2448 2.6521 11.3447C2.87492 11.4583 3.16661 11.4583 3.75 11.4583L21.25 11.4583C21.8334 11.4583 22.1251 11.4583 22.3479 11.3447C22.5439 11.2448 22.7033 11.0855 22.8031 10.8895C22.9167 10.6667 22.9167 10.375 22.9167 9.79159V7.91659C22.9167 7.3332 22.9167 7.0415 22.8031 6.81868C22.7033 6.62268 22.5439 6.46332 22.3479 6.36345C22.1251 6.24992 21.8334 6.24992 21.25 6.24992L3.75 6.24992C3.16661 6.24992 2.87492 6.24992 2.6521 6.36345C2.45609 6.46332 2.29674 6.62268 2.19687 6.81868C2.08334 7.0415 2.08334 7.3332 2.08334 7.91658Z" stroke="#6E6E6E" stroke-width="1.5" stroke-linecap="round" stroke-linejoin="round"/>
</g>
</svg>
