<svg width="20" height="21" viewBox="0 0 20 21" fill="none" xmlns="http://www.w3.org/2000/svg">
<g id="hearts">
<path id="Icon" d="M12.9546 8.77127C13.2662 8.21761 13.5261 7.71801 13.6863 7.33776C14.4644 5.4913 13.695 3.36739 11.8141 2.50102C9.93322 1.63465 8.0445 2.53299 7.21559 4.26752C5.63047 3.17983 3.51598 3.33957 2.3499 5.03694C1.18383 6.73432 1.54979 8.95177 3.14691 10.1618C3.87175 10.7109 5.3053 11.5202 6.65496 12.2405M13.581 10.2917C13.2293 8.40174 11.6211 7.01953 9.59636 7.39521C7.5716 7.77089 6.2624 9.59765 6.53612 11.5826C6.75604 13.1773 7.96993 16.919 8.43867 18.3284C8.50263 18.5207 8.53462 18.6169 8.59794 18.684C8.6531 18.7424 8.72645 18.7847 8.80462 18.8033C8.89435 18.8246 8.99362 18.8042 9.19216 18.7634C10.6471 18.4647 14.4944 17.6451 15.9855 17.0382C17.8414 16.2828 18.7991 14.2369 18.0817 12.2942C17.3644 10.3516 15.3936 9.65134 13.581 10.2917Z" stroke="#F1F0EB" stroke-width="1.5" stroke-linecap="round" stroke-linejoin="round"/>
</g>
</svg>
