<svg width="25" height="25" viewBox="0 0 25 25" fill="none" xmlns="http://www.w3.org/2000/svg">
<g id="mail-02">
<path id="Icon" d="M22.3958 18.7501L15.4762 12.5001M9.52381 12.5001L2.6042 18.7501M2.08333 7.29175L10.5885 13.2453C11.2772 13.7274 11.6215 13.9685 11.9961 14.0619C12.327 14.1443 12.673 14.1443 13.0039 14.0619C13.3785 13.9685 13.7228 13.7274 14.4115 13.2453L22.9167 7.29175M7.08333 20.8334H17.9167C19.6668 20.8334 20.5419 20.8334 21.2104 20.4928C21.7984 20.1932 22.2765 19.7151 22.5761 19.1271C22.9167 18.4587 22.9167 17.5836 22.9167 15.8334V9.16675C22.9167 7.41658 22.9167 6.5415 22.5761 5.87303C22.2765 5.28502 21.7984 4.80696 21.2104 4.50735C20.5419 4.16675 19.6668 4.16675 17.9167 4.16675H7.08333C5.33317 4.16675 4.45809 4.16675 3.78961 4.50735C3.20161 4.80696 2.72354 5.28502 2.42394 5.87303C2.08333 6.5415 2.08333 7.41658 2.08333 9.16675V15.8334C2.08333 17.5836 2.08333 18.4587 2.42394 19.1271C2.72354 19.7151 3.20161 20.1932 3.78961 20.4928C4.45809 20.8334 5.33317 20.8334 7.08333 20.8334Z" stroke="#6E6E6E" stroke-width="1.5" stroke-linecap="round" stroke-linejoin="round"/>
</g>
</svg>
