<svg width="68" height="60" viewBox="0 0 68 60" fill="none" xmlns="http://www.w3.org/2000/svg">
<path d="M8.48145 57.4063L30.0293 36.4408C31.3229 35.1822 31.9697 34.5529 32.7155 34.3171C33.3716 34.1097 34.0783 34.1097 34.7344 34.3171C35.4802 34.5529 36.127 35.1822 37.4206 36.4408L58.8248 57.2665M40.258 39.2015L49.6285 30.0843C50.9221 28.8257 51.5689 28.1963 52.3148 27.9606C52.9708 27.7532 53.6775 27.7532 54.3336 27.9606C55.0794 28.1963 55.7262 28.8257 57.0198 30.0843L66.3903 39.2015M27.1919 20.132C27.1919 23.6426 24.2669 26.4885 20.6588 26.4885C17.0507 26.4885 14.1257 23.6426 14.1257 20.132C14.1257 16.6214 17.0507 13.7755 20.6588 13.7755C24.2669 13.7755 27.1919 16.6214 27.1919 20.132ZM16.739 58.2711H50.7109C56.1992 58.2711 58.9434 58.2711 61.0396 57.2318C62.8836 56.3177 64.3827 54.8591 65.3222 53.065C66.3903 51.0254 66.3903 48.3554 66.3903 43.0155V16.3181C66.3903 10.9782 66.3903 8.30817 65.3222 6.26857C64.3827 4.47449 62.8836 3.01586 61.0396 2.10173C58.9434 1.0625 56.1992 1.0625 50.7109 1.0625H16.739C11.2507 1.0625 8.50651 1.0625 6.41025 2.10173C4.56634 3.01586 3.06719 4.47449 2.12766 6.26857C1.05957 8.30817 1.05957 10.9782 1.05957 16.3181V43.0154C1.05957 48.3554 1.05957 51.0254 2.12766 53.065C3.06719 54.8591 4.56634 56.3177 6.41025 57.2318C8.50651 58.2711 11.2507 58.2711 16.739 58.2711Z" stroke="#6E6E6E" stroke-width="2.11884" stroke-linecap="round" stroke-linejoin="round"/>
</svg>
