<svg width="55" height="55" viewBox="0 0 55 55" fill="none" xmlns="http://www.w3.org/2000/svg">
<rect width="55" height="55" fill="#C5C5C5"/>
<rect x="10" y="12.7031" width="23.0878" height="24.425" rx="3.1106" transform="rotate(-6.72362 10 12.7031)" fill="white"/>
<path d="M33.5142 15.5049L33.2327 12.6354C33.0904 11.1856 31.7902 10.1322 30.3425 10.2939L12.5965 12.2757C11.1625 12.4358 10.1298 13.7282 10.29 15.1622L12.4082 34.1295C12.5687 35.5671 13.8668 36.6006 15.3038 36.435L15.552 36.4064" stroke="#D9D9D9" stroke-width="0.653172" stroke-linecap="round"/>
<rect x="22.6461" y="14.2687" width="22.5062" height="22.9853" transform="rotate(12.5771 22.6461 14.2687)" fill="white" stroke="#D9D9D9" stroke-width="0.653172"/>
<rect x="24.5406" y="17.0701" width="17.6387" height="15.3427" transform="rotate(12.5771 24.5406 17.0701)" stroke="#D9D9D9" stroke-width="0.653172"/>
<circle cx="27.5572" cy="23.2119" r="1.63293" stroke="#D9D9D9" stroke-width="0.653172"/>
<path d="M26.6423 27.0924L22.5591 29.4562C22.3003 29.606 22.3623 29.996 22.6548 30.0583L37.1725 33.1462C37.4386 33.2028 37.6532 32.9284 37.5341 32.6838L34.8943 27.2601C34.811 27.0888 34.5993 27.0249 34.4351 27.1215L29.4478 30.0552C29.301 30.1416 29.1124 30.1005 29.0147 29.961L27.0734 27.1878C26.9762 27.0489 26.789 27.0075 26.6423 27.0924Z" fill="url(#paint0_linear_5953_12942)"/>
<path d="M22.9844 29.0905L26.384 27.1073C26.6776 26.9361 27.0533 27.0186 27.2482 27.297L28.8434 29.5758C29.0388 29.855 29.416 29.937 29.7097 29.7642L34.1527 27.1507C34.4735 26.962 34.8869 27.0791 35.0611 27.4081L37.6807 32.3563" stroke="#D9D9D9" stroke-width="0.653172" stroke-linecap="round"/>
<defs>
<linearGradient id="paint0_linear_5953_12942" x1="30.1522" y1="26.9423" x2="29.0091" y2="32.1677" gradientUnits="userSpaceOnUse">
<stop stop-color="#D9D9D9"/>
<stop offset="1" stop-color="#858899" stop-opacity="0"/>
</linearGradient>
</defs>
</svg>
