<svg width="20" height="21" viewBox="0 0 20 21" fill="none" xmlns="http://www.w3.org/2000/svg">
<path d="M17.5 10.25C17.5 14.3921 14.1421 17.75 10 17.75C9.00238 17.75 8.05025 17.5552 7.17958 17.2016C7.01294 17.1339 6.92962 17.1001 6.86227 17.085C6.79638 17.0702 6.74763 17.0648 6.68011 17.0648C6.61109 17.0648 6.53591 17.0773 6.38554 17.1024L3.42063 17.5966C3.11015 17.6483 2.95491 17.6742 2.84265 17.626C2.7444 17.5839 2.66611 17.5056 2.62397 17.4073C2.57582 17.2951 2.60169 17.1398 2.65344 16.8294L3.14759 13.8645C3.17265 13.7141 3.18518 13.6389 3.18517 13.5699C3.18516 13.5024 3.17976 13.4536 3.165 13.3877C3.1499 13.3204 3.11606 13.2371 3.04839 13.0704C2.69478 12.1997 2.5 11.2476 2.5 10.25C2.5 6.10786 5.85786 2.75 10 2.75C14.1421 2.75 17.5 6.10786 17.5 10.25Z" stroke="#F1F0EB" stroke-width="1.5" stroke-linecap="round" stroke-linejoin="round"/>
</svg>
