<svg width="25" height="26" viewBox="0 0 25 26" fill="none" xmlns="http://www.w3.org/2000/svg">
<path d="M11.4584 4.7019H7.08337C5.33321 4.7019 4.45813 4.7019 3.78965 5.0425C3.20165 5.34211 2.72358 5.82017 2.42398 6.40818C2.08337 7.07665 2.08337 7.95173 2.08337 9.7019V18.4519C2.08337 20.2021 2.08337 21.0771 2.42398 21.7456C2.72358 22.3336 3.20165 22.8117 3.78965 23.1113C4.45813 23.4519 5.33321 23.4519 7.08337 23.4519H15.8334C17.5835 23.4519 18.4586 23.4519 19.1271 23.1113C19.7151 22.8117 20.1932 22.3336 20.4928 21.7456C20.8334 21.0771 20.8334 20.2021 20.8334 18.4519V14.0769M8.33335 17.2019H10.0777C10.5872 17.2019 10.842 17.2019 11.0818 17.1443C11.2943 17.0933 11.4976 17.0091 11.684 16.8949C11.8942 16.7661 12.0744 16.5859 12.4347 16.2256L22.3959 6.2644C23.2588 5.40145 23.2588 4.00234 22.3959 3.1394C21.5329 2.27645 20.1338 2.27645 19.2709 3.13939L9.30966 13.1006C8.94934 13.4609 8.76918 13.6411 8.64035 13.8513C8.52612 14.0377 8.44194 14.2409 8.39091 14.4535C8.33335 14.6933 8.33335 14.948 8.33335 15.4576V17.2019Z" stroke="#F1F0EB" stroke-width="1.5" stroke-linecap="round" stroke-linejoin="round"/>
</svg>
