<svg width="25" height="25" viewBox="0 0 25 25" fill="none" xmlns="http://www.w3.org/2000/svg">
<path d="M10.937 14.0626L21.8745 3.12506M11.0699 14.4043L13.8075 21.4439C14.0487 22.064 14.1693 22.3741 14.343 22.4646C14.4937 22.5431 14.6731 22.5432 14.8238 22.4649C14.9977 22.3746 15.1186 22.0647 15.3605 21.4448L22.2254 3.85339C22.4438 3.29383 22.553 3.01404 22.4933 2.83527C22.4414 2.68001 22.3196 2.55816 22.1643 2.5063C21.9855 2.44657 21.7057 2.55576 21.1462 2.77412L3.55477 9.63906C2.9349 9.88096 2.62497 10.0019 2.53465 10.1758C2.45635 10.3265 2.45645 10.5059 2.53493 10.6565C2.62546 10.8303 2.93553 10.9509 3.55568 11.192L10.5953 13.9297C10.7212 13.9786 10.7841 14.0031 10.8371 14.0409C10.8841 14.0744 10.9252 14.1155 10.9587 14.1625C10.9965 14.2155 11.0209 14.2784 11.0699 14.4043Z" stroke="#454343" stroke-width="1.5" stroke-linecap="round" stroke-linejoin="round"/>
</svg>
