<svg width="324" height="322" viewBox="0 0 324 322" fill="none" xmlns="http://www.w3.org/2000/svg">
<path d="M114.325 43.8425C114.325 43.8425 115.365 45.6125 117.115 48.7625C117.985 50.3425 119.035 52.2525 120.185 54.4825C121.345 56.7125 122.605 59.2425 123.785 62.1225C124.265 63.6325 124.675 65.1425 125.285 66.6825C125.865 68.2225 126.595 69.7825 127.345 71.3625C128.895 74.5225 130.745 77.7525 132.755 81.0225C134.745 84.3125 136.945 87.6325 139.195 90.9825C140.345 92.6425 141.505 94.3225 142.665 96.0025C143.855 97.6725 145.045 99.3425 146.235 101.012C148.635 104.352 151.265 110.192 153.395 113.662C153.395 113.662 155.015 117.113 156.785 120.573C160.325 127.493 162.305 131.653 164.245 137.593C166.195 143.523 170.265 152.353 170.905 155.963C171.225 157.772 171.415 160.243 171.525 161.233L169.075 160.463H168.245C168.165 159.543 168.765 158.433 168.495 156.683C167.965 153.193 166.705 148.183 164.935 142.343C163.175 136.503 160.235 129.622 156.915 122.722C155.255 119.272 153.395 115.783 151.375 112.302C149.345 108.822 147.155 105.393 144.845 101.993C143.695 100.283 142.545 98.5725 141.395 96.8725C140.275 95.1525 139.155 93.4425 138.045 91.7425C135.875 88.3125 133.755 84.9325 131.835 81.5625C129.905 78.2125 128.125 74.9125 126.645 71.6825C125.925 70.0625 125.225 68.4725 124.675 66.8925C124.095 65.3225 123.705 63.7225 123.285 62.2825C122.205 59.4325 121.015 56.8525 119.905 54.6025C118.815 52.3425 117.815 50.4025 116.985 48.8025C115.325 45.6125 114.325 43.8125 114.325 43.8125V43.8425Z" fill="white"/>
<path d="M73.8352 171.401C73.8352 171.401 73.7752 171.221 74.4052 172.621C75.0352 174.021 75.8752 176.041 76.6852 178.531C77.0952 179.771 77.5052 181.141 77.8252 182.611C77.9852 183.351 78.1052 184.121 78.2252 184.901C78.3352 185.691 78.4152 186.501 78.5152 187.321C78.5952 188.141 78.7152 188.921 78.9652 189.711C79.2052 190.491 79.5452 191.271 79.9452 192.011C80.7352 193.511 81.7752 194.891 82.8752 196.221C83.9852 197.541 85.1452 198.811 86.2852 200.071C87.4252 201.331 88.5752 202.531 89.7252 203.681C91.9952 205.991 93.1952 208.951 94.9952 210.831C96.7852 212.721 100.185 215.231 101.205 216.371L101.005 216.541C99.7752 215.631 96.7352 212.971 94.7452 211.261C92.7752 209.541 90.5052 207.471 88.2952 205.031C87.1952 203.801 86.0852 202.521 84.9952 201.171C83.9052 199.821 82.8852 198.381 81.9652 196.881C81.0252 195.391 80.1852 193.831 79.4252 192.281C79.0552 191.501 78.6952 190.711 78.4052 189.911C78.2652 189.501 78.1152 189.111 77.9952 188.691C77.8852 188.291 77.7852 187.871 77.6652 187.481C77.4352 186.701 77.2352 185.931 76.9952 185.191C76.7452 184.451 76.4952 183.731 76.2952 183.011C76.0752 182.301 75.8652 181.611 75.6752 180.941C75.4952 180.261 75.3352 179.611 75.1552 178.991C74.8252 177.731 74.5152 176.581 74.2652 175.551C74.0152 174.521 73.8052 173.621 73.6352 172.871C73.5052 172.071 73.3452 171.441 73.3452 171.441C73.3452 171.391 73.8252 171.361 73.8452 171.391L73.8352 171.401Z" fill="white"/>
<path d="M100.905 169.134C100.905 169.134 101.195 170.364 102.115 174.204C102.555 176.134 103.075 178.374 103.635 180.784C103.915 181.984 104.195 183.234 104.485 184.494C104.635 185.114 104.765 185.784 104.925 186.374C105.085 187.024 105.305 187.584 105.535 188.194C105.995 189.414 106.525 190.614 107.045 191.794C107.565 192.974 108.105 194.134 108.625 195.244C109.675 197.474 110.695 199.534 111.575 201.294C111.885 201.904 112.055 202.604 112.355 202.954C112.615 203.244 113.635 203.944 113.255 203.794C112.845 203.624 112.955 204.194 112.985 204.634C113.015 205.104 113.455 205.574 113.555 205.764C113.735 205.994 114.965 205.304 114.965 205.304L112.985 206.834C113.025 206.474 112.855 205.814 112.715 205.014C112.465 203.624 111.985 203.644 111.755 203.024C111.515 202.394 111.625 201.934 111.335 201.414C110.375 199.684 109.275 197.664 108.135 195.474C107.565 194.374 106.985 193.244 106.415 192.074C105.845 190.904 105.265 189.724 104.745 188.494C104.495 187.884 104.205 187.224 104.035 186.604C103.825 185.934 103.675 185.334 103.485 184.704C103.135 183.464 102.785 182.234 102.445 181.054C101.765 178.684 101.135 176.474 100.595 174.584C99.4849 170.794 99.0449 169.274 99.0449 169.274C99.0449 169.274 100.885 169.104 100.885 169.114L100.905 169.134Z" fill="white"/>
<path d="M109.535 167.021C109.535 167.021 110.415 166.711 110.425 165.511C110.475 161.751 114.355 151.331 114.355 151.331C114.355 151.311 114.365 151.291 114.375 151.281L120.505 137.821L124.525 131.821C124.695 131.511 124.965 132.121 125.285 132.291H125.305L142.375 142.651C143.895 143.451 146.315 143.991 147.815 144.841C149.315 145.671 151.055 146.041 152.535 146.901C155.515 148.601 158.485 150.321 161.425 152.111L161.475 152.141C161.545 152.181 161.595 152.241 161.635 152.301C162.055 152.991 162.425 153.681 162.775 154.391C163.125 155.101 163.455 155.811 163.715 156.561C163.985 157.301 164.225 158.061 164.385 158.831C164.435 159.021 164.455 159.221 164.495 159.411C164.525 159.601 165.195 160.471 165.185 160.861L163.325 161.171C163.435 160.951 164.125 159.681 164.075 159.501C164.015 159.321 163.975 159.131 163.905 158.961C163.665 158.241 163.345 157.541 163.005 156.861C162.655 156.181 162.285 155.511 161.895 154.861C161.505 154.211 161.085 153.561 160.645 152.961L160.855 153.151C157.765 151.641 154.715 150.071 151.675 148.481C150.145 147.691 149.125 146.531 147.615 145.711C146.095 144.911 141.075 142.271 139.585 141.421L124.675 133.441L123.875 133.641L122.145 136.181L115.025 151.611L115.055 151.551C115.055 151.551 111.685 159.901 111.175 162.841C110.885 164.491 110.765 166.841 110.765 166.841L109.555 167.011L109.535 167.021Z" fill="white"/>
<path d="M150.475 110.712C149.825 110.892 149.865 110.932 149.265 111.242C148.665 111.532 148.085 111.862 147.515 112.202C146.375 112.902 145.285 113.662 144.215 114.462C142.085 116.062 140.035 117.792 138.025 119.562C134.035 123.112 130.155 126.822 126.425 130.632L126.295 129.672L144.625 140.462C146.185 141.332 148.175 141.972 149.735 142.852L153.925 146.262C157.005 148.082 160.605 148.922 163.635 150.822L163.685 150.852C163.735 150.882 163.785 150.932 163.815 150.972C164.105 151.362 164.355 151.732 164.605 152.132C164.855 152.522 165.095 152.912 165.315 153.312C165.765 154.112 166.185 154.932 166.535 155.792C166.875 156.652 167.765 157.652 167.925 158.572C168.095 159.482 168.325 159.712 168.205 160.502L166.555 160.692C166.635 159.812 167.035 159.422 166.795 158.572C166.545 157.732 166.475 156.852 166.055 156.072C165.645 155.292 164.905 154.602 164.405 153.872C164.155 153.512 164.075 153.092 163.805 152.742C163.545 152.392 162.945 151.112 162.945 151.112C159.755 149.482 156.665 148.602 153.525 146.902L149.225 143.672C147.665 142.792 145.745 142.502 144.195 141.612L125.685 130.742H125.665C125.375 130.562 125.285 130.192 125.455 129.902C125.485 129.852 125.515 129.812 125.555 129.772C129.425 126.032 133.385 122.402 137.535 118.992C139.615 117.282 141.725 115.632 143.935 114.092C145.045 113.332 146.165 112.592 147.345 111.932C147.935 111.602 148.525 111.282 149.145 111.022C149.755 110.732 149.655 110.732 150.295 110.582L150.455 110.732L150.475 110.712Z" fill="white"/>
<path d="M171.955 162.601C171.955 162.601 171.615 164.181 171.095 165.691C170.585 167.191 169.525 166.721 168.585 169.291C168.125 170.581 166.635 174.221 166.065 175.681C165.505 177.151 166.145 179.081 165.485 180.671C165.145 181.461 164.805 182.261 164.455 183.071C164.085 183.881 163.715 184.691 163.335 185.511C162.935 186.321 162.535 187.141 162.135 187.961C161.705 188.771 159.925 191.991 159.465 192.781C158.965 193.551 158.495 194.331 157.975 195.081C156.935 196.571 155.865 198.011 154.705 199.281C153.575 200.591 152.335 201.721 151.135 202.751C149.905 203.791 148.555 204.461 147.485 205.261C146.395 206.041 145.505 206.911 144.875 207.801C144.245 208.691 143.835 209.571 143.565 210.311C143.315 211.061 143.155 211.661 143.085 212.081C143.005 212.501 142.955 212.721 142.955 212.721C142.955 212.721 142.985 212.501 143.045 212.071C143.095 211.651 143.215 211.031 143.435 210.261C143.665 209.491 144.025 208.581 144.625 207.631C145.225 206.681 146.105 205.731 147.175 204.861C148.245 203.971 149.535 203.241 150.635 202.191C151.755 201.131 155.935 195.871 156.865 194.371C157.325 193.621 161.445 186.621 161.795 185.811C162.115 184.981 162.965 183.911 163.285 183.101C163.585 182.281 164.325 181.411 164.615 180.621C165.175 179.021 164.515 176.731 164.985 175.251C165.465 173.771 165.905 172.371 166.295 171.071C167.085 168.471 167.705 166.311 168.135 164.771C168.565 163.241 169.025 161.941 169.025 161.941C169.025 161.941 172.125 162.501 171.965 162.611L171.955 162.601Z" fill="white"/>
<path d="M323.745 178.334L296.365 171.824L296.505 171.844C291.405 171.994 286.315 171.994 281.215 171.884C278.665 171.834 276.125 171.754 273.575 171.664C271.035 171.554 268.665 170.514 266.125 170.364C263.585 170.234 261.195 170.204 258.655 170.024C256.115 169.854 253.235 170.454 250.695 170.254C248.155 170.004 247.015 169.164 244.475 168.884C241.945 168.614 240.715 167.874 238.185 167.564L232.825 167.304L229.095 167.114C226.575 166.734 223.245 166.534 220.745 166.044C218.225 165.584 215.285 165.514 212.785 164.994C210.295 164.444 207.815 163.864 205.355 163.394C202.895 162.914 198.975 161.624 198.975 161.624C198.975 161.624 194.715 161.904 192.195 162.044C190.935 162.114 187.905 162.704 186.665 162.864C185.415 163.014 184.135 163.154 182.865 163.274C180.315 163.484 177.995 163.734 175.465 163.144L178.245 162.544C180.755 162.794 180.245 162.664 182.725 162.214L186.685 162.054C187.965 161.794 189.395 161.554 190.665 161.374C193.205 161.054 197.145 160.304 197.985 160.274C200.585 160.254 204.915 162.454 207.465 162.854C212.565 163.674 213.815 164.584 218.815 165.434L227.805 166.094L232.545 166.294L236.545 166.654C239.055 167.054 240.805 166.794 243.315 167.124C245.825 167.464 248.355 167.734 250.875 168.034C253.395 168.294 255.925 168.574 258.445 168.794C260.975 169.024 263.505 169.244 266.035 169.434C268.565 169.644 272.605 170.474 275.135 170.644C277.665 170.794 280.455 170.874 282.995 170.984C285.525 171.094 286.305 170.534 288.845 170.614C291.385 170.684 293.925 170.734 296.455 170.724H296.475C296.475 170.724 296.555 170.724 296.595 170.744L323.775 178.074L323.715 178.344L323.745 178.334Z" fill="white"/>
<path d="M0.105148 172.453C3.46515 171.353 6.99515 170.593 10.5451 170.343C14.1051 170.063 17.6851 170.343 21.1951 170.863C24.7151 171.373 28.1851 172.123 31.6751 172.533C32.5451 172.633 33.4151 172.743 34.2952 172.783L35.6051 172.873L36.9151 172.893H37.5652L37.7252 172.903C37.7351 172.903 37.8251 172.903 37.8652 172.903L38.1951 172.883L39.5151 172.793L42.1651 172.603L47.4651 172.223L53.3551 172.383L63.3652 171.403C63.3652 171.403 70.1451 171.333 72.3652 170.973C73.7151 170.753 76.2151 169.883 77.7051 169.793C78.9551 169.713 81.3652 169.933 81.3652 169.933L89.3151 169.283L106.535 167.113L116.125 166.483C119.645 166.113 123.615 165.603 127.145 165.263L137.995 163.433L151.525 163.213C158.585 162.633 161.915 160.933 168.975 160.453H169.015C169.095 160.453 169.315 160.463 169.385 160.493C169.925 160.673 170.355 160.843 170.925 161.003C171.485 161.153 172.145 161.303 172.715 161.433C173.285 161.563 173.785 161.623 174.355 161.733L176.045 162.093L178.255 162.533L175.585 163.133L174.155 162.933C173.555 162.873 172.965 162.753 172.375 162.663C171.785 162.573 171.195 162.453 170.605 162.323C170.015 162.203 169.435 162.063 168.835 161.903L169.115 161.933C162.095 162.903 156.625 163.583 149.595 164.433L139.285 164.163L130.045 165.583C126.525 165.953 120.545 166.873 117.025 167.213L105.765 168.873L84.6051 170.713L63.4352 172.483L54.8751 172.803L47.5151 173.003C45.7451 173.123 43.9752 173.853 42.2052 173.943L39.5551 174.063L38.2252 174.123L37.8951 174.143C37.8251 174.143 37.8051 174.143 37.7052 174.143H37.5351L36.8652 174.113L35.5252 174.053L34.1852 173.933C33.2952 173.863 32.4051 173.733 31.5251 173.603C27.9851 173.093 24.5451 172.253 21.0651 171.663C17.5951 171.053 14.0751 170.703 10.5651 170.893C7.04515 171.063 3.57515 171.713 0.175148 172.733C0.105148 172.753 0.0251484 172.713 0.00514837 172.633C-0.0148516 172.563 0.0251484 172.483 0.0951484 172.463L0.105148 172.453Z" fill="white"/>
<path d="M285.955 196.793C276.155 195.423 275.205 194.563 265.445 192.933C260.565 192.123 257.615 192.453 252.745 191.553C247.885 190.643 243.025 189.693 238.175 188.683C233.325 187.683 229.945 186.183 225.105 185.062C220.275 183.942 213.985 183.243 209.205 181.873C206.805 181.213 202.685 178.883 200.315 178.083C197.955 177.283 196.965 176.483 194.655 175.503C192.345 174.533 191.095 174.003 188.895 172.723C187.795 172.083 185.725 171.493 184.695 170.693C183.675 169.873 182.985 169.873 182.255 168.583L182.525 168.883C181.565 168.153 180.565 167.433 179.565 166.723C178.565 166.013 177.535 165.343 176.505 164.683C175.475 164.023 174.425 163.382 173.335 162.812L176.705 163.273C177.835 163.813 177.915 164.653 179.005 165.263C180.095 165.883 184.295 169.143 185.245 169.803C186.195 170.463 188.305 171.113 189.375 171.653C191.515 172.723 193.765 173.663 196.055 174.513C198.345 175.353 201.565 178.273 203.895 179.023C206.225 179.773 207.935 180.933 210.285 181.663C214.995 183.063 219.875 183.123 224.645 184.373C229.415 185.633 233.815 185.533 238.625 186.653C243.435 187.773 248.485 189.443 253.315 190.473C258.145 191.513 262.755 191.893 267.605 192.883C277.295 194.843 287.005 196.693 296.745 198.393C296.825 198.403 286.035 196.783 285.955 196.773V196.793Z" fill="white"/>
<path d="M299.425 313.052L292.715 299.292L292.745 299.342L289.275 294.572L285.645 289.912C283.165 286.852 280.655 283.812 278.095 280.812C275.535 277.812 272.955 274.832 270.355 271.852L264.445 263.482C261.865 260.492 258.915 257.672 256.315 254.742C253.705 251.792 249.565 248.122 246.795 245.342C241.245 239.792 235.955 233.452 229.205 229.522C225.835 227.562 224.635 226.832 220.935 225.612C220.015 225.302 216.005 225.312 215.065 225.062C214.595 224.922 212.715 224.212 212.235 224.102C212.235 224.102 210.995 222.822 210.315 222.462C209.225 221.902 208.335 221.922 207.555 221.662C206.935 221.462 206.065 221.562 205.245 221.142C203.425 220.182 202.815 219.872 201.175 218.642C199.525 217.412 199.165 215.832 197.775 214.322C196.365 212.822 195.035 211.132 193.915 209.412C192.795 207.692 191.415 205.962 190.665 204.052C189.915 202.142 188.695 200.332 188.365 198.332L188.135 196.872C188.055 196.392 187.985 195.892 187.885 195.432L187.585 194.062L187.235 192.672C186.235 188.952 184.875 184.442 183.515 180.762C182.145 177.092 180.785 174.182 179.895 170.352C179.615 169.522 179.095 168.682 178.495 167.942C177.895 167.192 177.205 166.502 176.475 165.852C175.015 164.542 173.415 163.382 171.725 162.352L172.205 162.652C172.135 162.612 172.975 162.752 173.035 162.782C174.785 163.742 175.285 164.172 176.835 165.432C177.605 166.072 178.345 166.752 179.015 167.522C179.685 168.292 180.265 169.122 180.655 170.142C181.775 173.902 182.755 177.952 184.275 181.582C185.815 185.192 188.035 188.312 189.255 192.122L189.685 193.562L190.065 195.052L190.665 197.932C191.075 199.772 191.665 201.562 192.405 203.292C193.915 206.732 194.125 208.722 196.755 211.452C197.985 212.722 200.395 216.082 201.785 217.202C203.375 218.472 205.935 218.612 207.715 219.612C209.365 220.542 211.145 221.382 212.865 221.922C212.865 221.922 217.705 223.322 218.665 223.662C222.505 225.012 226.185 226.782 229.645 228.862C236.585 233.032 242.575 239.452 248.115 245.142C250.885 248.002 253.665 250.682 256.245 253.682C258.835 256.692 261.245 258.942 263.785 261.962C268.875 267.992 273.985 274.012 278.995 280.122C281.505 283.172 283.965 286.262 286.395 289.382L289.955 294.122L293.355 298.982C293.355 298.982 293.375 299.022 293.385 299.032L302.965 321.212C302.995 321.282 302.735 320.822 302.665 320.852C302.595 320.882 299.485 313.132 299.455 313.062L299.425 313.052Z" fill="white"/>
<path d="M173.925 176.471C174.325 178.331 175.015 180.341 175.315 182.331C175.615 184.331 175.745 186.351 175.825 188.371C175.885 190.391 175.905 192.411 175.825 194.431C175.745 196.451 175.655 198.461 175.475 200.471C175.155 204.491 174.695 208.481 174.085 212.451C173.465 216.421 172.775 220.361 172.065 224.301C171.705 226.271 171.375 228.241 171.055 230.221C170.745 232.201 170.445 234.181 170.205 236.161C169.965 238.141 169.765 240.141 169.675 242.141C169.585 244.131 169.535 246.141 169.545 248.141C169.545 250.141 169.595 252.141 169.655 254.141C169.705 256.141 169.805 258.141 169.915 260.141C170.115 264.131 170.415 268.141 170.825 272.101C170.825 272.131 170.825 272.161 170.825 272.191C170.795 276.151 170.845 280.121 170.875 284.081C170.875 286.061 170.955 288.041 170.965 290.021C170.985 292.001 171.035 293.981 171.085 295.971C171.145 297.951 171.165 299.931 171.255 301.921L171.435 307.871C171.475 309.851 171.595 311.831 171.655 313.821L171.855 319.771C171.855 319.771 171.825 319.851 171.785 319.851C171.745 319.851 171.715 319.821 171.715 319.781L171.135 313.861C170.945 311.881 170.765 309.911 170.625 307.931L170.195 301.991C170.065 300.011 169.985 298.021 169.875 296.041C169.775 294.061 169.675 292.071 169.605 290.091C169.525 288.101 169.455 286.121 169.425 284.131C169.385 282.141 169.325 280.161 169.335 278.171C169.335 276.181 169.325 274.201 169.355 272.201V272.301C169.015 268.271 168.785 264.261 168.655 260.231C168.605 258.221 168.565 256.201 168.575 254.191C168.575 253.181 168.585 252.181 168.615 251.171C168.635 250.161 168.675 249.161 168.715 248.151C168.805 246.141 168.915 244.131 169.095 242.121C169.275 240.121 169.455 238.121 169.745 236.121C170.305 232.141 170.905 228.181 171.425 224.211C171.955 220.241 172.465 216.261 172.925 212.281L173.625 206.321C173.845 204.331 174.075 202.351 174.255 200.361C174.625 196.381 174.895 192.391 174.935 188.401C174.955 186.401 174.865 184.411 174.715 182.421C174.555 180.431 174.265 178.471 173.765 176.531C173.755 176.491 173.085 171.831 173.105 171.871L173.905 176.491L173.925 176.471Z" fill="white"/>
<path d="M170.165 236.63C170.165 236.63 170.235 237.58 171.535 237.57C172.835 237.55 174.975 239.06 177.175 238.99C178.275 238.98 179.755 239.24 181.015 239.22C182.275 239.18 183.725 238.39 185.105 238.33C186.495 238.31 187.745 237.84 189.175 237.58C189.885 237.44 190.605 237.26 191.305 237.07C192.005 236.84 192.715 236.64 193.405 236.38C194.095 236.13 194.785 235.87 195.455 235.58C196.135 235.32 196.795 235.03 197.455 234.75C198.775 234.2 200.045 233.58 201.235 232.94C201.825 232.61 202.405 232.29 202.975 231.97C203.535 231.64 204.075 231.31 204.605 230.99C205.645 230.32 206.635 229.69 207.495 229.04C208.405 228.44 209.135 227.77 209.855 227.25C210.525 226.67 211.115 226.17 211.595 225.75C212.525 224.88 212.195 224.09 212.195 224.09L215.235 225.11C215.235 225.11 212.835 225.11 212.105 226.17C211.725 226.7 211.215 227.3 210.625 228C209.995 228.65 209.305 229.42 208.445 230.15C206.765 231.65 204.595 233.2 202.035 234.42C200.745 235.02 199.405 235.59 197.995 236.07C196.595 236.57 195.125 236.92 193.655 237.22C192.185 237.53 190.705 237.76 189.265 238.05C187.815 238.3 186.405 238.61 185.025 238.88C183.645 239.15 182.295 239.39 181.015 239.49C179.725 239.59 179.055 239.34 177.935 239.31C176.805 239.26 175.225 239.43 174.315 239.31C173.405 239.21 172.615 239.07 171.975 238.95C170.685 238.7 169.795 240.3 169.795 240.3C169.755 240.29 169.915 238.85 169.995 238.14C170.075 237.43 170.115 236.62 170.155 236.62L170.165 236.63Z" fill="white"/>
<path d="M173.735 160.902C173.735 160.902 173.975 161.172 174.805 160.062C175.235 159.512 175.725 158.812 176.295 157.992C176.585 157.582 176.885 157.142 177.215 156.672C177.525 156.192 177.855 155.672 178.205 155.132C179.595 152.962 181.185 150.262 182.845 147.092C184.505 143.912 186.195 140.242 187.845 136.152C189.505 132.072 191.755 128.332 193.235 123.502C194.705 118.672 195.455 112.762 196.645 107.372C197.225 104.682 197.805 101.942 198.315 99.1518C198.565 97.7618 198.805 96.3518 199.005 94.9418L199.075 94.4118L199.145 93.8818C199.195 93.5018 199.245 93.1318 199.315 92.7618C199.435 92.0218 199.585 91.2918 199.735 90.5618C201.015 84.7518 203.165 79.0618 206.155 73.8218C209.145 68.5918 214.385 63.4618 218.925 59.6318C221.195 57.7118 222.235 56.3918 224.755 54.9618C225.955 54.2418 227.255 53.5618 228.385 52.8018C229.545 52.0718 230.645 51.2518 231.745 50.4418C236.045 47.0618 239.685 43.1418 242.705 39.1118C245.745 35.0918 248.245 30.9918 250.345 27.1018C252.455 23.2218 254.155 19.5218 255.605 16.2318C257.035 12.9318 258.205 10.0118 259.155 7.60177C260.105 5.19177 260.855 3.30177 261.395 2.02177C261.935 0.741769 262.255 0.0717691 262.255 0.0717691C262.285 0.0117691 262.355 -0.0182309 262.415 0.0117691C262.475 0.0417691 262.505 0.111769 262.475 0.171769C262.475 0.171769 262.175 0.841769 261.665 2.13177C261.155 3.42177 260.455 5.33177 259.565 7.76177C258.665 10.1918 257.565 13.1418 256.205 16.4918C254.825 19.8318 253.215 23.5818 251.175 27.5418C249.145 31.5018 246.735 35.7118 243.715 39.8618C240.715 44.0218 237.075 48.0918 232.695 51.6518C231.585 52.5118 230.455 53.3818 229.235 54.1718C228.635 54.5918 228.035 54.9518 227.425 55.3218C226.815 55.6918 225.415 55.9418 224.805 56.3118C222.385 57.7318 220.855 59.5018 218.695 61.3718C214.365 65.1118 210.235 68.1718 207.455 73.2618C204.665 78.3518 203.165 85.4718 202.045 91.0518C201.905 91.7518 201.785 92.4518 201.675 93.1418L201.535 94.1718L201.405 95.2718C201.205 96.7218 200.175 97.6618 199.935 99.0818C199.455 101.922 198.875 103.142 198.235 105.862C196.995 111.312 196.205 116.532 194.575 121.382C192.985 126.252 191.395 132.792 189.575 136.882C187.745 140.962 185.835 144.592 184.005 147.732C183.105 149.312 182.185 150.742 181.345 152.062C180.445 153.352 179.655 154.552 178.865 155.592C178.475 156.112 178.115 156.612 177.765 157.072C177.405 157.522 177.065 157.952 176.745 158.342C176.115 159.132 175.575 159.802 175.105 160.312C174.185 161.352 175.765 162.012 175.765 162.012C175.735 162.042 174.905 161.862 174.835 161.832C174.835 161.832 174.045 161.172 173.705 160.892L173.735 160.902Z" fill="white"/>
<path d="M167.775 166.071L164.765 168.421C164.765 168.421 164.715 168.511 164.685 168.541L163.215 169.541L132.775 193.271L120.065 204.341L115.125 208.341C111.845 211.011 108.485 213.601 105.125 216.171C101.765 218.741 98.8751 219.561 95.4851 222.091L87.7551 226.621C87.7051 226.661 71.9151 239.961 71.8751 239.911C71.8351 239.861 82.8051 229.861 85.9951 227.071C87.5851 225.661 97.1651 219.791 98.7851 218.421C100.395 217.041 102.025 215.691 103.665 214.341C105.295 212.981 106.945 211.651 108.585 210.321C110.245 209.001 111.905 207.691 113.585 206.401C116.925 203.801 124.165 199.401 127.535 196.831L148.945 179.981C155.695 174.861 157.535 173.181 164.325 168.121L164.885 167.171L168.285 164.211L167.765 166.101L167.775 166.071Z" fill="white"/>
<path d="M79.135 170.971C79.135 170.971 80.035 173.931 80.765 178.961C80.965 180.221 81.165 181.581 81.405 183.011C81.665 184.441 81.905 185.961 82.245 187.511C82.415 188.291 82.555 189.081 82.785 189.861C82.895 190.251 82.995 190.651 83.105 191.041C83.155 191.231 83.215 191.461 83.265 191.611L83.525 192.181L83.785 192.751C83.885 192.931 83.995 193.101 84.105 193.281C84.325 193.631 84.525 193.981 84.765 194.331C85.265 195.001 85.725 195.711 86.265 196.371C88.355 199.041 90.625 201.561 92.785 203.891C94.955 206.211 97.035 208.341 98.825 210.151C102.415 213.761 103.325 214.601 103.325 214.601C103.325 214.601 102.375 213.801 98.735 210.241C96.915 208.461 94.805 206.361 92.595 204.071C90.395 201.771 88.075 199.281 85.935 196.621C85.385 195.971 84.905 195.261 84.385 194.581C84.145 194.231 83.915 193.851 83.685 193.491C83.575 193.311 83.445 193.131 83.345 192.941L83.075 192.371L82.815 191.801C82.725 191.561 82.695 191.391 82.625 191.181C82.515 190.781 82.395 190.381 82.285 189.981C82.035 189.191 81.885 188.391 81.705 187.611C81.335 186.051 81.065 184.541 80.785 183.101C80.515 181.661 80.295 180.301 80.075 179.041C79.265 174.011 78.875 170.961 78.875 170.961L79.125 170.941L79.135 170.971Z" fill="white"/>
<path d="M176.485 160.463C176.785 160.433 177.065 160.363 177.415 160.303C177.755 160.253 178.135 160.173 178.565 160.053C178.995 159.933 179.455 159.833 179.935 159.643C180.415 159.473 180.935 159.303 181.465 159.053C181.735 158.933 182.005 158.823 182.285 158.703C182.555 158.563 182.835 158.423 183.125 158.283C184.275 157.713 185.475 156.973 186.715 156.153C187.955 155.313 189.225 154.373 190.515 153.353C193.095 151.303 195.585 149.653 198.255 147.313C200.915 144.963 203.775 141.933 206.465 139.933C207.815 138.943 209.135 138.013 210.455 137.213C211.755 136.393 213.045 135.733 214.255 135.153C214.865 134.873 215.465 134.643 216.025 134.403C216.605 134.203 217.145 134.013 217.665 133.833C218.715 133.533 219.625 133.293 220.395 133.183C221.155 133.013 221.765 132.993 222.185 132.943C222.595 132.903 222.815 132.883 222.815 132.883C222.815 132.883 222.595 132.913 222.185 132.973C221.775 133.043 221.165 133.093 220.415 133.293C219.655 133.443 218.755 133.723 217.735 134.053C217.235 134.253 216.705 134.463 216.145 134.683C215.605 134.943 215.015 135.193 214.435 135.503C213.265 136.123 212.015 136.833 210.775 137.693C209.515 138.533 208.245 139.503 206.955 140.543C204.395 142.633 201.805 145.053 199.255 147.503C196.695 149.953 194.715 150.803 192.175 153.003C190.905 154.103 189.065 156.763 187.815 157.683C186.555 158.593 185.325 159.423 184.125 160.093C183.825 160.263 183.525 160.423 183.245 160.583C182.945 160.723 182.655 160.873 182.375 161.003C181.815 161.293 181.245 161.513 180.725 161.723C180.205 161.953 179.685 162.093 179.215 162.243C178.755 162.403 178.715 162.433 178.295 162.513L171.715 161.243C173.205 160.993 176.205 160.483 176.515 160.453L176.485 160.463Z" fill="white"/>
<path d="M175.965 229.533C174.985 229.533 173.955 229.503 172.885 229.433C163.425 228.833 132.065 222.473 131.745 222.403C131.715 222.403 131.685 222.383 131.665 222.373C128.855 221.123 126.355 219.653 124.195 218.153C118.005 213.863 114.525 209.353 114.005 209.243C113.945 209.233 115.915 207.703 115.915 207.703C115.065 209.053 118.635 212.923 123.365 216.453C126.055 218.453 125.345 218.933 131.955 221.613C133.295 221.883 164.315 228.463 173.565 229.053C184.345 229.733 189.585 226.273 194.755 223.593C197.915 221.953 199.685 220.583 203.355 220.173C203.585 220.143 204.675 220.833 204.675 220.833C201.155 221.223 198.565 221.943 195.335 223.613C190.585 226.073 185.055 229.513 175.985 229.513L175.965 229.533Z" fill="white"/>
<path d="M213.515 222.093C212.535 222.093 209.875 220.863 210.325 220.933C210.425 220.943 216.695 222.243 227.585 213.583C233.825 208.623 235.325 204.433 237.075 199.583C238.285 196.203 236.865 193.153 239.805 189.023L243.605 189.683C240.795 193.633 239.785 196.863 238.605 200.133C236.855 205.003 235.205 209.613 228.595 214.863C219.735 221.913 216.835 222.103 213.515 222.103V222.093Z" fill="white"/>
<path d="M220.905 220.191C220.905 220.191 219.695 221.181 223.465 222.351C225.345 222.931 227.605 223.741 230.125 224.821C232.635 225.911 235.435 227.301 238.105 229.401C239.425 230.541 240.555 231.721 241.835 232.951C243.095 234.181 244.375 235.461 245.695 236.791C248.315 239.441 250.985 242.331 253.755 245.311C256.495 248.311 259.355 251.381 262.275 254.491C265.205 257.601 268.175 260.751 271.145 263.911C274.115 267.071 277.115 271.401 279.885 274.631C282.665 277.851 285.255 279.961 287.755 283.141C288.375 283.941 288.995 284.731 289.605 285.511C290.195 286.311 290.785 287.091 291.365 287.881C292.545 289.431 293.605 291.011 294.675 292.511C296.745 295.571 298.625 298.511 300.195 301.321C301.815 304.101 303.115 306.741 304.165 309.121C304.685 310.311 305.095 311.461 305.515 312.491C305.875 313.551 306.175 314.541 306.455 315.421C306.885 317.221 307.025 318.151 307.085 319.141C307.115 319.421 307.285 320.331 307.285 320.331C307.285 320.371 307.425 321.201 307.375 321.201C307.335 321.201 307.295 321.181 307.285 321.141C307.285 321.141 307.175 320.621 306.975 319.661C306.825 318.691 306.385 317.311 305.825 315.581C305.495 314.731 305.115 313.781 304.715 312.751C304.245 311.741 303.775 310.641 303.195 309.491C302.005 307.211 300.645 304.641 298.955 301.941C297.305 299.221 295.335 296.371 293.255 293.351C291.105 290.371 288.855 287.221 286.395 284.041C285.195 282.431 283.915 280.841 282.645 279.201C281.345 277.591 280.035 275.941 278.685 274.311C277.355 272.661 275.995 271.021 274.615 269.381C273.235 267.731 271.855 266.081 270.465 264.431C269.065 262.791 267.655 261.161 266.225 259.541C264.785 257.941 263.335 256.361 261.895 254.791C258.995 251.671 256.025 248.691 253.105 245.851C250.175 243.021 247.345 240.281 244.655 237.691C243.325 236.381 242.035 235.111 240.785 233.871C239.545 232.641 238.345 231.371 237.195 230.361C234.745 228.331 232.055 226.901 229.665 225.711C227.255 224.531 225.045 223.671 223.235 222.951C221.415 222.241 219.605 221.611 218.605 221.281C218.605 221.281 220.185 220.631 220.915 220.201L220.905 220.191Z" fill="white"/>
<path d="M173.445 161.58C173.225 161.49 172.685 161.09 172.155 160.62C172.105 160.58 172.065 160.52 172.045 160.46L171.175 158.09C171.095 157.88 170.095 153.16 170.165 153.37L172.765 160.08C173.535 160.77 174.405 161.46 174.845 161.84C174.845 161.84 173.745 161.7 173.435 161.58H173.445Z" fill="white"/>
<g style="mix-blend-mode:color-burn">
<path d="M167.665 166.391L164.765 168.421C164.765 168.421 164.725 168.511 164.685 168.541L163.215 169.541L132.775 193.271L120.075 202.911L115.705 205.981C112.425 208.651 106.355 213.761 102.995 216.341C99.6351 218.911 98.8651 218.681 95.4751 221.221L87.7751 226.621C87.7251 226.661 71.9351 239.961 71.8951 239.911C71.8551 239.861 82.8251 229.861 86.0151 227.071C87.6051 225.661 97.1851 219.791 98.8051 218.421C100.415 217.041 103.065 215.901 104.695 214.551C106.325 213.191 106.975 212.271 108.625 210.931C110.285 209.611 111.415 209.011 113.095 207.721C116.435 205.121 124.185 199.401 127.555 196.831L148.965 179.981C155.715 174.861 157.555 173.181 164.345 168.121L164.905 167.171L167.655 164.531L167.685 166.411L167.665 166.391Z" fill="white"/>
</g>
<path d="M172.035 161.321C172.145 160.711 172.165 160.161 172.175 159.551C172.185 158.951 172.175 158.351 172.155 157.751C172.125 156.551 172.055 155.341 171.975 154.141C171.815 151.731 171.615 149.321 171.385 146.921V146.941L168.525 135.591C168.145 132.851 167.895 130.101 167.815 127.331C167.775 125.951 167.785 124.571 167.875 123.191C167.985 121.821 168.145 120.431 168.605 119.121C168.165 120.431 168.015 121.821 167.915 123.191C167.835 124.571 167.835 125.951 167.895 127.331C168.005 130.091 168.285 132.841 168.685 135.571L171.665 146.891V146.911C171.925 149.321 172.145 151.721 172.325 154.141C172.415 155.351 172.495 156.551 172.545 157.761C172.565 158.371 172.585 158.971 172.585 159.581C172.585 160.181 172.565 160.831 172.465 161.421L172.065 161.351L172.035 161.321Z" fill="white"/>
<path d="M181.185 143.742L177.125 155.372V155.392L177.105 155.402L172.685 161.962L172.355 161.732L176.905 155.262L176.895 155.292L181.185 143.742Z" fill="white"/>
<path d="M233.925 169.963C233.925 169.963 230.065 170.103 224.265 169.903C221.365 169.793 217.985 169.613 214.395 169.143C212.595 168.903 210.745 168.603 208.895 168.113C207.965 167.873 207.045 167.573 206.155 167.173C205.705 166.983 205.275 166.743 204.855 166.473L204.255 166.063C204.055 165.923 203.855 165.793 203.645 165.703C201.965 164.893 199.985 164.743 198.125 164.663C196.235 164.603 194.375 164.683 192.565 164.773C188.955 164.973 185.575 165.223 182.655 165.163C181.195 165.143 179.855 165.043 178.665 164.853C177.475 164.663 176.455 164.353 175.645 163.973C175.235 163.803 174.905 163.573 174.605 163.393C174.325 163.183 174.095 162.983 173.905 162.823C173.575 162.453 173.405 162.263 173.405 162.263L174.055 161.773C174.055 161.773 174.195 161.943 174.465 162.253C174.625 162.393 174.815 162.563 175.055 162.743C175.315 162.903 175.605 163.113 175.975 163.273C176.695 163.623 177.645 163.923 178.785 164.123C179.925 164.323 181.225 164.433 182.665 164.483C185.535 164.573 188.915 164.363 192.535 164.223C194.345 164.153 196.225 164.103 198.135 164.183C200.035 164.293 202.025 164.453 203.835 165.353C204.075 165.463 204.275 165.593 204.465 165.733L205.055 166.143C205.435 166.413 205.855 166.643 206.285 166.833C207.145 167.233 208.045 167.533 208.955 167.783C210.775 168.293 212.615 168.613 214.405 168.873C217.985 169.383 221.355 169.613 224.245 169.753C230.035 170.023 233.895 169.943 233.895 169.943L233.925 169.963Z" fill="white"/>
<path d="M196.045 172.933C196.045 172.933 190.665 170.593 185.285 168.243C184.595 167.943 183.965 167.593 183.305 167.283C182.655 166.963 182.025 166.643 181.405 166.343C180.175 165.733 179.005 165.213 178.015 164.743C176.035 163.813 174.705 163.203 174.705 163.203L175.015 162.453C175.015 162.453 176.325 163.123 178.305 164.123C179.285 164.633 180.445 165.193 181.655 165.853C182.265 166.183 182.885 166.513 183.525 166.863C184.155 167.193 184.805 167.573 185.455 167.883C190.755 170.413 196.045 172.943 196.045 172.943V172.933Z" fill="white"/>
<path d="M100.105 169.993C100.105 169.993 101.215 170.063 103.155 170.123C104.125 170.153 105.305 170.173 106.665 170.153C107.345 170.143 108.065 170.123 108.815 170.043C109.565 169.973 110.345 169.753 111.155 169.583C114.415 168.863 118.215 168.033 122.355 167.433C123.385 167.283 124.445 167.153 125.515 167.073C126.585 166.963 127.695 166.993 128.765 166.933C130.935 166.803 133.125 166.403 135.295 165.953C136.385 165.733 137.465 165.483 138.575 165.303C139.135 165.223 139.685 165.133 140.305 165.203C140.875 165.303 141.355 165.323 141.915 165.343C144.085 165.363 146.235 165.193 148.305 165.033C152.455 164.683 156.315 164.233 159.615 163.803C162.915 163.373 165.665 162.953 167.565 162.613C168.515 162.443 169.255 162.283 169.755 162.163C170.245 162.043 170.485 161.953 170.485 161.953L170.765 162.713C170.765 162.713 170.475 162.823 169.955 162.943C169.435 163.063 168.675 163.223 167.715 163.383C165.785 163.713 163.035 164.113 159.715 164.513C156.395 164.913 152.525 165.333 148.365 165.643C146.285 165.783 144.125 165.933 141.915 165.903C141.375 165.883 140.765 165.853 140.245 165.743C139.765 165.683 139.205 165.743 138.675 165.813C137.595 165.963 136.505 166.193 135.405 166.403C133.215 166.823 131.005 167.183 128.805 167.273C127.695 167.313 126.625 167.273 125.555 167.373C124.485 167.453 123.435 167.563 122.405 167.703C118.275 168.253 114.465 169.043 111.205 169.723C110.385 169.883 109.615 170.093 108.845 170.153C108.085 170.223 107.365 170.233 106.685 170.243C105.325 170.243 104.145 170.213 103.175 170.173C101.235 170.093 100.125 170.013 100.125 170.013L100.105 169.993Z" fill="white"/>
<path d="M182.025 180.613C182.025 180.613 181.515 179.323 180.755 177.393C180.385 176.423 179.955 175.283 179.525 174.062C179.315 173.443 179.095 172.813 178.915 172.143C178.825 171.803 178.755 171.463 178.645 171.163C178.535 170.883 178.355 170.583 178.175 170.303C177.425 169.173 176.515 168.123 175.655 167.163C174.795 166.203 173.955 165.323 173.235 164.583C171.795 163.093 170.795 162.143 170.795 162.143L171.365 161.562C171.365 161.562 172.335 162.563 173.735 164.103C174.435 164.873 175.245 165.783 176.075 166.783C176.905 167.793 177.785 168.863 178.525 170.073C178.705 170.383 178.875 170.683 179.005 171.043C179.115 171.393 179.165 171.733 179.245 172.053C179.395 172.703 179.595 173.353 179.775 173.973C180.155 175.213 180.535 176.363 180.865 177.343C181.555 179.303 182.005 180.613 182.005 180.613H182.025Z" fill="white"/>
<path d="M105.205 187.292C105.205 187.292 108.045 187.902 108.995 187.462C109.795 187.222 110.465 186.962 111.705 186.442C112.965 185.962 114.405 185.482 115.965 184.932C117.535 184.402 119.175 183.782 120.895 183.012C122.605 182.232 124.395 181.352 126.225 180.392C127.145 179.922 128.085 179.442 129.035 178.952C129.515 178.712 130.005 178.492 130.535 178.322C131.095 178.192 131.585 178.072 132.045 177.802C133.935 176.772 135.765 175.522 137.645 174.372C139.525 173.212 141.455 172.122 143.435 171.202C145.415 170.282 147.425 169.482 149.445 168.942C149.945 168.782 150.455 168.672 150.955 168.572C151.465 168.472 151.955 168.342 152.465 168.302C152.965 168.242 153.465 168.172 153.955 168.112L154.295 168.062L154.615 167.992C154.845 167.942 155.065 167.882 155.295 167.822C157.095 167.312 158.795 166.742 160.355 166.222C163.475 165.142 166.495 162.722 168.285 162.022C168.485 161.942 169.015 161.922 169.015 161.922C168.995 161.992 168.825 162.542 168.725 162.832C168.485 163.492 168.295 164.182 168.295 164.182C167.425 164.602 166.035 164.692 164.795 165.222C163.555 165.752 162.145 166.312 160.595 166.892C159.045 167.472 157.365 168.102 155.515 168.622C155.285 168.682 155.045 168.752 154.805 168.802C154.685 168.832 154.545 168.852 154.415 168.882L154.035 168.932C153.565 168.992 153.085 169.062 152.595 169.122C152.105 169.172 151.625 169.302 151.135 169.402C150.645 169.512 150.145 169.592 149.665 169.742C147.685 170.232 145.705 170.992 143.725 171.842C141.755 172.702 139.795 173.692 137.855 174.752C136.895 175.292 135.935 175.832 134.985 176.382C134.045 176.942 133.115 177.512 132.135 178.022C131.875 178.132 131.625 178.282 131.375 178.352L131.185 178.412C131.125 178.432 131.025 178.452 130.975 178.472C130.855 178.502 130.725 178.522 130.605 178.572C130.115 178.742 129.625 178.972 129.165 179.212C128.225 179.692 127.325 180.242 126.435 180.762C124.655 181.802 122.925 182.832 121.185 183.632C119.475 184.462 117.745 185.072 116.165 185.562C114.595 186.062 113.155 186.522 111.875 186.932C110.615 187.382 106.425 190.402 106.425 190.402L105.905 189.152C106.545 189.002 108.385 188.452 108.275 188.112C108.135 187.692 107.005 187.722 106.575 187.652C106.225 187.602 105.195 187.282 105.195 187.282L105.205 187.292Z" fill="white"/>
<path d="M171.445 164.613C172.065 166.363 173.475 169.203 174.895 172.113C175.595 173.573 176.365 175.153 177.075 176.873C177.425 177.733 177.775 178.633 178.045 179.583C178.305 180.553 178.435 181.553 178.535 182.563C178.715 184.593 178.685 186.693 178.585 188.823C178.485 190.953 178.285 193.103 178.035 195.243C177.485 199.513 177.025 203.793 176.625 207.813C176.235 211.833 175.925 215.583 175.735 218.813C175.545 222.033 175.485 224.733 175.565 226.613C175.615 227.553 175.675 228.293 175.785 228.783C175.815 229.033 175.825 229.033 175.785 228.783C175.675 228.293 175.595 227.553 175.545 226.613C175.435 224.733 175.465 222.033 175.625 218.803C175.775 215.573 176.045 211.813 176.385 207.793C176.735 203.773 177.145 199.473 177.645 195.203C177.875 193.063 178.045 190.923 178.125 188.813C178.205 186.703 178.195 184.623 178.005 182.633C177.905 181.643 177.765 180.663 177.505 179.763C177.235 178.853 176.885 177.973 176.525 177.123C175.795 175.433 175.015 173.873 174.305 172.423C172.855 169.543 171.795 167.493 171.135 165.693L171.475 164.613H171.445Z" fill="white"/>
<path d="M157.515 180.61L169.925 163.23L170.255 163.47L157.515 180.61Z" fill="white"/>
<path d="M222.815 174.931C222.815 174.931 216.335 174.091 214.265 173.561C212.205 173.011 213.485 173.551 209.955 172.611C208.195 172.141 206.275 171.631 204.265 171.051C202.255 170.481 200.125 169.871 197.935 169.251C195.735 168.621 193.475 167.981 191.165 167.321C188.855 166.691 186.505 166.051 184.155 165.411C181.805 164.771 179.455 164.131 177.145 163.511C174.835 162.871 172.575 162.251 170.365 161.571C168.225 160.761 166.175 159.971 164.155 159.481C163.155 159.241 162.145 159.051 161.205 159.101C160.975 159.111 160.745 159.151 160.535 159.221C160.435 159.261 160.335 159.301 160.255 159.361C160.145 159.421 160.065 159.491 159.945 159.551C159.465 159.791 159.025 159.901 158.575 160.021C156.775 160.441 155.105 160.611 153.635 160.781C152.155 160.931 150.865 161.041 149.805 161.111C147.675 161.251 146.455 161.291 146.455 161.291V161.251C146.455 161.251 147.665 161.161 149.785 160.951C150.845 160.841 152.135 160.721 153.605 160.531C155.075 160.341 156.735 160.131 158.495 159.681C158.925 159.561 159.385 159.421 159.755 159.231C159.845 159.181 159.955 159.101 160.045 159.041C160.155 158.961 160.285 158.911 160.405 158.851C160.655 158.771 160.915 158.721 161.175 158.701C162.205 158.631 163.225 158.841 164.255 159.071C166.305 159.561 168.395 160.341 170.515 161.171C172.665 161.851 174.955 162.501 177.245 163.171C179.545 163.841 181.885 164.521 184.225 165.201C186.565 165.871 188.905 166.541 191.215 167.201C193.525 167.821 195.805 168.441 198.015 169.031C200.225 169.621 202.355 170.191 204.375 170.741C206.395 171.271 208.305 171.811 210.055 172.321C213.565 173.321 222.835 174.951 222.835 174.951L222.815 174.931Z" fill="white"/>
<path d="M171.325 159.403C171.495 158.833 172.695 158.233 172.925 157.743C173.235 157.133 173.505 156.383 173.755 155.203C174.245 152.843 174.695 150.463 175.115 148.083V148.103L175.385 136.393C175.755 133.643 176.255 130.923 176.905 128.243C177.235 126.903 177.615 125.573 178.075 124.263C178.545 122.973 179.075 121.683 179.865 120.543C179.085 121.693 178.575 122.983 178.115 124.283C177.665 125.583 177.305 126.923 176.985 128.263C176.355 130.953 175.885 133.673 175.545 136.413L175.375 148.113V148.133C174.975 150.523 174.555 152.903 174.085 155.273C173.845 156.463 173.525 157.713 173.735 158.313C173.995 159.153 174.405 160.063 174.235 160.653C174.195 160.993 173.365 160.993 172.565 161.113C172.025 161.193 171.675 161.353 171.515 161.153C171.435 161.053 171.415 160.713 171.405 160.413C171.385 160.043 171.285 159.553 171.335 159.413L171.325 159.403Z" fill="white"/>
<path d="M168.595 189.651L169.635 167.451C169.965 167.071 170.445 166.761 170.655 166.491C170.795 166.311 171.105 165.691 171.105 165.691L171.635 166.961L170.115 171.411L168.595 189.661V189.651Z" fill="white"/>
<path d="M172.245 162.383L177.655 172.753L171.535 162.783L172.245 162.383Z" fill="white"/>
<path d="M189.785 146.543L177.045 160.373L174.895 160.713L189.785 146.543Z" fill="white"/>
<path d="M114.125 153.122C114.125 153.122 113.415 156.662 112.945 160.222C112.835 161.112 112.745 162.012 112.675 162.842C112.595 163.682 112.075 163.952 112.065 164.622C112.045 165.292 112.865 166.332 113.865 166.632L111.155 166.812C112.115 166.572 111.975 166.162 111.935 165.892C111.885 165.612 111.945 165.252 111.935 164.912C111.905 164.232 112.435 163.352 112.515 162.502C112.595 161.652 112.485 161.062 112.635 160.172C113.205 156.602 114.095 153.102 114.095 153.102H114.135L114.125 153.122Z" fill="white"/>
<path d="M112.735 161.813L112.535 161.763C112.555 161.673 114.755 152.463 117.485 149.333C118.715 147.923 119.845 144.663 120.935 141.513C122.285 137.623 123.685 133.593 125.335 132.773L125.425 132.953C123.845 133.733 122.455 137.723 121.125 141.573C120.025 144.743 118.885 148.023 117.635 149.463C114.935 152.553 112.755 161.713 112.735 161.803V161.813Z" fill="white"/>
<path d="M121.145 215.903C121.145 215.903 120.825 215.693 120.265 215.323C119.705 214.953 118.885 214.453 117.945 213.803C116.995 213.153 115.865 212.443 114.685 211.633C114.085 211.253 113.465 210.873 112.835 210.473C112.555 210.293 112.105 210.063 111.845 209.673C111.585 209.323 111.415 208.953 111.255 208.583C110.705 207.083 110.475 205.563 110.225 204.143C109.985 202.723 110.125 201.533 109.915 200.413C109.715 199.293 109.245 198.213 109.045 197.573C108.855 196.933 108.695 196.583 108.695 196.583L108.735 196.562C108.735 196.562 109.875 198.793 110.265 199.463C110.495 200.093 109.905 199.303 110.135 200.433C110.205 200.933 110.085 201.343 110.195 201.963C110.315 202.633 110.445 203.343 110.575 204.083C110.845 205.493 111.095 207.013 111.635 208.433C111.775 208.783 111.935 209.133 112.155 209.433C112.365 209.753 112.965 209.723 113.285 209.933C113.915 210.343 114.085 209.983 114.695 210.373C115.865 211.203 117.155 212.933 118.085 213.603C119.935 214.963 119.185 214.213 119.185 214.213L121.145 215.903Z" fill="white"/>
<path d="M110.145 198.41C110.145 198.41 110.395 199 110.705 199.9C111.015 200.8 111.725 201.71 112.045 202.94C112.615 204.64 112.995 205.23 112.995 206.85C112.995 206.86 112.555 207.19 112.555 207.19C112.435 206.92 112.395 205.54 112.355 205.44C112.105 204.81 111.835 203.91 111.735 204.09C111.625 204.28 111.685 205.57 111.565 205.66C111.395 205.78 111.605 207.97 111.485 208.03L111.155 208.31L110.965 207.85C110.755 206.93 111.645 204.58 111.325 203.36C111.005 202.13 110.695 200.9 110.475 199.98C110.255 199.05 110.135 198.43 110.135 198.43L110.145 198.41Z" fill="white"/>
<path d="M108.755 210.18C109.705 209.15 109.475 207.64 109.375 206.99C109.215 205.68 109.075 204.29 108.885 202.9C108.525 200.12 108.325 197.34 107.925 195.3C107.725 194.28 107.475 193.45 107.225 192.9C106.985 192.34 106.435 190.41 106.435 190.41L106.805 192.03C106.805 192.03 106.865 192.1 106.965 192.23C107.065 192.36 107.205 192.56 107.365 192.83C107.675 193.37 108.015 194.2 108.265 195.23C108.395 195.74 108.515 196.31 108.595 196.9C108.685 197.5 108.775 198.13 108.835 198.78C108.965 200.09 109.025 201.49 109.105 202.88C109.165 204.28 109.655 205.44 109.935 206.72C110.075 207.35 111.205 207.69 111.155 208.31L108.745 210.18H108.755Z" fill="white"/>
<path d="M124.905 199.242C124.905 199.242 124.215 200.312 123.245 201.952C123.005 202.362 122.735 202.802 122.485 203.282C122.215 203.752 121.965 204.272 121.705 204.802C121.465 205.332 121.255 205.902 121.055 206.502C120.845 207.092 120.575 207.742 120.025 208.192C119.475 208.612 118.805 208.792 118.245 208.972C117.695 209.092 117.895 209.812 118.115 210.312C118.605 211.362 119.275 212.262 119.865 213.002C120.455 213.742 120.965 214.352 121.355 214.762C121.735 215.172 121.975 215.382 121.975 215.382C121.975 215.382 120.945 214.562 120.535 214.182C120.125 213.802 120.325 213.882 119.695 213.152C119.085 212.422 118.335 211.572 117.805 210.452C117.675 210.172 117.555 209.872 117.535 209.522C117.535 209.342 117.555 209.152 117.655 208.972C117.755 208.802 117.995 208.662 118.115 208.632C118.735 208.422 119.325 208.252 119.785 207.882C120.245 207.522 120.495 206.952 120.715 206.382C120.915 205.802 121.145 205.212 121.395 204.662C121.935 203.582 122.545 202.642 123.065 201.842C123.585 201.042 124.065 200.402 124.395 199.952C124.725 199.502 124.915 199.252 124.915 199.252L124.905 199.242Z" fill="white"/>
<path d="M103.425 179.964C103.425 179.964 103.505 179.774 103.595 179.434C103.695 179.094 103.805 178.604 103.855 177.994C103.895 177.394 103.875 176.674 103.635 175.974C103.505 175.624 103.365 175.244 103.275 174.854C103.175 174.464 103.075 174.074 102.945 173.694C102.705 172.924 102.345 172.224 102.005 171.524C101.685 170.824 101.445 170.114 101.485 169.444C101.505 169.114 101.655 168.784 101.885 168.614C102.105 168.434 102.335 168.374 102.525 168.354C102.895 168.314 103.095 168.354 103.095 168.354V168.394C103.095 168.394 102.885 168.394 102.555 168.514C102.395 168.574 102.205 168.654 102.055 168.814C101.905 168.974 101.825 169.204 101.825 169.474C101.825 170.034 102.095 170.684 102.375 171.374C102.675 172.054 103.005 172.834 103.215 173.624C103.325 174.014 103.415 174.424 103.495 174.814C103.565 175.204 103.675 175.564 103.805 175.934C104.035 176.684 104.035 177.414 103.965 178.024C103.895 178.634 103.765 179.134 103.655 179.474C103.545 179.814 103.465 180.004 103.465 180.004L103.425 179.984V179.964Z" fill="white"/>
<path d="M101.195 168.862C101.195 168.862 101.695 171.042 102.445 174.312C102.825 175.952 103.265 177.852 103.775 179.892C104.035 180.912 104.295 181.962 104.595 183.022C104.905 184.072 105.165 185.172 105.725 186.132L106.095 186.882L106.415 187.662C106.625 188.182 106.845 188.692 107.055 189.202C107.455 190.232 107.855 191.232 108.235 192.212C108.985 194.172 109.685 196.002 110.295 197.562C110.895 199.132 111.395 200.432 111.745 201.352C111.915 201.812 112.085 202.162 112.185 202.402C112.295 202.642 112.345 202.772 112.345 202.772C112.345 202.772 112.285 202.642 112.175 202.412C112.065 202.172 111.895 201.832 111.715 201.372C111.335 200.472 110.805 199.172 110.195 197.612C109.585 196.052 108.865 194.232 108.095 192.272C107.705 191.302 107.295 190.292 106.885 189.272C106.675 188.762 106.455 188.262 106.245 187.742L105.915 186.972L105.535 186.222C104.975 185.232 104.715 184.112 104.415 183.062C104.125 182.002 103.865 180.942 103.615 179.922C103.125 177.882 102.695 175.972 102.325 174.332C101.605 171.052 101.185 168.852 101.185 168.852L101.195 168.862Z" fill="white"/>
<path d="M109.645 187.251C109.645 187.251 113.455 186.171 119.095 184.331C120.505 183.861 122.025 183.351 123.605 182.731C124.385 182.411 125.205 182.101 125.975 181.661C126.365 181.461 126.675 181.181 127.005 180.841C127.325 180.521 127.665 180.201 128.005 179.881C129.365 178.611 130.795 177.331 132.365 176.151C133.925 174.971 136.115 172.941 136.115 172.941C136.995 172.471 139.215 172.191 140.165 171.911C141.115 171.631 142.065 171.381 143.015 171.141C144.905 170.661 146.775 170.221 148.585 169.801C152.205 168.961 155.575 168.191 158.455 167.471C161.335 166.751 163.725 166.131 165.365 165.561C166.185 165.281 166.805 165.011 167.215 164.791C167.415 164.671 167.565 164.581 167.655 164.491C167.575 164.581 167.415 164.671 167.225 164.801C166.825 165.031 166.205 165.321 165.385 165.621C163.755 166.221 161.385 166.941 158.505 167.681C155.625 168.421 152.255 169.231 148.655 170.101C146.855 170.541 144.985 170.991 143.105 171.481C142.165 171.731 141.215 171.981 140.275 172.271C139.335 172.551 138.235 172.771 137.365 173.241C135.585 174.061 134.955 175.161 133.405 176.321C131.845 177.471 129.575 178.861 128.215 180.111C127.875 180.421 127.545 180.741 127.215 181.061C126.905 181.381 126.535 181.701 126.125 181.911C125.325 182.351 124.505 182.661 123.715 182.971C122.125 183.581 120.595 184.081 119.175 184.531C116.345 185.431 113.955 186.071 112.285 186.541C110.615 186.991 109.655 187.251 109.655 187.251H109.645Z" fill="white"/>
<path d="M117.145 210.801C117.145 210.801 116.835 210.581 116.775 210.371C116.695 210.171 116.865 209.981 116.805 209.611C116.805 209.421 116.795 209.221 116.785 209.011C116.765 208.791 116.795 208.571 116.835 208.341C116.875 208.111 116.895 207.861 116.955 207.631C117.035 207.401 116.795 207.171 116.875 206.931L118.305 205.781C118.205 205.981 117.955 206.201 117.845 206.411C117.715 206.611 117.665 206.841 117.575 207.071C117.495 207.291 117.415 207.521 117.335 207.731C117.275 207.951 117.235 208.181 117.185 208.401C117.145 208.621 117.075 208.831 117.075 209.031C117.055 209.231 117.045 209.431 117.035 209.611C117.065 209.961 117.035 210.271 117.095 210.481C117.125 210.691 117.155 210.811 117.155 210.811L117.145 210.801Z" fill="white"/>
<path d="M103.325 174.582C103.325 174.582 103.555 174.782 103.855 175.142C103.985 175.332 104.185 175.522 104.305 175.802C104.365 175.942 104.455 176.062 104.495 176.232C104.525 176.372 104.545 176.532 104.535 176.702C104.535 176.872 104.495 177.012 104.475 177.172C104.445 177.322 104.405 177.472 104.375 177.612C104.295 177.892 104.205 178.142 104.115 178.362C103.925 178.792 103.735 179.032 103.735 179.032C103.735 179.032 103.875 178.752 104.005 178.322C104.075 178.102 104.135 177.852 104.205 177.572C104.265 177.302 104.325 176.992 104.325 176.712C104.345 176.572 104.325 176.422 104.305 176.272C104.285 176.152 104.195 176.012 104.145 175.892C104.045 175.632 103.875 175.422 103.765 175.222C103.515 174.842 103.325 174.602 103.325 174.602V174.582Z" fill="white"/>
<path d="M119.435 212.662C119.435 212.662 119.135 212.322 118.805 211.732C118.645 211.432 118.455 211.082 118.355 210.662C118.305 210.452 118.265 210.232 118.265 210.002C118.275 209.762 118.285 209.542 118.445 209.302C118.645 209.102 118.875 209.062 119.075 208.972C119.275 208.892 119.475 208.812 119.645 208.702C119.995 208.492 120.245 208.192 120.385 207.902C120.535 207.612 120.615 207.342 120.655 207.152C120.695 206.962 120.715 206.852 120.715 206.852C120.715 206.852 120.715 206.962 120.685 207.162C120.655 207.352 120.615 207.642 120.485 207.962C120.345 208.272 120.105 208.622 119.735 208.862C119.555 208.982 119.345 209.072 119.135 209.152C118.935 209.232 118.705 209.312 118.585 209.432C118.495 209.572 118.445 209.812 118.445 210.002C118.445 210.212 118.465 210.422 118.515 210.622C118.615 211.022 118.755 211.382 118.895 211.682C119.175 212.292 119.425 212.662 119.425 212.662H119.435Z" fill="white"/>
<path d="M202.395 215.713C202.395 215.713 202.995 216.073 203.395 216.333C203.795 216.593 204.245 217.223 204.975 217.583C205.355 217.753 205.745 217.953 206.195 218.113C206.635 218.293 207.105 218.453 207.585 218.613C208.555 218.943 209.615 219.563 210.695 219.763C211.235 219.843 211.915 219.703 212.445 219.763C212.985 219.803 213.735 220.153 214.245 220.183C214.755 220.203 214.915 219.793 215.395 219.813C215.865 219.813 216.315 219.793 216.725 219.783C217.555 219.783 218.255 219.153 218.745 219.123C219.225 219.093 220.505 218.513 220.505 218.513C220.505 218.513 219.215 219.653 218.735 219.733C218.255 219.793 217.575 219.963 216.745 220.003C216.325 220.033 215.875 220.083 215.405 220.103C214.925 220.103 214.765 220.453 214.245 220.453C213.725 220.433 212.845 220.033 212.295 220.003C211.745 219.953 211.275 220.253 210.725 220.173C209.635 219.953 208.465 219.293 207.475 218.943C206.975 218.783 206.515 218.583 206.075 218.383C205.635 218.193 205.235 217.973 204.865 217.783C204.135 217.373 203.565 216.963 203.185 216.673C202.805 216.373 202.385 215.703 202.385 215.703L202.395 215.713Z" fill="white"/>
<path d="M191.095 199.703C191.095 199.703 191.305 200.363 191.795 201.473C192.275 202.583 193.055 204.133 194.145 205.903C195.225 207.673 196.695 209.603 198.505 211.453C200.305 213.303 200.685 213.803 203.135 215.043C204.365 215.663 205.445 216.793 208.805 217.713C210.105 218.103 212.445 218.123 213.735 218.323C215.015 218.503 215.215 218.873 216.395 218.843C217.575 218.823 218.675 218.623 219.615 218.203C220.555 217.783 221.335 217.223 222.055 216.783C222.775 216.333 223.425 215.983 223.975 215.723C224.525 215.463 224.965 215.283 225.275 215.173C225.575 215.053 225.735 214.993 225.735 214.993C225.735 214.993 225.575 215.063 225.275 215.193C224.975 215.313 224.535 215.503 224.005 215.783C223.465 216.053 222.835 216.433 222.135 216.903C221.435 217.363 220.475 218.343 219.515 218.793C218.565 219.253 217.615 219.093 216.415 219.133C215.215 219.183 214.705 218.603 213.415 218.423C212.135 218.233 210.025 218.453 208.705 218.073C207.385 217.683 205.665 217.493 204.415 216.873C201.925 215.603 200.125 214.073 198.305 212.183C196.475 210.313 195.015 207.813 193.955 206.023C192.885 204.233 192.195 202.633 191.745 201.503C191.295 200.373 191.115 199.703 191.115 199.703H191.095Z" fill="white"/>
<path d="M204.395 220.852C204.555 220.832 203.235 221.202 203.775 221.512C204.305 221.732 204.925 222.032 205.675 222.302C206.415 222.592 207.245 222.912 208.155 223.272C209.065 223.632 210.045 224.012 211.075 224.452C212.115 224.872 213.185 225.352 214.315 225.832C216.575 226.752 219.185 227.092 221.725 227.672C222.995 227.982 224.275 228.292 225.465 228.802C226.075 229.022 226.645 229.342 227.205 229.612C227.765 229.892 228.325 230.172 228.865 230.452C229.945 231.032 230.965 231.642 231.935 232.202C232.885 232.812 233.785 233.372 234.575 233.942C236.175 235.072 237.475 236.072 238.335 236.822C239.205 237.572 239.665 238.032 239.665 238.032L239.635 238.062C239.635 238.062 239.145 237.632 238.235 236.952C237.785 236.612 237.235 236.182 236.585 235.732C235.945 235.262 235.195 234.772 234.385 234.232C233.575 233.692 232.655 233.172 231.715 232.562C230.745 232.012 229.725 231.432 228.665 230.832C228.125 230.552 227.575 230.262 227.015 229.972C226.455 229.682 225.905 229.372 225.315 229.142C224.165 228.602 222.905 228.252 221.665 227.892C220.405 227.552 219.135 227.282 217.885 227.002C216.625 226.742 215.395 226.442 214.235 226.032C213.095 225.592 211.985 225.192 210.945 224.772C209.905 224.362 208.925 223.952 208.015 223.582C207.115 223.202 206.285 222.852 205.555 222.552C204.825 222.252 203.835 222.042 203.325 221.792C202.305 221.272 199.645 221.812 199.645 221.812C199.645 221.812 201.435 221.162 204.395 220.872V220.852Z" fill="white"/>
<path d="M220.905 220.191C220.905 220.191 224.175 218.191 226.005 217.081C226.935 216.551 227.985 215.881 229.115 215.191C230.255 214.501 231.495 213.791 232.645 212.961C233.225 212.541 233.765 212.091 234.265 211.591C234.765 211.101 235.215 210.581 235.535 210.011C235.855 209.421 236.105 208.851 236.305 208.291C236.505 207.731 236.625 207.181 236.785 206.661C237.095 205.621 237.515 204.791 237.845 204.261C238.175 203.721 238.405 203.441 238.405 203.441L238.455 203.471C238.455 203.471 238.335 203.811 238.135 204.401C237.925 204.991 237.665 205.821 237.405 206.841C237.265 207.351 237.095 207.921 236.845 208.501C236.605 209.081 236.235 209.671 235.815 210.191C235.005 211.301 233.885 212.221 232.785 213.131C231.675 214.041 230.535 214.911 229.415 215.651C228.285 216.381 227.175 216.971 226.235 217.481C225.275 217.961 224.475 218.361 223.895 218.611C223.325 218.871 222.985 218.991 222.985 218.991L220.905 220.191Z" fill="white"/>
<path d="M228.535 213.761C228.535 213.761 228.945 213.531 229.655 213.081C230.355 212.621 231.335 211.941 232.445 211.031C233.545 210.121 234.785 208.981 235.915 207.591C237.045 206.211 238.085 204.571 238.675 202.751C238.965 201.841 239.265 200.911 239.615 200.041C239.965 199.161 240.345 198.301 240.735 197.491C241.525 195.861 242.365 194.401 243.175 193.211C243.985 192.011 244.745 191.081 245.355 190.501C245.665 190.211 245.935 190.011 246.135 189.911C246.335 189.811 246.465 189.801 246.465 189.801C246.465 189.801 246.345 189.811 246.145 189.911C245.945 190.011 245.675 190.211 245.375 190.511C244.775 191.091 244.025 192.041 243.235 193.251C242.445 194.461 241.625 195.921 240.865 197.561C240.485 198.381 240.125 199.231 239.785 200.111C239.445 200.991 239.165 201.901 238.885 202.831C238.305 204.691 237.275 206.371 236.135 207.781C234.995 209.201 233.765 210.371 232.655 211.301C230.425 213.171 228.725 214.111 228.725 214.111L228.525 213.761H228.535Z" fill="white"/>
<path d="M240.785 197.713C240.785 197.713 240.865 197.483 241.055 197.103C241.245 196.723 241.535 196.183 241.955 195.593C242.165 195.293 242.405 194.973 242.685 194.663C242.945 194.333 243.275 194.023 243.605 193.703C243.955 193.403 244.315 193.093 244.715 192.823C245.115 192.553 245.525 192.273 245.975 192.073C246.415 191.833 246.875 191.683 247.345 191.533C247.795 191.353 248.285 191.313 248.735 191.213C249.185 191.103 249.635 191.153 250.055 191.113C250.475 191.073 250.875 191.153 251.235 191.183C251.595 191.233 251.935 191.233 252.225 191.333C252.515 191.413 252.765 191.473 252.965 191.523C253.375 191.633 253.605 191.703 253.605 191.703C253.605 191.703 253.365 191.663 252.945 191.603C252.735 191.573 252.485 191.523 252.195 191.483C251.905 191.413 251.575 191.443 251.215 191.413C250.855 191.413 250.465 191.353 250.055 191.413C249.645 191.473 249.215 191.453 248.775 191.563C248.345 191.673 247.875 191.713 247.445 191.903C247.225 191.983 247.005 192.063 246.785 192.143C246.565 192.223 246.355 192.353 246.145 192.453C245.705 192.643 245.315 192.903 244.915 193.153C244.525 193.403 244.165 193.703 243.825 193.983C243.505 194.293 243.165 194.563 242.895 194.873C242.605 195.163 242.355 195.463 242.125 195.743C241.215 196.863 240.765 197.733 240.765 197.733L240.785 197.713Z" fill="white"/>
<path d="M231.045 212.27C231.005 212.55 230.865 212.95 230.605 213.4C230.075 214.31 229.045 215.4 227.725 216.55C227.065 217.13 226.345 217.75 225.565 218.38C224.815 219.04 223.955 219.67 223.315 220.51C223.165 220.72 223.035 220.95 222.995 221.19C222.945 221.43 223.075 221.65 223.255 221.85C223.625 222.26 224.045 222.65 224.475 223.02C225.355 223.76 226.285 224.47 227.225 225.16C229.115 226.53 230.965 227.96 232.685 229.32C233.545 230 234.345 230.7 235.115 231.35C235.885 232 236.575 232.66 237.205 233.27C238.465 234.5 239.435 235.63 239.975 236.51C240.245 236.95 240.405 237.34 240.465 237.61C240.535 237.88 240.515 238.04 240.515 238.04H240.455C240.455 238.04 240.455 237.89 240.365 237.64C240.275 237.39 240.085 237.04 239.775 236.64C239.175 235.83 238.135 234.81 236.835 233.65C236.175 233.08 235.455 232.46 234.705 231.81C233.935 231.17 233.125 230.5 232.285 229.8C230.605 228.4 228.785 226.94 227.015 225.41C226.125 224.65 225.235 223.9 224.355 223.15C223.925 222.77 223.475 222.41 223.085 221.98C222.985 221.86 222.895 221.77 222.815 221.62C222.745 221.47 222.715 221.3 222.735 221.15C222.765 220.83 222.905 220.56 223.045 220.32C223.675 219.37 224.465 218.64 225.225 217.97C225.975 217.3 226.725 216.71 227.395 216.15C228.065 215.59 228.665 215.06 229.175 214.58C229.685 214.1 230.095 213.64 230.385 213.24C230.995 212.43 231.085 211.97 231.045 212.25V212.27Z" fill="white"/>
<path d="M202.955 219.59C202.955 219.59 203.175 219.82 203.615 220.16C203.825 220.34 204.105 220.53 204.405 220.76C204.735 220.95 205.075 221.23 205.495 221.43C205.905 221.67 206.375 221.85 206.865 222.06C207.375 222.24 207.895 222.39 208.485 222.57C209.065 222.75 209.635 223.01 210.195 223.27C210.765 223.53 211.345 223.8 211.925 224.05C213.085 224.56 214.255 225.05 215.385 225.38C215.945 225.54 216.495 225.7 217.025 225.77C217.555 225.88 218.125 225.66 218.595 225.71C219.065 225.69 219.425 225.87 219.805 225.81C220.185 225.77 220.475 225.63 220.745 225.56L222.735 226.24C222.315 226.26 220.585 225.91 220.205 225.99C219.825 226.09 219.255 226.19 218.775 226.24C218.295 226.22 217.625 226.52 217.085 226.41C216.535 226.33 215.855 225.97 215.275 225.78C214.125 225.42 212.735 225.25 211.615 224.65C211.055 224.34 210.725 223.64 210.165 223.38C209.595 223.12 209.035 222.89 208.455 222.78C207.895 222.65 207.285 222.57 206.765 222.38C206.505 222.28 206.255 222.18 206.015 222.08C205.775 221.97 205.565 221.83 205.355 221.71C204.925 221.48 204.585 221.19 204.265 220.96C203.975 220.7 203.705 220.49 203.515 220.27C203.125 219.87 202.945 219.6 202.945 219.6L202.975 219.57L202.955 219.59Z" fill="white"/>
<mask id="mask0_2307_11602" style="mask-type:luminance" maskUnits="userSpaceOnUse" x="202" y="219" width="21" height="8">
<path d="M202.955 219.59C202.955 219.59 203.175 219.82 203.615 220.16C203.825 220.34 204.105 220.53 204.405 220.76C204.735 220.95 205.075 221.23 205.495 221.43C205.905 221.67 206.375 221.85 206.865 222.06C207.375 222.24 207.895 222.39 208.485 222.57C209.065 222.75 209.635 223.01 210.195 223.27C210.765 223.53 211.345 223.8 211.925 224.05C213.085 224.56 214.255 225.05 215.385 225.38C215.945 225.54 216.495 225.7 217.025 225.77C217.555 225.88 218.125 225.66 218.595 225.71C219.065 225.69 219.425 225.87 219.805 225.81C220.185 225.77 220.475 225.63 220.745 225.56L222.735 226.24C222.315 226.26 220.585 225.91 220.205 225.99C219.825 226.09 219.255 226.19 218.775 226.24C218.295 226.22 217.625 226.52 217.085 226.41C216.535 226.33 215.855 225.97 215.275 225.78C214.125 225.42 212.735 225.25 211.615 224.65C211.055 224.34 210.725 223.64 210.165 223.38C209.595 223.12 209.035 222.89 208.455 222.78C207.895 222.65 207.285 222.57 206.765 222.38C206.505 222.28 206.255 222.18 206.015 222.08C205.775 221.97 205.565 221.83 205.355 221.71C204.925 221.48 204.585 221.19 204.265 220.96C203.975 220.7 203.705 220.49 203.515 220.27C203.125 219.87 202.945 219.6 202.945 219.6L202.975 219.57L202.955 219.59Z" fill="white"/>
</mask>
<g mask="url(#mask0_2307_11602)">
<path d="M204.735 219.59H202.925V226.54H204.735V219.59Z" fill="white"/>
<path d="M208.355 219.59H204.735V226.54H208.355V219.59Z" fill="white"/>
<path d="M210.485 219.59H208.355V226.54H210.485V219.59Z" fill="white"/>
<path d="M212.395 219.59H210.485V226.54H212.395V219.59Z" fill="white"/>
<path d="M213.795 219.59H212.405V226.54H213.795V219.59Z" fill="white"/>
<path d="M217.295 219.59H213.785V226.54H217.295V219.59Z" fill="white"/>
<path d="M222.735 219.59H217.305V226.54H222.735V219.59Z" fill="white"/>
</g>
<path d="M217.335 226.85C217.205 226.85 217.095 226.84 216.985 226.82C216.615 226.77 216.185 226.59 215.775 226.43C215.555 226.34 215.335 226.25 215.135 226.19C214.755 226.07 214.355 225.97 213.935 225.87C213.075 225.66 212.195 225.45 211.405 225.02C211.075 224.84 210.825 224.57 210.595 224.31C210.385 224.08 210.195 223.86 209.975 223.76C209.375 223.49 208.875 223.29 208.355 223.19C208.185 223.15 208.015 223.12 207.845 223.08C207.435 223 207.005 222.91 206.605 222.77L206.345 222.67C206.165 222.6 205.995 222.53 205.825 222.46C205.655 222.38 205.495 222.29 205.345 222.2C205.275 222.16 205.205 222.12 205.135 222.08C204.775 221.89 204.475 221.66 204.215 221.46L204.005 221.3C203.875 221.19 203.785 221.11 203.705 221.04C203.505 220.87 203.335 220.71 203.195 220.56C202.795 220.15 202.595 219.86 202.595 219.85L202.395 219.56L202.945 219.07L203.245 219.32C203.245 219.32 203.465 219.54 203.865 219.86C204.015 219.99 204.185 220.11 204.375 220.25L204.645 220.45C204.735 220.5 204.875 220.59 205.015 220.68C205.225 220.82 205.435 220.96 205.665 221.07C206.015 221.27 206.375 221.43 206.775 221.59L207.025 221.69C207.425 221.83 207.855 221.96 208.325 222.1L208.595 222.18C209.205 222.37 209.805 222.64 210.365 222.9L210.945 223.17C211.315 223.34 211.695 223.52 212.075 223.68C213.115 224.14 214.335 224.66 215.485 225L215.635 225.04C216.135 225.18 216.615 225.31 217.065 225.38C217.385 225.44 217.605 225.39 217.855 225.36C218.125 225.32 218.385 225.29 218.625 225.32C218.855 225.32 219.065 225.35 219.255 225.38C219.415 225.41 219.575 225.45 219.735 225.42C219.955 225.4 220.145 225.33 220.325 225.27C220.435 225.24 220.535 225.2 220.635 225.18L220.755 225.15L224.895 226.57L222.735 226.66C222.465 226.66 222.065 226.6 221.615 226.54C221.155 226.47 220.625 226.4 220.355 226.4C219.845 226.52 219.255 226.62 218.795 226.66C218.565 226.66 218.365 226.7 218.155 226.74C217.905 226.79 217.615 226.85 217.325 226.85H217.335Z" fill="white"/>
<path d="M117.675 211.481C117.675 211.481 117.215 211.011 117.145 210.801C117.065 210.601 117.195 210.551 117.135 210.181C117.135 209.991 117.315 209.911 117.305 209.691C117.285 209.471 117.315 209.251 117.355 209.021C117.395 208.791 117.595 207.801 117.665 207.561C117.745 207.331 117.745 206.591 118.295 205.781L120.875 203.641C119.775 204.941 119.265 205.651 118.395 206.401C118.265 206.601 118.375 207.341 118.295 207.561C118.215 207.781 118.295 208.211 118.725 208.421C118.265 208.581 117.765 208.861 117.715 209.081C117.675 209.301 117.605 209.511 117.605 209.711C117.585 209.911 117.575 210.111 117.565 210.291C117.595 210.641 117.565 210.951 117.625 211.161C117.655 211.371 117.685 211.491 117.685 211.491L117.675 211.481Z" fill="white"/>
<g style="mix-blend-mode:color-dodge">
<path d="M169.405 166.85C169.905 171.3 169.945 185.84 169.495 199.39C169.045 212.9 168.275 220.28 167.775 215.85C167.275 211.41 167.235 196.86 167.685 183.31C168.135 169.79 168.905 162.43 169.405 166.85Z" fill="white"/>
</g>
<g style="mix-blend-mode:color-dodge">
<path d="M102.015 171.542C102.995 172.412 104.475 176.802 105.315 181.352C106.155 185.892 106.045 188.872 105.065 188.002C104.085 187.132 102.605 182.742 101.765 178.192C100.925 173.642 101.035 170.672 102.015 171.542Z" fill="white"/>
</g>
</svg>
