<svg width="52" height="52" viewBox="0 0 52 52" fill="none" xmlns="http://www.w3.org/2000/svg">
<circle cx="26" cy="26" r="22.6667" fill="#F1F0EB" stroke="#1A1A1A" stroke-width="5.33333"/>
<mask id="path-2-outside-1_3613_12099" maskUnits="userSpaceOnUse" x="11.6665" y="13" width="29" height="27" fill="black">
<rect fill="white" x="11.6665" y="13" width="29" height="27"/>
<path d="M39.1643 31.6473C38.9843 31.0337 38.6509 30.5203 38.328 30.0242C38.0354 29.5739 37.7589 29.1483 37.6123 28.6764C37.5932 28.6145 37.5616 28.5601 37.522 28.5137C37.7719 24.7053 37.5789 21.5111 36.9257 18.5859C36.3288 15.9126 34.9959 15.0336 32.328 15.5631C31.1615 15.7907 30.2522 15.5977 29.38 14.9297C27.7873 13.7105 26.8297 13.6944 25.1133 14.8579C24.0048 15.6058 23.2193 15.7901 22.4028 15.4913C21.1156 15.0218 20.0461 15.3429 19.2228 16.4464C18.5238 17.3835 17.6307 17.7057 16.4907 17.4299C15.6445 17.2276 14.4668 17.3074 13.6892 18.8612C13.3812 19.4785 13.1449 20.2282 12.9872 21.0904C12.4187 24.2098 12.6006 27.4764 13.5761 31.6831C13.7814 32.5683 14.2732 33.2561 14.9591 33.6198C15.3284 33.8153 15.7441 33.9124 16.1845 33.9124C16.5865 33.9124 17.009 33.8307 17.4333 33.6668C17.9888 33.4522 18.4168 33.2215 18.7323 32.9784C19.2463 33.9204 20.3362 34.4227 21.3401 34.4932C21.3927 34.4969 21.4514 34.4988 21.5158 34.4988C22.2902 34.4988 23.8372 34.221 24.6667 33.467C24.7168 33.4219 24.7557 33.3724 24.799 33.3248C24.984 33.6161 25.2005 33.8846 25.4467 34.0652C25.8561 34.3664 26.3652 34.5297 26.9225 34.5718C26.8347 35.6184 27.0697 36.9117 27.7557 37.7165C28.1819 38.2169 28.7398 38.4798 29.3726 38.4798C29.4048 38.4798 29.4369 38.4792 29.4691 38.4779C31.2703 38.4025 33.0951 38.2596 34.8592 38.1204L36.0264 38.0288C37.6482 37.9051 38.594 37.1066 38.9181 35.588L39.0004 35.2083C39.2435 34.106 39.5181 32.8559 39.1643 31.6473ZM25.237 31.9349C25.1825 29.9778 25.1949 27.9823 25.2067 26.0525C25.2135 24.9904 25.2203 23.9271 25.2159 22.8651C25.2141 22.377 25.1529 21.8958 25.0941 21.4313C25.0675 21.2247 25.0415 21.0181 25.0205 20.8115C24.9951 20.5597 24.7737 20.3723 24.5182 20.4014C24.2659 20.4267 24.0828 20.6513 24.1081 20.903C24.1298 21.1183 24.157 21.3329 24.1842 21.5469C24.2423 22.0047 24.2968 22.437 24.2986 22.8688C24.303 23.9284 24.2962 24.9879 24.2894 26.0475C24.2776 27.9848 24.2652 29.9883 24.3197 31.9609C24.3215 32.0196 24.3438 32.0846 24.3512 32.1458C24.3209 32.2058 24.2999 32.2714 24.298 32.345C24.2943 32.4965 24.2127 32.6413 24.05 32.7891C23.4518 33.3334 22.0595 33.6365 21.4051 33.579C20.4729 33.5134 19.4325 32.9654 19.3521 31.9176C19.2148 30.1324 19.1937 28.3015 19.1727 26.53C19.1622 25.6801 19.1523 24.829 19.1306 23.9791C19.1195 23.5548 19.0873 23.1298 19.0558 22.7055L19.015 22.1339C18.9983 21.8816 18.7805 21.6799 18.5276 21.7059C18.2752 21.722 18.0834 21.9403 18.0995 22.1933L18.141 22.7735C18.1713 23.1836 18.2022 23.5931 18.2133 24.0032C18.235 24.8488 18.2455 25.6949 18.2554 26.5405C18.2764 28.3207 18.2981 30.1609 18.436 31.9689C18.4286 32.0734 18.0828 32.4322 17.103 32.8108C16.4554 33.0613 15.8628 33.0606 15.3884 32.8089C14.9338 32.5677 14.6165 32.1068 14.4699 31.4753C13.5235 27.3966 13.3447 24.2444 13.889 21.255C14.0313 20.4787 14.2398 19.81 14.5094 19.2713C14.9344 18.422 15.4781 18.1294 16.2754 18.3218C17.7655 18.68 19.0422 18.2235 19.9576 16.9944C20.5409 16.2132 21.1787 16.0233 22.0879 16.353C23.497 16.8695 24.7186 16.2305 25.626 15.6175C27.0302 14.6674 27.538 14.6761 28.8215 15.6577C29.9064 16.489 31.078 16.7451 32.5043 16.4618C34.6569 16.04 35.547 16.6239 36.0295 18.7863C36.7655 22.0814 36.901 25.7382 36.4563 30.2963C36.3777 31.1054 35.9262 31.8118 35.2179 32.2336C34.4565 32.687 33.5058 32.7477 32.6744 32.3982C32.1134 32.1619 31.8598 31.7462 31.8524 31.0504L31.8338 29.2986C31.8122 27.2234 31.7899 25.1475 31.7485 23.0729C31.7379 22.5675 31.678 22.0678 31.6198 21.584C31.5938 21.3663 31.5672 21.1486 31.5462 20.9309C31.5215 20.6785 31.2957 20.5096 31.0446 20.5189C30.7922 20.5443 30.6085 20.7688 30.6332 21.0205C30.6549 21.2451 30.6821 21.469 30.7093 21.6929C30.7668 22.1754 30.8219 22.6319 30.8312 23.0902C30.8726 25.163 30.8942 27.2351 30.9165 29.3079L30.932 30.7361C30.9338 31.6324 30.1674 32.6017 28.9792 33.2035C27.8442 33.7794 26.6702 33.827 25.9891 33.3272C25.6019 33.0415 25.2493 32.3901 25.237 31.9349ZM38.1047 35.0128L38.0206 35.3981C37.7812 36.5252 37.1824 37.0231 35.9565 37.1171L34.7874 37.2074C33.0313 37.3453 31.2159 37.4889 29.4314 37.5618C29.0398 37.5792 28.72 37.4338 28.4541 37.1227C27.9308 36.5091 27.7502 35.387 27.8485 34.5309C28.3532 34.4505 28.8765 34.2848 29.3955 34.0225C30.2151 33.6068 30.8664 33.0285 31.2951 32.3883C31.5716 32.8299 31.9637 33.094 32.3206 33.2437C33.421 33.7058 34.6798 33.6241 35.6899 33.0204C36.6511 32.4483 37.2635 31.4871 37.3711 30.3854C37.3754 30.3384 37.3779 30.2945 37.3828 30.2475C37.4416 30.3396 37.5004 30.4324 37.5598 30.5233C37.8591 30.9848 38.1424 31.4196 38.2841 31.9046C38.5723 32.8887 38.3348 33.9681 38.1047 35.0128Z"/>
</mask>
<path d="M39.1643 31.6473C38.9843 31.0337 38.6509 30.5203 38.328 30.0242C38.0354 29.5739 37.7589 29.1483 37.6123 28.6764C37.5932 28.6145 37.5616 28.5601 37.522 28.5137C37.7719 24.7053 37.5789 21.5111 36.9257 18.5859C36.3288 15.9126 34.9959 15.0336 32.328 15.5631C31.1615 15.7907 30.2522 15.5977 29.38 14.9297C27.7873 13.7105 26.8297 13.6944 25.1133 14.8579C24.0048 15.6058 23.2193 15.7901 22.4028 15.4913C21.1156 15.0218 20.0461 15.3429 19.2228 16.4464C18.5238 17.3835 17.6307 17.7057 16.4907 17.4299C15.6445 17.2276 14.4668 17.3074 13.6892 18.8612C13.3812 19.4785 13.1449 20.2282 12.9872 21.0904C12.4187 24.2098 12.6006 27.4764 13.5761 31.6831C13.7814 32.5683 14.2732 33.2561 14.9591 33.6198C15.3284 33.8153 15.7441 33.9124 16.1845 33.9124C16.5865 33.9124 17.009 33.8307 17.4333 33.6668C17.9888 33.4522 18.4168 33.2215 18.7323 32.9784C19.2463 33.9204 20.3362 34.4227 21.3401 34.4932C21.3927 34.4969 21.4514 34.4988 21.5158 34.4988C22.2902 34.4988 23.8372 34.221 24.6667 33.467C24.7168 33.4219 24.7557 33.3724 24.799 33.3248C24.984 33.6161 25.2005 33.8846 25.4467 34.0652C25.8561 34.3664 26.3652 34.5297 26.9225 34.5718C26.8347 35.6184 27.0697 36.9117 27.7557 37.7165C28.1819 38.2169 28.7398 38.4798 29.3726 38.4798C29.4048 38.4798 29.4369 38.4792 29.4691 38.4779C31.2703 38.4025 33.0951 38.2596 34.8592 38.1204L36.0264 38.0288C37.6482 37.9051 38.594 37.1066 38.9181 35.588L39.0004 35.2083C39.2435 34.106 39.5181 32.8559 39.1643 31.6473ZM25.237 31.9349C25.1825 29.9778 25.1949 27.9823 25.2067 26.0525C25.2135 24.9904 25.2203 23.9271 25.2159 22.8651C25.2141 22.377 25.1529 21.8958 25.0941 21.4313C25.0675 21.2247 25.0415 21.0181 25.0205 20.8115C24.9951 20.5597 24.7737 20.3723 24.5182 20.4014C24.2659 20.4267 24.0828 20.6513 24.1081 20.903C24.1298 21.1183 24.157 21.3329 24.1842 21.5469C24.2423 22.0047 24.2968 22.437 24.2986 22.8688C24.303 23.9284 24.2962 24.9879 24.2894 26.0475C24.2776 27.9848 24.2652 29.9883 24.3197 31.9609C24.3215 32.0196 24.3438 32.0846 24.3512 32.1458C24.3209 32.2058 24.2999 32.2714 24.298 32.345C24.2943 32.4965 24.2127 32.6413 24.05 32.7891C23.4518 33.3334 22.0595 33.6365 21.4051 33.579C20.4729 33.5134 19.4325 32.9654 19.3521 31.9176C19.2148 30.1324 19.1937 28.3015 19.1727 26.53C19.1622 25.6801 19.1523 24.829 19.1306 23.9791C19.1195 23.5548 19.0873 23.1298 19.0558 22.7055L19.015 22.1339C18.9983 21.8816 18.7805 21.6799 18.5276 21.7059C18.2752 21.722 18.0834 21.9403 18.0995 22.1933L18.141 22.7735C18.1713 23.1836 18.2022 23.5931 18.2133 24.0032C18.235 24.8488 18.2455 25.6949 18.2554 26.5405C18.2764 28.3207 18.2981 30.1609 18.436 31.9689C18.4286 32.0734 18.0828 32.4322 17.103 32.8108C16.4554 33.0613 15.8628 33.0606 15.3884 32.8089C14.9338 32.5677 14.6165 32.1068 14.4699 31.4753C13.5235 27.3966 13.3447 24.2444 13.889 21.255C14.0313 20.4787 14.2398 19.81 14.5094 19.2713C14.9344 18.422 15.4781 18.1294 16.2754 18.3218C17.7655 18.68 19.0422 18.2235 19.9576 16.9944C20.5409 16.2132 21.1787 16.0233 22.0879 16.353C23.497 16.8695 24.7186 16.2305 25.626 15.6175C27.0302 14.6674 27.538 14.6761 28.8215 15.6577C29.9064 16.489 31.078 16.7451 32.5043 16.4618C34.6569 16.04 35.547 16.6239 36.0295 18.7863C36.7655 22.0814 36.901 25.7382 36.4563 30.2963C36.3777 31.1054 35.9262 31.8118 35.2179 32.2336C34.4565 32.687 33.5058 32.7477 32.6744 32.3982C32.1134 32.1619 31.8598 31.7462 31.8524 31.0504L31.8338 29.2986C31.8122 27.2234 31.7899 25.1475 31.7485 23.0729C31.7379 22.5675 31.678 22.0678 31.6198 21.584C31.5938 21.3663 31.5672 21.1486 31.5462 20.9309C31.5215 20.6785 31.2957 20.5096 31.0446 20.5189C30.7922 20.5443 30.6085 20.7688 30.6332 21.0205C30.6549 21.2451 30.6821 21.469 30.7093 21.6929C30.7668 22.1754 30.8219 22.6319 30.8312 23.0902C30.8726 25.163 30.8942 27.2351 30.9165 29.3079L30.932 30.7361C30.9338 31.6324 30.1674 32.6017 28.9792 33.2035C27.8442 33.7794 26.6702 33.827 25.9891 33.3272C25.6019 33.0415 25.2493 32.3901 25.237 31.9349ZM38.1047 35.0128L38.0206 35.3981C37.7812 36.5252 37.1824 37.0231 35.9565 37.1171L34.7874 37.2074C33.0313 37.3453 31.2159 37.4889 29.4314 37.5618C29.0398 37.5792 28.72 37.4338 28.4541 37.1227C27.9308 36.5091 27.7502 35.387 27.8485 34.5309C28.3532 34.4505 28.8765 34.2848 29.3955 34.0225C30.2151 33.6068 30.8664 33.0285 31.2951 32.3883C31.5716 32.8299 31.9637 33.094 32.3206 33.2437C33.421 33.7058 34.6798 33.6241 35.6899 33.0204C36.6511 32.4483 37.2635 31.4871 37.3711 30.3854C37.3754 30.3384 37.3779 30.2945 37.3828 30.2475C37.4416 30.3396 37.5004 30.4324 37.5598 30.5233C37.8591 30.9848 38.1424 31.4196 38.2841 31.9046C38.5723 32.8887 38.3348 33.9681 38.1047 35.0128Z" fill="black"/>
<path d="M39.1643 31.6473C38.9843 31.0337 38.6509 30.5203 38.328 30.0242C38.0354 29.5739 37.7589 29.1483 37.6123 28.6764C37.5932 28.6145 37.5616 28.5601 37.522 28.5137C37.7719 24.7053 37.5789 21.5111 36.9257 18.5859C36.3288 15.9126 34.9959 15.0336 32.328 15.5631C31.1615 15.7907 30.2522 15.5977 29.38 14.9297C27.7873 13.7105 26.8297 13.6944 25.1133 14.8579C24.0048 15.6058 23.2193 15.7901 22.4028 15.4913C21.1156 15.0218 20.0461 15.3429 19.2228 16.4464C18.5238 17.3835 17.6307 17.7057 16.4907 17.4299C15.6445 17.2276 14.4668 17.3074 13.6892 18.8612C13.3812 19.4785 13.1449 20.2282 12.9872 21.0904C12.4187 24.2098 12.6006 27.4764 13.5761 31.6831C13.7814 32.5683 14.2732 33.2561 14.9591 33.6198C15.3284 33.8153 15.7441 33.9124 16.1845 33.9124C16.5865 33.9124 17.009 33.8307 17.4333 33.6668C17.9888 33.4522 18.4168 33.2215 18.7323 32.9784C19.2463 33.9204 20.3362 34.4227 21.3401 34.4932C21.3927 34.4969 21.4514 34.4988 21.5158 34.4988C22.2902 34.4988 23.8372 34.221 24.6667 33.467C24.7168 33.4219 24.7557 33.3724 24.799 33.3248C24.984 33.6161 25.2005 33.8846 25.4467 34.0652C25.8561 34.3664 26.3652 34.5297 26.9225 34.5718C26.8347 35.6184 27.0697 36.9117 27.7557 37.7165C28.1819 38.2169 28.7398 38.4798 29.3726 38.4798C29.4048 38.4798 29.4369 38.4792 29.4691 38.4779C31.2703 38.4025 33.0951 38.2596 34.8592 38.1204L36.0264 38.0288C37.6482 37.9051 38.594 37.1066 38.9181 35.588L39.0004 35.2083C39.2435 34.106 39.5181 32.8559 39.1643 31.6473ZM25.237 31.9349C25.1825 29.9778 25.1949 27.9823 25.2067 26.0525C25.2135 24.9904 25.2203 23.9271 25.2159 22.8651C25.2141 22.377 25.1529 21.8958 25.0941 21.4313C25.0675 21.2247 25.0415 21.0181 25.0205 20.8115C24.9951 20.5597 24.7737 20.3723 24.5182 20.4014C24.2659 20.4267 24.0828 20.6513 24.1081 20.903C24.1298 21.1183 24.157 21.3329 24.1842 21.5469C24.2423 22.0047 24.2968 22.437 24.2986 22.8688C24.303 23.9284 24.2962 24.9879 24.2894 26.0475C24.2776 27.9848 24.2652 29.9883 24.3197 31.9609C24.3215 32.0196 24.3438 32.0846 24.3512 32.1458C24.3209 32.2058 24.2999 32.2714 24.298 32.345C24.2943 32.4965 24.2127 32.6413 24.05 32.7891C23.4518 33.3334 22.0595 33.6365 21.4051 33.579C20.4729 33.5134 19.4325 32.9654 19.3521 31.9176C19.2148 30.1324 19.1937 28.3015 19.1727 26.53C19.1622 25.6801 19.1523 24.829 19.1306 23.9791C19.1195 23.5548 19.0873 23.1298 19.0558 22.7055L19.015 22.1339C18.9983 21.8816 18.7805 21.6799 18.5276 21.7059C18.2752 21.722 18.0834 21.9403 18.0995 22.1933L18.141 22.7735C18.1713 23.1836 18.2022 23.5931 18.2133 24.0032C18.235 24.8488 18.2455 25.6949 18.2554 26.5405C18.2764 28.3207 18.2981 30.1609 18.436 31.9689C18.4286 32.0734 18.0828 32.4322 17.103 32.8108C16.4554 33.0613 15.8628 33.0606 15.3884 32.8089C14.9338 32.5677 14.6165 32.1068 14.4699 31.4753C13.5235 27.3966 13.3447 24.2444 13.889 21.255C14.0313 20.4787 14.2398 19.81 14.5094 19.2713C14.9344 18.422 15.4781 18.1294 16.2754 18.3218C17.7655 18.68 19.0422 18.2235 19.9576 16.9944C20.5409 16.2132 21.1787 16.0233 22.0879 16.353C23.497 16.8695 24.7186 16.2305 25.626 15.6175C27.0302 14.6674 27.538 14.6761 28.8215 15.6577C29.9064 16.489 31.078 16.7451 32.5043 16.4618C34.6569 16.04 35.547 16.6239 36.0295 18.7863C36.7655 22.0814 36.901 25.7382 36.4563 30.2963C36.3777 31.1054 35.9262 31.8118 35.2179 32.2336C34.4565 32.687 33.5058 32.7477 32.6744 32.3982C32.1134 32.1619 31.8598 31.7462 31.8524 31.0504L31.8338 29.2986C31.8122 27.2234 31.7899 25.1475 31.7485 23.0729C31.7379 22.5675 31.678 22.0678 31.6198 21.584C31.5938 21.3663 31.5672 21.1486 31.5462 20.9309C31.5215 20.6785 31.2957 20.5096 31.0446 20.5189C30.7922 20.5443 30.6085 20.7688 30.6332 21.0205C30.6549 21.2451 30.6821 21.469 30.7093 21.6929C30.7668 22.1754 30.8219 22.6319 30.8312 23.0902C30.8726 25.163 30.8942 27.2351 30.9165 29.3079L30.932 30.7361C30.9338 31.6324 30.1674 32.6017 28.9792 33.2035C27.8442 33.7794 26.6702 33.827 25.9891 33.3272C25.6019 33.0415 25.2493 32.3901 25.237 31.9349ZM38.1047 35.0128L38.0206 35.3981C37.7812 36.5252 37.1824 37.0231 35.9565 37.1171L34.7874 37.2074C33.0313 37.3453 31.2159 37.4889 29.4314 37.5618C29.0398 37.5792 28.72 37.4338 28.4541 37.1227C27.9308 36.5091 27.7502 35.387 27.8485 34.5309C28.3532 34.4505 28.8765 34.2848 29.3955 34.0225C30.2151 33.6068 30.8664 33.0285 31.2951 32.3883C31.5716 32.8299 31.9637 33.094 32.3206 33.2437C33.421 33.7058 34.6798 33.6241 35.6899 33.0204C36.6511 32.4483 37.2635 31.4871 37.3711 30.3854C37.3754 30.3384 37.3779 30.2945 37.3828 30.2475C37.4416 30.3396 37.5004 30.4324 37.5598 30.5233C37.8591 30.9848 38.1424 31.4196 38.2841 31.9046C38.5723 32.8887 38.3348 33.9681 38.1047 35.0128Z" stroke="black" stroke-width="1.33333" mask="url(#path-2-outside-1_3613_12099)"/>
</svg>
