<svg width="52" height="52" viewBox="0 0 52 52" fill="none" xmlns="http://www.w3.org/2000/svg">
<circle cx="26.0289" cy="26.0289" r="22.6994" fill="#11FF49" stroke="#1A1A1A" stroke-width="5.34104"/>
<mask id="path-2-outside-1_2695_29924" maskUnits="userSpaceOnUse" x="11.6768" y="13.0117" width="29" height="27" fill="black">
<rect fill="white" x="11.6768" y="13.0117" width="29" height="27"/>
<path d="M39.2128 31.6845C39.0326 31.07 38.6987 30.5558 38.3753 30.0591C38.0823 29.6081 37.8054 29.1819 37.6586 28.7093C37.6394 28.6473 37.6078 28.5928 37.5682 28.5464C37.8184 24.7324 37.6252 21.5336 36.9711 18.6043C36.3733 15.927 35.0384 15.0468 32.3667 15.577C31.1984 15.805 30.2879 15.6117 29.4144 14.9427C27.8194 13.7218 26.8605 13.7057 25.1415 14.8709C24.0315 15.6198 23.2448 15.8044 22.4271 15.5052C21.138 15.035 20.067 15.3565 19.2425 16.4616C18.5426 17.4001 17.6481 17.7228 16.5064 17.4465C15.659 17.244 14.4796 17.3239 13.701 18.8799C13.3925 19.4981 13.1559 20.2489 12.9979 21.1124C12.4286 24.2363 12.6108 27.5076 13.5876 31.7204C13.7933 32.6068 14.2857 33.2957 14.9727 33.6599C15.3425 33.8556 15.7588 33.9529 16.1998 33.9529C16.6025 33.9529 17.0255 33.8711 17.4505 33.707C18.0067 33.492 18.4354 33.261 18.7513 33.0175C19.2661 33.9609 20.3575 34.4639 21.3629 34.5345C21.4155 34.5383 21.4744 34.5401 21.5388 34.5401C22.3144 34.5401 23.8636 34.262 24.6943 33.5069C24.7444 33.4617 24.7835 33.4121 24.8268 33.3644C25.012 33.6562 25.2289 33.925 25.4754 34.1059C25.8855 34.4076 26.3953 34.5711 26.9534 34.6132C26.8654 35.6613 27.1008 36.9566 27.7878 37.7625C28.2146 38.2636 28.7733 38.5269 29.407 38.5269C29.4392 38.5269 29.4714 38.5262 29.5036 38.525C31.3075 38.4494 33.1348 38.3063 34.9015 38.167L36.0704 38.0753C37.6946 37.9514 38.6417 37.1517 38.9663 35.631L39.0487 35.2506C39.2921 34.1468 39.5671 32.8949 39.2128 31.6845ZM25.2654 31.9725C25.2109 30.0126 25.2233 28.0143 25.235 26.0816C25.2419 25.018 25.2487 23.9532 25.2443 22.8896C25.2425 22.4009 25.1812 21.9189 25.1223 21.4537C25.0957 21.2468 25.0697 21.0399 25.0486 20.833C25.0232 20.5809 24.8014 20.3932 24.5456 20.4223C24.2929 20.4477 24.1095 20.6726 24.1349 20.9247C24.1566 21.1403 24.1838 21.3552 24.2111 21.5696C24.2693 22.0279 24.3238 22.4609 24.3257 22.8933C24.33 23.9544 24.3232 25.0155 24.3164 26.0766C24.3046 28.0167 24.2922 30.0231 24.3468 31.9985C24.3486 32.0574 24.3709 32.1224 24.3784 32.1837C24.348 32.2438 24.3269 32.3095 24.3251 32.3832C24.3214 32.535 24.2396 32.6799 24.0767 32.828C23.4777 33.3731 22.0833 33.6766 21.4279 33.619C20.4944 33.5533 19.4525 33.0045 19.372 31.9552C19.2345 30.1675 19.2134 28.3339 19.1924 26.5598C19.1818 25.7087 19.1719 24.8563 19.1502 24.0052C19.1391 23.5803 19.1069 23.1547 19.0753 22.7298L19.0344 22.1574C19.0177 21.9047 18.7996 21.7027 18.5463 21.7288C18.2935 21.7449 18.1015 21.9635 18.1176 22.2169L18.1591 22.7979C18.1895 23.2086 18.2204 23.6187 18.2316 24.0294C18.2533 24.8762 18.2638 25.7236 18.2737 26.5703C18.2948 28.3531 18.3165 30.1959 18.4546 32.0066C18.4472 32.1113 18.1009 32.4706 17.1197 32.8497C16.4711 33.1005 15.8777 33.0999 15.4026 32.8478C14.9473 32.6062 14.6295 32.1447 14.4827 31.5123C13.535 27.4276 13.3559 24.271 13.9011 21.2772C14.0435 20.4998 14.2523 19.8302 14.5224 19.2906C14.9479 18.4401 15.4924 18.1471 16.2909 18.3398C17.7831 18.6984 19.0617 18.2413 19.9784 17.0104C20.5626 16.2281 21.2012 16.0379 22.1118 16.3681C23.5229 16.8853 24.7463 16.2454 25.655 15.6316C27.0612 14.6801 27.5697 14.6888 28.8551 15.6718C29.9416 16.5044 31.1148 16.7608 32.5433 16.4771C34.6989 16.0546 35.5903 16.6394 36.0735 18.805C36.8106 22.1048 36.9463 25.7669 36.5009 30.3316C36.4222 31.1418 35.97 31.8492 35.2608 32.2717C34.4982 32.7258 33.5461 32.7865 32.7136 32.4365C32.1518 32.1999 31.8978 31.7836 31.8904 31.0867L31.8718 29.3324C31.8501 27.2542 31.8278 25.1753 31.7863 23.0977C31.7758 22.5916 31.7157 22.0911 31.6574 21.6067C31.6314 21.3887 31.6048 21.1706 31.5837 20.9526C31.559 20.6999 31.3329 20.5308 31.0814 20.54C30.8286 20.5654 30.6447 20.7903 30.6694 21.0424C30.6911 21.2673 30.7184 21.4915 30.7456 21.7157C30.8032 22.1989 30.8584 22.6561 30.8677 23.1151C30.9092 25.1908 30.9308 27.266 30.9531 29.3417L30.9686 30.772C30.9705 31.6696 30.203 32.6403 29.013 33.243C27.8764 33.8197 26.7007 33.8674 26.0186 33.3669C25.6309 33.0807 25.2778 32.4284 25.2654 31.9725ZM38.1517 35.0549L38.0675 35.4408C37.8277 36.5694 37.2281 37.0681 36.0004 37.1622L34.8296 37.2527C33.071 37.3908 31.253 37.5345 29.4659 37.6076C29.0737 37.625 28.7535 37.4794 28.4871 37.1678C27.9631 36.5533 27.7822 35.4296 27.8807 34.5723C28.3862 34.4918 28.9102 34.3258 29.4299 34.0631C30.2507 33.6469 30.903 33.0677 31.3322 32.4266C31.6091 32.8689 32.0019 33.1334 32.3593 33.2833C33.4613 33.746 34.7218 33.6642 35.7334 33.0596C36.696 32.4867 37.3093 31.524 37.417 30.4208C37.4214 30.3737 37.4239 30.3297 37.4288 30.2827C37.4877 30.375 37.5465 30.4679 37.606 30.5589C37.9058 31.021 38.1895 31.4565 38.3313 31.9422C38.62 32.9277 38.3821 34.0086 38.1517 35.0549Z"/>
</mask>
<path d="M39.2128 31.6845C39.0326 31.07 38.6987 30.5558 38.3753 30.0591C38.0823 29.6081 37.8054 29.1819 37.6586 28.7093C37.6394 28.6473 37.6078 28.5928 37.5682 28.5464C37.8184 24.7324 37.6252 21.5336 36.9711 18.6043C36.3733 15.927 35.0384 15.0468 32.3667 15.577C31.1984 15.805 30.2879 15.6117 29.4144 14.9427C27.8194 13.7218 26.8605 13.7057 25.1415 14.8709C24.0315 15.6198 23.2448 15.8044 22.4271 15.5052C21.138 15.035 20.067 15.3565 19.2425 16.4616C18.5426 17.4001 17.6481 17.7228 16.5064 17.4465C15.659 17.244 14.4796 17.3239 13.701 18.8799C13.3925 19.4981 13.1559 20.2489 12.9979 21.1124C12.4286 24.2363 12.6108 27.5076 13.5876 31.7204C13.7933 32.6068 14.2857 33.2957 14.9727 33.6599C15.3425 33.8556 15.7588 33.9529 16.1998 33.9529C16.6025 33.9529 17.0255 33.8711 17.4505 33.707C18.0067 33.492 18.4354 33.261 18.7513 33.0175C19.2661 33.9609 20.3575 34.4639 21.3629 34.5345C21.4155 34.5383 21.4744 34.5401 21.5388 34.5401C22.3144 34.5401 23.8636 34.262 24.6943 33.5069C24.7444 33.4617 24.7835 33.4121 24.8268 33.3644C25.012 33.6562 25.2289 33.925 25.4754 34.1059C25.8855 34.4076 26.3953 34.5711 26.9534 34.6132C26.8654 35.6613 27.1008 36.9566 27.7878 37.7625C28.2146 38.2636 28.7733 38.5269 29.407 38.5269C29.4392 38.5269 29.4714 38.5262 29.5036 38.525C31.3075 38.4494 33.1348 38.3063 34.9015 38.167L36.0704 38.0753C37.6946 37.9514 38.6417 37.1517 38.9663 35.631L39.0487 35.2506C39.2921 34.1468 39.5671 32.8949 39.2128 31.6845ZM25.2654 31.9725C25.2109 30.0126 25.2233 28.0143 25.235 26.0816C25.2419 25.018 25.2487 23.9532 25.2443 22.8896C25.2425 22.4009 25.1812 21.9189 25.1223 21.4537C25.0957 21.2468 25.0697 21.0399 25.0486 20.833C25.0232 20.5809 24.8014 20.3932 24.5456 20.4223C24.2929 20.4477 24.1095 20.6726 24.1349 20.9247C24.1566 21.1403 24.1838 21.3552 24.2111 21.5696C24.2693 22.0279 24.3238 22.4609 24.3257 22.8933C24.33 23.9544 24.3232 25.0155 24.3164 26.0766C24.3046 28.0167 24.2922 30.0231 24.3468 31.9985C24.3486 32.0574 24.3709 32.1224 24.3784 32.1837C24.348 32.2438 24.3269 32.3095 24.3251 32.3832C24.3214 32.535 24.2396 32.6799 24.0767 32.828C23.4777 33.3731 22.0833 33.6766 21.4279 33.619C20.4944 33.5533 19.4525 33.0045 19.372 31.9552C19.2345 30.1675 19.2134 28.3339 19.1924 26.5598C19.1818 25.7087 19.1719 24.8563 19.1502 24.0052C19.1391 23.5803 19.1069 23.1547 19.0753 22.7298L19.0344 22.1574C19.0177 21.9047 18.7996 21.7027 18.5463 21.7288C18.2935 21.7449 18.1015 21.9635 18.1176 22.2169L18.1591 22.7979C18.1895 23.2086 18.2204 23.6187 18.2316 24.0294C18.2533 24.8762 18.2638 25.7236 18.2737 26.5703C18.2948 28.3531 18.3165 30.1959 18.4546 32.0066C18.4472 32.1113 18.1009 32.4706 17.1197 32.8497C16.4711 33.1005 15.8777 33.0999 15.4026 32.8478C14.9473 32.6062 14.6295 32.1447 14.4827 31.5123C13.535 27.4276 13.3559 24.271 13.9011 21.2772C14.0435 20.4998 14.2523 19.8302 14.5224 19.2906C14.9479 18.4401 15.4924 18.1471 16.2909 18.3398C17.7831 18.6984 19.0617 18.2413 19.9784 17.0104C20.5626 16.2281 21.2012 16.0379 22.1118 16.3681C23.5229 16.8853 24.7463 16.2454 25.655 15.6316C27.0612 14.6801 27.5697 14.6888 28.8551 15.6718C29.9416 16.5044 31.1148 16.7608 32.5433 16.4771C34.6989 16.0546 35.5903 16.6394 36.0735 18.805C36.8106 22.1048 36.9463 25.7669 36.5009 30.3316C36.4222 31.1418 35.97 31.8492 35.2608 32.2717C34.4982 32.7258 33.5461 32.7865 32.7136 32.4365C32.1518 32.1999 31.8978 31.7836 31.8904 31.0867L31.8718 29.3324C31.8501 27.2542 31.8278 25.1753 31.7863 23.0977C31.7758 22.5916 31.7157 22.0911 31.6574 21.6067C31.6314 21.3887 31.6048 21.1706 31.5837 20.9526C31.559 20.6999 31.3329 20.5308 31.0814 20.54C30.8286 20.5654 30.6447 20.7903 30.6694 21.0424C30.6911 21.2673 30.7184 21.4915 30.7456 21.7157C30.8032 22.1989 30.8584 22.6561 30.8677 23.1151C30.9092 25.1908 30.9308 27.266 30.9531 29.3417L30.9686 30.772C30.9705 31.6696 30.203 32.6403 29.013 33.243C27.8764 33.8197 26.7007 33.8674 26.0186 33.3669C25.6309 33.0807 25.2778 32.4284 25.2654 31.9725ZM38.1517 35.0549L38.0675 35.4408C37.8277 36.5694 37.2281 37.0681 36.0004 37.1622L34.8296 37.2527C33.071 37.3908 31.253 37.5345 29.4659 37.6076C29.0737 37.625 28.7535 37.4794 28.4871 37.1678C27.9631 36.5533 27.7822 35.4296 27.8807 34.5723C28.3862 34.4918 28.9102 34.3258 29.4299 34.0631C30.2507 33.6469 30.903 33.0677 31.3322 32.4266C31.6091 32.8689 32.0019 33.1334 32.3593 33.2833C33.4613 33.746 34.7218 33.6642 35.7334 33.0596C36.696 32.4867 37.3093 31.524 37.417 30.4208C37.4214 30.3737 37.4239 30.3297 37.4288 30.2827C37.4877 30.375 37.5465 30.4679 37.606 30.5589C37.9058 31.021 38.1895 31.4565 38.3313 31.9422C38.62 32.9277 38.3821 34.0086 38.1517 35.0549Z" fill="black"/>
<path d="M39.2128 31.6845C39.0326 31.07 38.6987 30.5558 38.3753 30.0591C38.0823 29.6081 37.8054 29.1819 37.6586 28.7093C37.6394 28.6473 37.6078 28.5928 37.5682 28.5464C37.8184 24.7324 37.6252 21.5336 36.9711 18.6043C36.3733 15.927 35.0384 15.0468 32.3667 15.577C31.1984 15.805 30.2879 15.6117 29.4144 14.9427C27.8194 13.7218 26.8605 13.7057 25.1415 14.8709C24.0315 15.6198 23.2448 15.8044 22.4271 15.5052C21.138 15.035 20.067 15.3565 19.2425 16.4616C18.5426 17.4001 17.6481 17.7228 16.5064 17.4465C15.659 17.244 14.4796 17.3239 13.701 18.8799C13.3925 19.4981 13.1559 20.2489 12.9979 21.1124C12.4286 24.2363 12.6108 27.5076 13.5876 31.7204C13.7933 32.6068 14.2857 33.2957 14.9727 33.6599C15.3425 33.8556 15.7588 33.9529 16.1998 33.9529C16.6025 33.9529 17.0255 33.8711 17.4505 33.707C18.0067 33.492 18.4354 33.261 18.7513 33.0175C19.2661 33.9609 20.3575 34.4639 21.3629 34.5345C21.4155 34.5383 21.4744 34.5401 21.5388 34.5401C22.3144 34.5401 23.8636 34.262 24.6943 33.5069C24.7444 33.4617 24.7835 33.4121 24.8268 33.3644C25.012 33.6562 25.2289 33.925 25.4754 34.1059C25.8855 34.4076 26.3953 34.5711 26.9534 34.6132C26.8654 35.6613 27.1008 36.9566 27.7878 37.7625C28.2146 38.2636 28.7733 38.5269 29.407 38.5269C29.4392 38.5269 29.4714 38.5262 29.5036 38.525C31.3075 38.4494 33.1348 38.3063 34.9015 38.167L36.0704 38.0753C37.6946 37.9514 38.6417 37.1517 38.9663 35.631L39.0487 35.2506C39.2921 34.1468 39.5671 32.8949 39.2128 31.6845ZM25.2654 31.9725C25.2109 30.0126 25.2233 28.0143 25.235 26.0816C25.2419 25.018 25.2487 23.9532 25.2443 22.8896C25.2425 22.4009 25.1812 21.9189 25.1223 21.4537C25.0957 21.2468 25.0697 21.0399 25.0486 20.833C25.0232 20.5809 24.8014 20.3932 24.5456 20.4223C24.2929 20.4477 24.1095 20.6726 24.1349 20.9247C24.1566 21.1403 24.1838 21.3552 24.2111 21.5696C24.2693 22.0279 24.3238 22.4609 24.3257 22.8933C24.33 23.9544 24.3232 25.0155 24.3164 26.0766C24.3046 28.0167 24.2922 30.0231 24.3468 31.9985C24.3486 32.0574 24.3709 32.1224 24.3784 32.1837C24.348 32.2438 24.3269 32.3095 24.3251 32.3832C24.3214 32.535 24.2396 32.6799 24.0767 32.828C23.4777 33.3731 22.0833 33.6766 21.4279 33.619C20.4944 33.5533 19.4525 33.0045 19.372 31.9552C19.2345 30.1675 19.2134 28.3339 19.1924 26.5598C19.1818 25.7087 19.1719 24.8563 19.1502 24.0052C19.1391 23.5803 19.1069 23.1547 19.0753 22.7298L19.0344 22.1574C19.0177 21.9047 18.7996 21.7027 18.5463 21.7288C18.2935 21.7449 18.1015 21.9635 18.1176 22.2169L18.1591 22.7979C18.1895 23.2086 18.2204 23.6187 18.2316 24.0294C18.2533 24.8762 18.2638 25.7236 18.2737 26.5703C18.2948 28.3531 18.3165 30.1959 18.4546 32.0066C18.4472 32.1113 18.1009 32.4706 17.1197 32.8497C16.4711 33.1005 15.8777 33.0999 15.4026 32.8478C14.9473 32.6062 14.6295 32.1447 14.4827 31.5123C13.535 27.4276 13.3559 24.271 13.9011 21.2772C14.0435 20.4998 14.2523 19.8302 14.5224 19.2906C14.9479 18.4401 15.4924 18.1471 16.2909 18.3398C17.7831 18.6984 19.0617 18.2413 19.9784 17.0104C20.5626 16.2281 21.2012 16.0379 22.1118 16.3681C23.5229 16.8853 24.7463 16.2454 25.655 15.6316C27.0612 14.6801 27.5697 14.6888 28.8551 15.6718C29.9416 16.5044 31.1148 16.7608 32.5433 16.4771C34.6989 16.0546 35.5903 16.6394 36.0735 18.805C36.8106 22.1048 36.9463 25.7669 36.5009 30.3316C36.4222 31.1418 35.97 31.8492 35.2608 32.2717C34.4982 32.7258 33.5461 32.7865 32.7136 32.4365C32.1518 32.1999 31.8978 31.7836 31.8904 31.0867L31.8718 29.3324C31.8501 27.2542 31.8278 25.1753 31.7863 23.0977C31.7758 22.5916 31.7157 22.0911 31.6574 21.6067C31.6314 21.3887 31.6048 21.1706 31.5837 20.9526C31.559 20.6999 31.3329 20.5308 31.0814 20.54C30.8286 20.5654 30.6447 20.7903 30.6694 21.0424C30.6911 21.2673 30.7184 21.4915 30.7456 21.7157C30.8032 22.1989 30.8584 22.6561 30.8677 23.1151C30.9092 25.1908 30.9308 27.266 30.9531 29.3417L30.9686 30.772C30.9705 31.6696 30.203 32.6403 29.013 33.243C27.8764 33.8197 26.7007 33.8674 26.0186 33.3669C25.6309 33.0807 25.2778 32.4284 25.2654 31.9725ZM38.1517 35.0549L38.0675 35.4408C37.8277 36.5694 37.2281 37.0681 36.0004 37.1622L34.8296 37.2527C33.071 37.3908 31.253 37.5345 29.4659 37.6076C29.0737 37.625 28.7535 37.4794 28.4871 37.1678C27.9631 36.5533 27.7822 35.4296 27.8807 34.5723C28.3862 34.4918 28.9102 34.3258 29.4299 34.0631C30.2507 33.6469 30.903 33.0677 31.3322 32.4266C31.6091 32.8689 32.0019 33.1334 32.3593 33.2833C33.4613 33.746 34.7218 33.6642 35.7334 33.0596C36.696 32.4867 37.3093 31.524 37.417 30.4208C37.4214 30.3737 37.4239 30.3297 37.4288 30.2827C37.4877 30.375 37.5465 30.4679 37.606 30.5589C37.9058 31.021 38.1895 31.4565 38.3313 31.9422C38.62 32.9277 38.3821 34.0086 38.1517 35.0549Z" stroke="black" stroke-width="1.33526" mask="url(#path-2-outside-1_2695_29924)"/>
</svg>
