<svg width="26" height="24" viewBox="0 0 26 24" fill="none" xmlns="http://www.w3.org/2000/svg">
<mask id="mask0_2327_12424" style="mask-type:alpha" maskUnits="userSpaceOnUse" x="10" y="8" width="16" height="16">
<path d="M18.6666 11.3333C18.6666 12.0697 17.025 12.6667 14.9999 12.6667C12.9749 12.6667 11.3333 12.0697 11.3333 11.3333M18.6666 11.3333C18.6666 10.597 17.025 10 14.9999 10C12.9749 10 11.3333 10.597 11.3333 11.3333M18.6666 11.3333V12.3333M11.3333 11.3333V19.3333C11.3333 20.0697 12.9749 20.6667 14.9999 20.6667M14.9999 15.3333C14.8876 15.3333 14.7764 15.3315 14.6666 15.3279C12.7978 15.2667 11.3333 14.6955 11.3333 14M14.9999 18C12.9749 18 11.3333 17.403 11.3333 16.6667M24.6666 15.6667C24.6666 16.403 23.025 17 20.9999 17C18.9749 17 17.3333 16.403 17.3333 15.6667M24.6666 15.6667C24.6666 14.9303 23.025 14.3333 20.9999 14.3333C18.9749 14.3333 17.3333 14.9303 17.3333 15.6667M24.6666 15.6667V20.6667C24.6666 21.403 23.025 22 20.9999 22C18.9749 22 17.3333 21.403 17.3333 20.6667V15.6667M24.6666 18.1667C24.6666 18.903 23.025 19.5 20.9999 19.5C18.9749 19.5 17.3333 18.903 17.3333 18.1667" stroke="black" stroke-width="1.5" stroke-linecap="round" stroke-linejoin="round"/>
</mask>
<g mask="url(#mask0_2327_12424)">
<path d="M16 13.332H26V23.332H16V13.332Z" fill="#F1F0EB"/>
</g>
<mask id="mask1_2327_12424" style="mask-type:alpha" maskUnits="userSpaceOnUse" x="0" y="0" width="24" height="24">
<path d="M2 14C2 14 2.12132 14.8492 5.63604 18.364C9.15076 21.8787 14.8492 21.8787 18.364 18.364C19.6092 17.1187 20.4133 15.5993 20.7762 14M2 14V20M2 14H8M22 10C22 10 21.8787 9.15076 18.364 5.63604C14.8492 2.12132 9.15076 2.12132 5.63604 5.63604C4.39076 6.88131 3.58669 8.40072 3.22383 10M22 10V4M22 10H16" stroke="#F1F0EB" stroke-width="1.5" stroke-linecap="round" stroke-linejoin="round"/>
</mask>
<g mask="url(#mask1_2327_12424)">
<path d="M24.5 0.5H0V24H14V12.5H24.5V0.5Z" fill="#F1F0EB"/>
</g>
</svg>
