<svg width="25" height="25" viewBox="0 0 25 25" fill="none" xmlns="http://www.w3.org/2000/svg">
<g id="ticket-01">
<path id="Icon" d="M10.4166 8.33464V7.29297M10.4166 13.0221V11.9805M10.4166 17.7096V16.668M5.41659 4.16797H19.5833C20.75 4.16797 21.3334 4.16797 21.7791 4.39504C22.1711 4.59477 22.4898 4.91348 22.6895 5.30549C22.9166 5.75114 22.9166 6.33453 22.9166 7.5013V8.85547C20.903 8.85547 19.2708 10.4878 19.2708 12.5013C19.2708 14.5148 20.903 16.1471 22.9166 16.1471V17.5013C22.9166 18.6681 22.9166 19.2515 22.6895 19.6971C22.4898 20.0891 22.1711 20.4078 21.7791 20.6076C21.3334 20.8346 20.75 20.8346 19.5833 20.8346H5.41659C4.24981 20.8346 3.66642 20.8346 3.22077 20.6076C2.82877 20.4078 2.51006 20.0891 2.31032 19.6971C2.08325 19.2515 2.08325 18.6681 2.08325 17.5013V16.1471C4.09679 16.1471 5.72909 14.5148 5.72909 12.5013C5.72909 10.4878 4.09679 8.85547 2.08325 8.85547V7.5013C2.08325 6.33453 2.08325 5.75114 2.31032 5.30549C2.51006 4.91348 2.82877 4.59477 3.22077 4.39504C3.66642 4.16797 4.24981 4.16797 5.41659 4.16797Z" stroke="#F1F0EB" stroke-width="1.5" stroke-linecap="round" stroke-linejoin="round"/>
</g>
</svg>
