<svg width="23" height="23" viewBox="0 0 23 23" fill="none" xmlns="http://www.w3.org/2000/svg">
<path d="M4.42707 13.446H17.6063C18.6225 13.446 19.1306 13.446 19.5351 13.2566C19.8914 13.0897 20.1908 12.8217 20.396 12.486C20.629 12.1049 20.6851 11.5999 20.7973 10.59L21.3842 5.30748C21.4185 4.999 21.4356 4.84476 21.386 4.72537C21.3425 4.62052 21.2646 4.53355 21.1652 4.47867C21.0521 4.41619 20.8969 4.41619 20.5865 4.41619H3.92542M1.41699 1.40625H2.66957C2.93507 1.40625 3.06782 1.40625 3.17168 1.45674C3.26311 1.50119 3.33888 1.57237 3.38894 1.66085C3.44581 1.76136 3.45409 1.89385 3.47066 2.15883L4.3799 16.7067C4.39646 16.9717 4.40474 17.1042 4.46161 17.2047C4.51168 17.2931 4.58745 17.3643 4.67888 17.4088C4.78273 17.4593 4.91548 17.4593 5.18098 17.4593H13.1989M5.97204 20.9709H5.98207M12.1123 20.9709H12.1223M6.47369 20.9709C6.47369 21.2479 6.24909 21.4725 5.97204 21.4725C5.69498 21.4725 5.47038 21.2479 5.47038 20.9709C5.47038 20.6938 5.69498 20.4692 5.97204 20.4692C6.24909 20.4692 6.47369 20.6938 6.47369 20.9709ZM12.614 20.9709C12.614 21.2479 12.3894 21.4725 12.1123 21.4725C11.8353 21.4725 11.6107 21.2479 11.6107 20.9709C11.6107 20.6938 11.8353 20.4692 12.1123 20.4692C12.3894 20.4692 12.614 20.6938 12.614 20.9709Z" stroke="#1A1A1A" stroke-width="1.5" stroke-linecap="round" stroke-linejoin="round"/>
<path d="M18.5274 21.4705V15.6914M15.6379 18.5809H21.417" stroke="black" stroke-width="1.5" stroke-linecap="round" stroke-linejoin="round"/>
</svg>
