<svg width="26" height="26" viewBox="0 0 26 26" fill="none" xmlns="http://www.w3.org/2000/svg">
<path d="M9.41219 16.1202C9.41219 17.4626 10.5004 18.5508 11.8427 18.5508H14.0997C15.5379 18.5508 16.7039 17.3849 16.7039 15.9466C16.7039 14.5084 15.5379 13.3424 14.0997 13.3424H12.0164C10.5781 13.3424 9.41219 12.1765 9.41219 10.7383C9.41219 9.30004 10.5781 8.13411 12.0164 8.13411H14.2733C15.6157 8.13411 16.7039 9.22231 16.7039 10.5647M13.058 6.57161V8.13411M13.058 18.5508V20.1133M23.4747 13.3424C23.4747 19.0954 18.811 23.7591 13.058 23.7591C7.30506 23.7591 2.64136 19.0954 2.64136 13.3424C2.64136 7.58948 7.30506 2.92578 13.058 2.92578C18.811 2.92578 23.4747 7.58948 23.4747 13.3424Z" stroke="black" stroke-width="1.5" stroke-linecap="round" stroke-linejoin="round"/>
</svg>
