<svg width="25" height="25" viewBox="0 0 25 25" fill="none" xmlns="http://www.w3.org/2000/svg">
<circle cx="12.5" cy="12.5" r="12" fill="#6E6E6E" stroke="#F1F0EB"/>
<path d="M11.4525 6.7436C11.7911 6.69353 12.1405 6.66667 12.5003 6.66667C16.7545 6.66667 19.5461 10.4207 20.4839 11.9057C20.5974 12.0854 20.6542 12.1753 20.6859 12.3139C20.7098 12.418 20.7098 12.5822 20.6859 12.6863C20.6541 12.8249 20.597 12.9154 20.4827 13.0963C20.2328 13.4918 19.8518 14.0476 19.3471 14.6504M8.1036 8.09586C6.30187 9.31808 5.07871 11.0161 4.51759 11.9044C4.40357 12.0849 4.34656 12.1751 4.31478 12.3137C4.29091 12.4178 4.2909 12.582 4.31476 12.6861C4.34652 12.8247 4.40328 12.9146 4.51678 13.0943C5.45462 14.5793 8.24618 18.3333 12.5003 18.3333C14.2157 18.3333 15.6932 17.723 16.9073 16.8972M5.00035 5L20.0003 20M10.7326 10.7322C10.2802 11.1846 10.0003 11.8096 10.0003 12.5C10.0003 13.8807 11.1196 15 12.5003 15C13.1907 15 13.8157 14.7202 14.2681 14.2678" stroke="#F1F0EB" stroke-width="1.5" stroke-linecap="round" stroke-linejoin="round"/>
</svg>
