<svg width="26" height="26" viewBox="0 0 26 26" fill="none" xmlns="http://www.w3.org/2000/svg">
<circle cx="13.417" cy="13.2812" r="12" fill="#6E6E6E" stroke="#F1F0EB"/>
<path d="M13.417 14.1133C13.8772 14.1133 14.2503 13.7402 14.2503 13.2799C14.2503 12.8197 13.8772 12.4466 13.417 12.4466C12.9568 12.4466 12.5837 12.8197 12.5837 13.2799C12.5837 13.7402 12.9568 14.1133 13.417 14.1133Z" fill="#F1F0EB"/>
<path d="M13.417 8.27995C13.8772 8.27995 14.2503 7.90685 14.2503 7.44661C14.2503 6.98638 13.8772 6.61328 13.417 6.61328C12.9568 6.61328 12.5837 6.98638 12.5837 7.44661C12.5837 7.90685 12.9568 8.27995 13.417 8.27995Z" fill="#F1F0EB"/>
<path d="M13.417 19.9466C13.8772 19.9466 14.2503 19.5735 14.2503 19.1133C14.2503 18.653 13.8772 18.2799 13.417 18.2799C12.9568 18.2799 12.5837 18.653 12.5837 19.1133C12.5837 19.5735 12.9568 19.9466 13.417 19.9466Z" fill="#F1F0EB"/>
<path d="M13.417 14.1133C13.8772 14.1133 14.2503 13.7402 14.2503 13.2799C14.2503 12.8197 13.8772 12.4466 13.417 12.4466C12.9568 12.4466 12.5837 12.8197 12.5837 13.2799C12.5837 13.7402 12.9568 14.1133 13.417 14.1133Z" stroke="#F1F0EB" stroke-width="1.5" stroke-linecap="round" stroke-linejoin="round"/>
<path d="M13.417 8.27995C13.8772 8.27995 14.2503 7.90685 14.2503 7.44661C14.2503 6.98638 13.8772 6.61328 13.417 6.61328C12.9568 6.61328 12.5837 6.98638 12.5837 7.44661C12.5837 7.90685 12.9568 8.27995 13.417 8.27995Z" stroke="#F1F0EB" stroke-width="1.5" stroke-linecap="round" stroke-linejoin="round"/>
<path d="M13.417 19.9466C13.8772 19.9466 14.2503 19.5735 14.2503 19.1133C14.2503 18.653 13.8772 18.2799 13.417 18.2799C12.9568 18.2799 12.5837 18.653 12.5837 19.1133C12.5837 19.5735 12.9568 19.9466 13.417 19.9466Z" stroke="#F1F0EB" stroke-width="1.5" stroke-linecap="round" stroke-linejoin="round"/>
</svg>
