<svg width="26" height="26" viewBox="0 0 26 26" fill="none" xmlns="http://www.w3.org/2000/svg">
<path d="M23.4167 9.52613L17.1667 15.7761M17.1667 9.52613L23.4167 15.7761M10.5358 4.69872L7.2382 7.99631C7.05804 8.17646 6.96796 8.26654 6.86284 8.33096C6.76964 8.38807 6.66803 8.43016 6.56174 8.45568C6.44186 8.48446 6.31447 8.48446 6.05968 8.48446H4.25004C3.66665 8.48446 3.37496 8.48446 3.15213 8.598C2.95613 8.69786 2.79678 8.85722 2.69691 9.05322C2.58337 9.27605 2.58337 9.56774 2.58337 10.1511V15.1511C2.58337 15.7345 2.58337 16.0262 2.69691 16.249C2.79678 16.445 2.95613 16.6044 3.15213 16.7043C3.37496 16.8178 3.66665 16.8178 4.25004 16.8178H6.05968C6.31447 16.8178 6.44186 16.8178 6.56174 16.8466C6.66803 16.8721 6.76964 16.9142 6.86284 16.9713C6.96796 17.0357 7.05804 17.1258 7.2382 17.3059L10.5358 20.6035C10.982 21.0498 11.2051 21.2729 11.3967 21.288C11.5629 21.301 11.7253 21.2338 11.8336 21.107C11.9584 20.9609 11.9584 20.6453 11.9584 20.0143V5.28797C11.9584 4.65692 11.9584 4.34139 11.8336 4.19528C11.7253 4.0685 11.5629 4.00122 11.3967 4.0143C11.2051 4.02938 10.982 4.25249 10.5358 4.69872Z" stroke="#F1F0EB" stroke-width="1.5" stroke-linecap="round" stroke-linejoin="round"/>
</svg>
