<svg width="26" height="26" viewBox="0 0 26 26" fill="none" xmlns="http://www.w3.org/2000/svg">
<path d="M9.81527 16.1202C9.81527 17.4626 10.9035 18.5508 12.2458 18.5508H14.5028C15.941 18.5508 17.1069 17.3849 17.1069 15.9466C17.1069 14.5084 15.941 13.3424 14.5028 13.3424H12.4194C10.9812 13.3424 9.81527 12.1765 9.81527 10.7383C9.81527 9.30004 10.9812 8.13411 12.4194 8.13411H14.6764C16.0187 8.13411 17.1069 9.22231 17.1069 10.5647M13.4611 6.57161V8.13411M13.4611 18.5508V20.1133M23.8778 13.3424C23.8778 19.0954 19.2141 23.7591 13.4611 23.7591C7.70813 23.7591 3.04443 19.0954 3.04443 13.3424C3.04443 7.58948 7.70813 2.92578 13.4611 2.92578C19.2141 2.92578 23.8778 7.58948 23.8778 13.3424Z" stroke="black" stroke-width="1.5" stroke-linecap="round" stroke-linejoin="round"/>
<line x1="5.9673" y1="19.7793" x2="21.9673" y2="5.77932" stroke="black" stroke-width="1.5"/>
</svg>
