<svg width="25" height="25" viewBox="0 0 25 25" fill="none" xmlns="http://www.w3.org/2000/svg">
<circle cx="12.5" cy="12.5" r="12" fill="#6E6E6E" stroke="#F1F0EB"/>
<path d="M4.51677 13.0917C4.40328 12.912 4.34654 12.8222 4.31477 12.6836C4.29091 12.5795 4.29091 12.4153 4.31477 12.3112C4.34654 12.1726 4.40328 12.0828 4.51677 11.9031C5.45461 10.4181 8.24617 6.66406 12.5003 6.66406C16.7545 6.66406 19.5461 10.4181 20.4839 11.9031C20.5974 12.0828 20.6541 12.1726 20.6859 12.3112C20.7098 12.4153 20.7098 12.5795 20.6859 12.6836C20.6541 12.8222 20.5974 12.912 20.4839 13.0917C19.5461 14.5767 16.7545 18.3307 12.5003 18.3307C8.24617 18.3307 5.45461 14.5767 4.51677 13.0917Z" stroke="#F1F0EB" stroke-width="1.5" stroke-linecap="round" stroke-linejoin="round"/>
<path d="M12.5003 14.9974C13.881 14.9974 15.0003 13.8781 15.0003 12.4974C15.0003 11.1167 13.881 9.9974 12.5003 9.9974C11.1196 9.9974 10.0003 11.1167 10.0003 12.4974C10.0003 13.8781 11.1196 14.9974 12.5003 14.9974Z" stroke="#F1F0EB" stroke-width="1.5" stroke-linecap="round" stroke-linejoin="round"/>
</svg>
