<svg width="25" height="25" viewBox="0 0 25 25" fill="none" xmlns="http://www.w3.org/2000/svg">
<path d="M20.5707 5.20809C22.047 7.26042 22.9166 9.77855 22.9166 12.4998C22.9166 15.221 22.047 17.7391 20.5707 19.7914M16.4013 8.33309C17.2251 9.51417 17.7083 10.9505 17.7083 12.4998C17.7083 14.049 17.2251 15.4854 16.4013 16.6664M10.0357 4.54735L6.73807 7.84494C6.55792 8.0251 6.46784 8.11518 6.36272 8.17959C6.26951 8.23671 6.16791 8.2788 6.06162 8.30431C5.94174 8.33309 5.81434 8.33309 5.55956 8.33309H3.74992C3.16653 8.33309 2.87484 8.33309 2.65201 8.44663C2.45601 8.5465 2.29665 8.70585 2.19679 8.90185C2.08325 9.12468 2.08325 9.41637 2.08325 9.99976V14.9998C2.08325 15.5831 2.08325 15.8748 2.19679 16.0977C2.29665 16.2937 2.45601 16.453 2.65201 16.5529C2.87484 16.6664 3.16653 16.6664 3.74992 16.6664H5.55956C5.81434 16.6664 5.94174 16.6664 6.06162 16.6952C6.16791 16.7207 6.26951 16.7628 6.36272 16.8199C6.46784 16.8843 6.55792 16.9744 6.73807 17.1546L10.0357 20.4522C10.4819 20.8984 10.705 21.1215 10.8966 21.1366C11.0628 21.1497 11.2252 21.0824 11.3335 20.9556C11.4583 20.8095 11.4583 20.494 11.4583 19.8629V5.13661C11.4583 4.50555 11.4583 4.19002 11.3335 4.04391C11.2252 3.91713 11.0628 3.84986 10.8966 3.86294C10.705 3.87801 10.4819 4.10112 10.0357 4.54735Z" stroke="#F1F0EB" stroke-width="1.5" stroke-linecap="round" stroke-linejoin="round"/>
</svg>
