<svg width="20" height="20" viewBox="0 0 20 20" fill="none" xmlns="http://www.w3.org/2000/svg">
<g clip-path="url(#clip0_1715_14211)">
<path d="M12.9545 8.27054C13.2661 7.71688 13.5259 7.21728 13.6861 6.83703C14.4643 4.99057 13.6948 2.86666 11.814 2.00028C9.93306 1.13391 8.04434 2.03226 7.21543 3.76679C5.63031 2.6791 3.51582 2.83884 2.34974 4.53621C1.18366 6.23358 1.54963 8.45104 3.14674 9.66105C3.87159 10.2102 5.30514 11.0195 6.6548 11.7397M13.5808 9.79097C13.2291 7.90101 11.621 6.5188 9.5962 6.89448C7.57144 7.27016 6.26223 9.09692 6.53596 11.0819C6.75588 12.6766 7.96977 16.4183 8.43851 17.8277C8.50247 18.02 8.53445 18.1162 8.59778 18.1832C8.65294 18.2416 8.72628 18.284 8.80445 18.3025C8.89419 18.3239 8.99346 18.3035 9.192 18.2627C10.6469 17.9639 14.4943 17.1444 15.9853 16.5374C17.8412 15.782 18.799 13.7361 18.0816 11.7935C17.3642 9.8509 15.3935 9.15061 13.5808 9.79097Z" stroke="#F1F0EB" stroke-width="1.5" stroke-linecap="round" stroke-linejoin="round"/>
</g>
<defs>
<clipPath id="clip0_1715_14211">
<rect width="20" height="20" fill="white"/>
</clipPath>
</defs>
</svg>
