<svg width="20" height="20" viewBox="0 0 20 20" fill="none" xmlns="http://www.w3.org/2000/svg">
<g clip-path="url(#clip0_1715_14208)">
<path d="M8.33317 14.7148V16.666C8.33317 17.5865 9.07936 18.3327 9.99984 18.3327C10.9203 18.3327 11.6665 17.5865 11.6665 16.666V14.7148M9.99984 1.66602V2.49935M2.49984 9.99935H1.6665M4.58317 4.58268L4.08309 4.0826M15.4165 4.58268L15.9167 4.0826M18.3332 9.99935H17.4998M14.9998 9.99935C14.9998 12.7608 12.7613 14.9993 9.99984 14.9993C7.23841 14.9993 4.99984 12.7608 4.99984 9.99935C4.99984 7.23793 7.23841 4.99935 9.99984 4.99935C12.7613 4.99935 14.9998 7.23793 14.9998 9.99935Z" stroke="#F1F0EB" stroke-width="1.5" stroke-linecap="round" stroke-linejoin="round"/>
</g>
<defs>
<clipPath id="clip0_1715_14208">
<rect width="20" height="20" fill="white"/>
</clipPath>
</defs>
</svg>
