<svg width="23" height="23" viewBox="0 0 23 23" fill="none" xmlns="http://www.w3.org/2000/svg">
<path d="M1.0835 11.5007H21.9168M1.0835 11.5007C1.0835 17.2536 5.7472 21.9173 11.5002 21.9173M1.0835 11.5007C1.0835 5.74768 5.7472 1.08398 11.5002 1.08398M21.9168 11.5007C21.9168 17.2536 17.2531 21.9173 11.5002 21.9173M21.9168 11.5007C21.9168 5.74768 17.2531 1.08398 11.5002 1.08398M11.5002 1.08398C14.1057 3.93644 15.5864 7.63819 15.6668 11.5007C15.5864 15.3631 14.1057 19.0649 11.5002 21.9173M11.5002 1.08398C8.89466 3.93644 7.41396 7.63819 7.3335 11.5007C7.41396 15.3631 8.89466 19.0649 11.5002 21.9173" stroke="#F1F0EB" stroke-width="1.5" stroke-linecap="round" stroke-linejoin="round"/>
</svg>
