<svg width="23" height="23" viewBox="0 0 23 23" fill="none" xmlns="http://www.w3.org/2000/svg">
<path d="M21.9168 11.5007H17.7502M5.25016 11.5007H1.0835M11.5002 5.25065V1.08398M11.5002 21.9173V17.7507M19.8335 11.5007C19.8335 16.103 16.1025 19.834 11.5002 19.834C6.89779 19.834 3.16683 16.103 3.16683 11.5007C3.16683 6.89828 6.89779 3.16732 11.5002 3.16732C16.1025 3.16732 19.8335 6.89828 19.8335 11.5007ZM14.6252 11.5007C14.6252 13.2265 13.2261 14.6257 11.5002 14.6257C9.77427 14.6257 8.37516 13.2265 8.37516 11.5007C8.37516 9.77476 9.77427 8.37565 11.5002 8.37565C13.2261 8.37565 14.6252 9.77476 14.6252 11.5007Z" stroke="#454343" stroke-width="1.5" stroke-linecap="round" stroke-linejoin="round"/>
</svg>
