<svg width="26" height="25" viewBox="0 0 26 25" fill="none" xmlns="http://www.w3.org/2000/svg">
<path d="M13.8543 7.29167L12.6923 4.96762C12.3579 4.29875 12.1906 3.9643 11.9412 3.71996C11.7206 3.50389 11.4547 3.33956 11.1627 3.23886C10.8326 3.125 10.4587 3.125 9.71088 3.125H5.72933C4.56255 3.125 3.97917 3.125 3.53352 3.35207C3.14151 3.55181 2.8228 3.87052 2.62307 4.26252C2.396 4.70817 2.396 5.29156 2.396 6.45833V7.29167M2.396 7.29167H18.2293C19.9795 7.29167 20.8546 7.29167 21.523 7.63227C22.1111 7.93188 22.5891 8.40994 22.8887 8.99795C23.2293 9.66642 23.2293 10.5415 23.2293 12.2917V16.875C23.2293 18.6252 23.2293 19.5002 22.8887 20.1687C22.5891 20.7567 22.1111 21.2348 21.523 21.5344C20.8546 21.875 19.9795 21.875 18.2293 21.875H7.396C5.64583 21.875 4.77075 21.875 4.10228 21.5344C3.51427 21.2348 3.0362 20.7567 2.7366 20.1687C2.396 19.5002 2.396 18.6252 2.396 16.875V7.29167Z" stroke="#F1F0EB" stroke-width="1.5" stroke-linecap="round" stroke-linejoin="round"/>
</svg>
