<svg width="23" height="23" viewBox="0 0 23 23" fill="none" xmlns="http://www.w3.org/2000/svg">
<path d="M15.6668 7.33334V12.5417C15.6668 13.3705 15.9961 14.1653 16.5821 14.7514C17.1682 15.3374 17.963 15.6667 18.7918 15.6667C19.6206 15.6667 20.4155 15.3374 21.0015 14.7514C21.5876 14.1653 21.9168 13.3705 21.9168 12.5417V11.5C21.9167 9.14899 21.1212 6.86717 19.6598 5.02556C18.1984 3.18395 16.157 1.89086 13.8675 1.35656C11.578 0.822265 9.1751 1.07817 7.04949 2.08268C4.92388 3.08718 3.20059 4.78121 2.15982 6.8893C1.11905 8.99739 0.822012 11.3956 1.31701 13.6939C1.81202 15.9922 3.06994 18.0555 4.88625 19.5482C6.70255 21.0409 8.97041 21.8754 11.3211 21.9158C13.6717 21.9562 15.967 21.2003 17.8335 19.7708M15.6668 11.5C15.6668 13.8012 13.8014 15.6667 11.5002 15.6667C9.19899 15.6667 7.33351 13.8012 7.33351 11.5C7.33351 9.19882 9.19899 7.33334 11.5002 7.33334C13.8014 7.33334 15.6668 9.19882 15.6668 11.5Z" stroke="#F1F0EB" stroke-width="1.5" stroke-linecap="round" stroke-linejoin="round"/>
</svg>
