<svg width="23" height="23" viewBox="0 0 23 23" fill="none" xmlns="http://www.w3.org/2000/svg">
<path d="M11.5002 14.6257C13.2261 14.6257 14.6252 13.2265 14.6252 11.5007C14.6252 9.77476 13.2261 8.37565 11.5002 8.37565C9.77427 8.37565 8.37516 9.77476 8.37516 11.5007C8.37516 13.2265 9.77427 14.6257 11.5002 14.6257Z" stroke="#F1F0EB" stroke-width="1.5" stroke-linecap="round" stroke-linejoin="round"/>
<path d="M18.5077 14.3416C18.3817 14.6272 18.3441 14.944 18.3998 15.2512C18.4555 15.5584 18.6019 15.8419 18.8202 16.065L18.8771 16.1219C19.0531 16.2978 19.1928 16.5066 19.2882 16.7366C19.3835 16.9665 19.4325 17.2129 19.4325 17.4618C19.4325 17.7107 19.3835 17.9572 19.2882 18.1871C19.1928 18.417 19.0531 18.6259 18.8771 18.8018C18.7012 18.9779 18.4923 19.1176 18.2624 19.2129C18.0324 19.3082 17.786 19.3573 17.5371 19.3573C17.2882 19.3573 17.0417 19.3082 16.8118 19.2129C16.5819 19.1176 16.373 18.9779 16.1971 18.8018L16.1403 18.745C15.9171 18.5267 15.6337 18.3802 15.3265 18.3245C15.0193 18.2688 14.7025 18.3064 14.4168 18.4325C14.1367 18.5525 13.8979 18.7518 13.7296 19.0059C13.5614 19.26 13.4711 19.5577 13.4699 19.8624V20.0234C13.4699 20.5257 13.2703 21.0074 12.9151 21.3626C12.56 21.7178 12.0782 21.9173 11.5759 21.9173C11.0736 21.9173 10.5919 21.7178 10.2367 21.3626C9.88152 21.0074 9.68198 20.5257 9.68198 20.0234V19.9382C9.67465 19.6247 9.57319 19.3207 9.3908 19.0657C9.2084 18.8107 8.95351 18.6164 8.65925 18.5082C8.37363 18.3822 8.0568 18.3446 7.74961 18.4003C7.44241 18.456 7.15895 18.6024 6.93577 18.8207L6.87895 18.8775C6.70305 19.0536 6.49417 19.1933 6.26425 19.2886C6.03433 19.384 5.78788 19.433 5.53899 19.433C5.2901 19.433 5.04364 19.384 4.81372 19.2886C4.5838 19.1933 4.37492 19.0536 4.19903 18.8775C4.02293 18.7016 3.88324 18.4928 3.78793 18.2628C3.69262 18.0329 3.64356 17.7865 3.64356 17.5376C3.64356 17.2887 3.69262 17.0422 3.78793 16.8123C3.88324 16.5824 4.02293 16.3735 4.19903 16.1976L4.25584 16.1408C4.47416 15.9176 4.6206 15.6342 4.6763 15.327C4.732 15.0198 4.6944 14.7029 4.56834 14.4173C4.4483 14.1372 4.24898 13.8984 3.99492 13.7301C3.74086 13.5619 3.44314 13.4716 3.13842 13.4703H2.97744C2.47513 13.4703 1.9934 13.2708 1.63822 12.9156C1.28304 12.5604 1.0835 12.0787 1.0835 11.5764C1.0835 11.0741 1.28304 10.5924 1.63822 10.2372C1.9934 9.88201 2.47513 9.68247 2.97744 9.68247H3.06266C3.3761 9.67514 3.68009 9.57368 3.93511 9.39129C4.19012 9.20889 4.38436 8.954 4.49259 8.65974C4.61864 8.37412 4.65625 8.05729 4.60055 7.75009C4.54485 7.4429 4.3984 7.15944 4.18009 6.93626L4.12327 6.87944C3.94718 6.70354 3.80748 6.49466 3.71217 6.26474C3.61686 6.03482 3.5678 5.78837 3.5678 5.53948C3.5678 5.29058 3.61686 5.04413 3.71217 4.81421C3.80748 4.58429 3.94718 4.37541 4.12327 4.19951C4.29916 4.02342 4.50804 3.88373 4.73797 3.78842C4.96789 3.69311 5.21434 3.64405 5.46323 3.64405C5.71212 3.64405 5.95858 3.69311 6.1885 3.78842C6.41842 3.88373 6.6273 4.02342 6.80319 4.19951L6.86001 4.25633C7.08319 4.47464 7.36665 4.62109 7.67385 4.67679C7.98104 4.73249 8.29787 4.69489 8.5835 4.56883H8.65925C8.93934 4.44879 9.17821 4.24947 9.34646 3.99541C9.51472 3.74135 9.60501 3.44363 9.60622 3.13891V2.97792C9.60622 2.47562 9.80576 1.99389 10.1609 1.63871C10.5161 1.28352 10.9979 1.08398 11.5002 1.08398C12.0025 1.08398 12.4842 1.28352 12.8394 1.63871C13.1946 1.99389 13.3941 2.47562 13.3941 2.97792V3.06315C13.3953 3.36787 13.4856 3.66559 13.6539 3.91965C13.8221 4.17372 14.061 4.37303 14.3411 4.49308C14.6267 4.61913 14.9435 4.65673 15.2507 4.60103C15.5579 4.54533 15.8414 4.39889 16.0646 4.18058L16.1214 4.12376C16.2973 3.94767 16.5062 3.80797 16.7361 3.71266C16.966 3.61735 17.2124 3.56829 17.4613 3.56829C17.7102 3.56829 17.9567 3.61735 18.1866 3.71266C18.4165 3.80797 18.6254 3.94767 18.8013 4.12376C18.9774 4.29965 19.1171 4.50853 19.2124 4.73845C19.3077 4.96837 19.3568 5.21483 19.3568 5.46372C19.3568 5.71261 19.3077 5.95906 19.2124 6.18898C19.1171 6.41891 18.9774 6.62779 18.8013 6.80368L18.7445 6.8605C18.5262 7.08368 18.3797 7.36714 18.324 7.67434C18.2683 7.98153 18.3059 8.29836 18.432 8.58398V8.65974C18.552 8.93983 18.7513 9.1787 19.0054 9.34695C19.2595 9.5152 19.5572 9.6055 19.8619 9.60671H20.0229C20.5252 9.60671 21.0069 9.80625 21.3621 10.1614C21.7173 10.5166 21.9168 10.9983 21.9168 11.5007C21.9168 12.003 21.7173 12.4847 21.3621 12.8399C21.0069 13.1951 20.5252 13.3946 20.0229 13.3946H19.9377C19.6329 13.3958 19.3352 13.4861 19.0812 13.6544C18.8271 13.8226 18.6278 14.0615 18.5077 14.3416Z" stroke="#F1F0EB" stroke-width="1.5" stroke-linecap="round" stroke-linejoin="round"/>
</svg>
