<svg width="35" height="35" viewBox="0 0 35 35" fill="none" xmlns="http://www.w3.org/2000/svg">
<circle cx="17.5" cy="17.5" r="16.75" stroke="#F1F0EB" stroke-width="1.5"/>
<path d="M22 12.9991L8 26.9991M24 19.9991H15M12.6 23.9991H19.3373C19.5818 23.9991 19.7041 23.9991 19.8192 23.9715C19.9213 23.947 20.0188 23.9066 20.1083 23.8517C20.2092 23.7899 20.2957 23.7034 20.4686 23.5305L25.5 18.4991C25.739 18.2601 25.8584 18.1407 25.9546 18.0349C28.0348 15.7464 28.0348 12.2518 25.9546 9.96332C25.8584 9.85754 25.739 9.73806 25.5 9.49909C25.261 9.26013 25.1416 9.14065 25.0358 9.04449C22.7473 6.96434 19.2527 6.96434 16.9642 9.04449C16.8584 9.14065 16.739 9.26013 16.5 9.49909L11.4686 14.5305C11.2957 14.7034 11.2092 14.7899 11.1474 14.8908C11.0925 14.9803 11.0521 15.0778 11.0276 15.1799C11 15.2949 11 15.4172 11 15.6618V22.3991C11 22.9591 11 23.2392 11.109 23.4531C11.2049 23.6412 11.3578 23.7942 11.546 23.8901C11.7599 23.9991 12.0399 23.9991 12.6 23.9991Z" stroke="#F1F0EB" stroke-width="1.5" stroke-linecap="round" stroke-linejoin="round"/>
</svg>
